<svg width="183" height="133" viewBox="0 0 183 133" fill="none" xmlns="http://www.w3.org/2000/svg">
<path d="M148.832 128.966C148.832 131.194 122.676 133 90.4117 133C58.1472 133 31.9917 131.194 31.9917 128.966C31.9917 126.738 58.1472 124.932 90.4117 124.932C122.676 124.932 148.832 126.738 148.832 128.966Z" fill="#C4C4C4"/>
<path fill-rule="evenodd" clip-rule="evenodd" d="M101.817 34.7637L101.632 34.7585C101.64 34.4444 101.645 34.1291 101.645 33.8128C101.645 33.4965 101.64 33.1812 101.632 32.867L101.817 32.8619C101.826 33.1778 101.83 33.4948 101.83 33.8128C101.83 34.1308 101.826 34.4478 101.817 34.7637ZM101.712 30.9683L101.527 30.9837C101.475 30.3538 101.405 29.7289 101.318 29.1093L101.502 29.0836C101.589 29.7066 101.659 30.335 101.712 30.9683ZM101.187 27.2138L101.005 27.2498C100.882 26.6306 100.743 26.0175 100.587 25.411L100.766 25.3648C100.923 25.9747 101.063 26.5912 101.187 27.2138ZM100.242 23.5413L100.065 23.5976C99.8737 22.9965 99.6658 22.4027 99.442 21.8168L99.6153 21.7506C99.8403 22.3398 100.049 22.9369 100.242 23.5413ZM98.8886 19.9984L98.7194 20.0742C98.4617 19.4992 98.1883 18.9327 97.8997 18.3753L98.0644 18.2901C98.3546 18.8505 98.6295 19.4202 98.8886 19.9984ZM97.1455 16.6309C96.8233 16.0859 96.4863 15.5507 96.1349 15.0259L95.9808 15.129C96.3302 15.651 96.6654 16.1832 96.9858 16.7252L97.1455 16.6309ZM95.036 13.4798L94.8879 13.5914C94.5091 13.0889 94.1165 12.5973 93.7107 12.1172L93.8523 11.9975C94.2604 12.4802 94.6551 12.9745 95.036 13.4798ZM92.5879 10.5835L92.4532 10.7109C92.021 10.254 91.5762 9.80916 91.1192 9.377L91.2467 9.24226C91.7061 9.67678 92.1534 10.1241 92.5879 10.5835ZM89.8327 7.97783L89.713 8.11947C89.2329 7.71367 88.7413 7.32109 88.2387 6.94228L88.3504 6.79418C88.8557 7.17507 89.35 7.5698 89.8327 7.97783ZM86.8043 5.69524L86.7011 5.84935C86.1792 5.49993 85.6469 5.16474 85.1049 4.84432L85.1993 4.68467C85.7443 5.00685 86.2795 5.34389 86.8043 5.69524ZM83.5401 3.76573L83.4548 3.93043C82.8975 3.64189 82.331 3.36849 81.7559 3.11078L81.8318 2.94153C82.41 3.20068 82.9796 3.47559 83.5401 3.76573ZM80.0795 2.2149L80.0134 2.38816C79.4275 2.16436 78.8337 1.95648 78.2326 1.76504L78.2889 1.58833C78.8933 1.78083 79.4904 1.98986 80.0795 2.2149ZM76.4653 1.0639L76.4191 1.24352C75.8127 1.08753 75.1996 0.948026 74.5803 0.825526L74.6163 0.643592C75.239 0.766771 75.8555 0.907045 76.4653 1.0639ZM72.7465 0.328094L72.7208 0.511764C72.1013 0.425061 71.4763 0.355236 70.8465 0.302771L70.8618 0.117951C71.4952 0.170703 72.1236 0.240912 72.7465 0.328094ZM68.9683 0.0131125L68.9631 0.198502C68.6489 0.189827 68.3337 0.18546 68.0174 0.18546C67.7011 0.18546 67.3858 0.189827 67.0716 0.198502L67.0665 0.0131127C67.3824 0.00439001 67.6994 0 68.0174 0C68.3354 0 68.6524 0.00438993 68.9683 0.0131125ZM65.1729 0.117952L65.1883 0.302772C64.5584 0.355237 63.9335 0.425062 63.3139 0.511766L63.2882 0.328096C63.9112 0.240914 64.5396 0.170705 65.1729 0.117952ZM61.4184 0.643594L61.4544 0.825529C60.8352 0.948029 60.2221 1.08753 59.6156 1.24352L59.5694 1.06391C60.1793 0.907047 60.7958 0.766773 61.4184 0.643594ZM57.7459 1.58833L57.8022 1.76505C57.2011 1.95648 56.6073 2.16436 56.0214 2.38816L55.9552 2.21491C56.5444 1.98987 57.1414 1.78083 57.7459 1.58833ZM54.203 2.94154L54.2788 3.11078C53.7038 3.3685 53.1373 3.6419 52.5799 3.93044L52.4946 3.76573C53.0551 3.4756 53.6247 3.20068 54.203 2.94154ZM50.8355 4.68467L50.9298 4.84432C50.3878 5.16474 49.8556 5.49993 49.3336 5.84935L49.2305 5.69524C49.7553 5.3439 50.2904 5.00686 50.8355 4.68467ZM47.6844 6.79418L47.796 6.94228C47.2935 7.32109 46.8018 7.71367 46.3218 8.11947L46.202 7.97783C46.6848 7.56981 47.1791 7.17507 47.6844 6.79418ZM44.7881 9.24226L44.9155 9.377C44.4586 9.80916 44.0137 10.254 43.5816 10.7109L43.4468 10.5835C43.8814 10.1241 44.3286 9.67679 44.7881 9.24226ZM42.1824 11.9975L42.3241 12.1172C41.9183 12.5973 41.5257 13.0889 41.1469 13.5914L40.9988 13.4798C41.3797 12.9745 41.7744 12.4802 42.1824 11.9975ZM39.8998 15.0259L40.0539 15.1291C39.7045 15.651 39.3693 16.1832 39.0489 16.7253L38.8893 16.6309C39.2114 16.0859 39.5485 15.5507 39.8998 15.0259ZM37.9703 18.2901L38.135 18.3753C37.8465 18.9327 37.5731 19.4992 37.3154 20.0742L37.1461 19.9984C37.4053 19.4202 37.6802 18.8505 37.9703 18.2901ZM36.4195 21.7506L36.5927 21.8168C36.3689 22.4027 36.1611 22.9965 35.9696 23.5976L35.7929 23.5413C35.9854 22.9369 36.1945 22.3398 36.4195 21.7506ZM35.2685 25.3648L35.4481 25.411C35.2921 26.0175 35.1526 26.6306 35.0301 27.2498L34.8482 27.2138C34.9714 26.5912 35.1116 25.9747 35.2685 25.3648ZM34.5327 29.0836L34.7164 29.1094C34.6297 29.7289 34.5598 30.3538 34.5074 30.9837L34.3225 30.9683C34.3753 30.335 34.4455 29.7066 34.5327 29.0836ZM34.2177 32.8619C34.209 33.1778 34.2046 33.4948 34.2046 33.8128C34.2046 34.1308 34.209 34.4478 34.2177 34.7637L34.4031 34.7586C34.3944 34.4444 34.3901 34.1291 34.3901 33.8128C34.3901 33.4965 34.3944 33.1812 34.4031 32.867L34.2177 32.8619ZM34.3225 36.6573L34.5074 36.6419C34.5598 37.2718 34.6297 37.8967 34.7164 38.5162L34.5327 38.5419C34.4455 37.919 34.3753 37.2906 34.3225 36.6573ZM34.8482 40.4118L35.0301 40.3758C35.1526 40.995 35.2921 41.6081 35.4481 42.2146L35.2685 42.2608C35.1116 41.6509 34.9714 41.0344 34.8482 40.4118ZM35.7929 44.0843L35.9696 44.028C36.1611 44.6291 36.369 45.2229 36.5927 45.8088L36.4195 45.875C36.1945 45.2858 35.9854 44.6887 35.7929 44.0843ZM37.1461 47.6272L37.3154 47.5513C37.5731 48.1264 37.8465 48.6929 38.135 49.2503L37.9703 49.3355C37.6802 48.775 37.4053 48.2054 37.1461 47.6272ZM38.8893 50.9947L39.0489 50.9003C39.3693 51.4424 39.7045 51.9746 40.0539 52.4965L39.8998 52.5997C39.5485 52.0749 39.2114 51.5397 38.8893 50.9947ZM40.9988 54.1458L41.1469 54.0341C41.5257 54.5367 41.9183 55.0283 42.3241 55.5084L42.1824 55.6281C41.7744 55.1454 41.3797 54.6511 40.9988 54.1458ZM43.4468 57.0421L43.5816 56.9146C44.0138 57.3716 44.4586 57.8164 44.9155 58.2486L44.7881 58.3833C44.3286 57.9488 43.8814 57.5015 43.4468 57.0421ZM46.202 59.6478L46.3218 59.5061C46.8019 59.9119 47.2935 60.3045 47.796 60.6833L47.6844 60.8314C47.1791 60.4505 46.6848 60.0558 46.202 59.6478ZM49.2305 61.9303L49.3336 61.7762C49.8556 62.1256 50.3878 62.4608 50.9298 62.7813L50.8355 62.9409C50.2905 62.6187 49.7553 62.2817 49.2305 61.9303ZM52.4947 63.8598C53.0551 64.15 53.6248 64.4249 54.203 64.684L54.2788 64.5148C53.7038 64.2571 53.1373 63.9837 52.5799 63.6951L52.4947 63.8598ZM55.9552 65.4107L56.0214 65.2374C56.6073 65.4612 57.2011 65.6691 57.8022 65.8605L57.7459 66.0373C57.1415 65.8447 56.5444 65.6357 55.9552 65.4107ZM59.5694 66.5617L59.6156 66.3821C60.2221 66.5381 60.8352 66.6776 61.4544 66.8L61.4184 66.982C60.7958 66.8588 60.1793 66.7185 59.5694 66.5617ZM63.2882 67.2975L63.3139 67.1138C63.9335 67.2005 64.5584 67.2703 65.1883 67.3228L65.1729 67.5076C64.5396 67.4549 63.9112 67.3847 63.2882 67.2975ZM67.0665 67.6125L67.0716 67.4271C67.3858 67.4358 67.7011 67.4401 68.0174 67.4401C68.3337 67.4401 68.649 67.4358 68.9631 67.4271L68.9683 67.6125C68.6524 67.6212 68.3354 67.6256 68.0174 67.6256C67.6994 67.6256 67.3824 67.6212 67.0665 67.6125ZM70.8619 67.5076L70.8465 67.3228C71.4764 67.2703 72.1013 67.2005 72.7208 67.1138L72.7465 67.2975C72.1236 67.3847 71.4952 67.4549 70.8619 67.5076ZM74.6164 66.982L74.5804 66.8C75.1996 66.6776 75.8127 66.538 76.4192 66.3821L76.4654 66.5617C75.8555 66.7185 75.239 66.8588 74.6164 66.982ZM78.2889 66.0372L78.2326 65.8605C78.8337 65.6691 79.4275 65.4612 80.0134 65.2374L80.0796 65.4107C79.4904 65.6357 78.8933 65.8447 78.2889 66.0372ZM81.8318 64.684L81.7559 64.5148C82.331 64.2571 82.8975 63.9837 83.4549 63.6951L83.5401 63.8598C82.9796 64.15 82.41 64.4249 81.8318 64.684ZM85.1993 62.9409L85.1049 62.7813C85.6469 62.4608 86.1792 62.1256 86.7011 61.7762L86.8043 61.9303C86.2795 62.2817 85.7443 62.6187 85.1993 62.9409ZM88.3504 60.8314L88.2387 60.6833C88.7413 60.3045 89.2329 59.9119 89.713 59.5061L89.8327 59.6478C89.35 60.0558 88.8557 60.4505 88.3504 60.8314ZM91.2467 58.3833L91.1192 58.2486C91.5762 57.8164 92.021 57.3716 92.4532 56.9146L92.5879 57.0421C92.1534 57.5015 91.7061 57.9488 91.2467 58.3833ZM93.8523 55.6281L93.7107 55.5084C94.1165 55.0283 94.5091 54.5367 94.8879 54.0341L95.036 54.1458C94.6551 54.6511 94.2604 55.1454 93.8523 55.6281ZM96.1349 52.5997L95.9808 52.4965C96.3302 51.9746 96.6654 51.4423 96.9858 50.9003L97.1455 50.9947C96.8233 51.5397 96.4863 52.0749 96.1349 52.5997ZM98.0644 49.3355C98.3546 48.775 98.6295 48.2054 98.8886 47.6272L98.7194 47.5513C98.4617 48.1264 98.1883 48.6929 97.8997 49.2503L98.0644 49.3355ZM99.6153 45.875L99.442 45.8088C99.6658 45.2229 99.8737 44.6291 100.065 44.028L100.242 44.0843C100.049 44.6887 99.8403 45.2858 99.6153 45.875ZM100.766 42.2608L100.587 42.2146C100.743 41.6081 100.882 40.995 101.005 40.3758L101.187 40.4117C101.063 41.0344 100.923 41.6509 100.766 42.2608ZM101.502 38.5419L101.318 38.5162C101.405 37.8967 101.475 37.2718 101.527 36.6419L101.712 36.6573C101.659 37.2906 101.589 37.919 101.502 38.5419Z" fill="#E08031"/>
<path fill-rule="evenodd" clip-rule="evenodd" d="M153.665 53.01L153.479 53.0048C153.488 52.6907 153.492 52.3754 153.492 52.0591C153.492 51.7428 153.488 51.4275 153.479 51.1133L153.665 51.1082C153.673 51.4241 153.678 51.7411 153.678 52.0591C153.678 52.3771 153.673 52.6941 153.665 53.01ZM153.56 49.2146L153.375 49.23C153.323 48.6001 153.253 47.9752 153.166 47.3556L153.35 47.3299C153.437 47.9529 153.507 48.5813 153.56 49.2146ZM153.034 45.4601L152.852 45.4961C152.73 44.8769 152.59 44.2638 152.434 43.6573L152.614 43.6111C152.771 44.221 152.911 44.8375 153.034 45.4601ZM152.089 41.7876L151.913 41.8439C151.721 41.2428 151.513 40.649 151.29 40.0631L151.463 39.9969C151.688 40.5861 151.897 41.1831 152.089 41.7876ZM150.736 38.2447L150.567 38.3205C150.309 37.7455 150.036 37.179 149.747 36.6216L149.912 36.5363C150.202 37.0968 150.477 37.6664 150.736 38.2447ZM148.993 34.8772C148.671 34.3321 148.334 33.797 147.983 33.2722L147.828 33.3753C148.178 33.8973 148.513 34.4295 148.833 34.9715L148.993 34.8772ZM146.884 31.7261L146.736 31.8377C146.357 31.3352 145.964 30.8435 145.558 30.3635L145.7 30.2437C146.108 30.7265 146.503 31.2208 146.884 31.7261ZM144.436 28.8298L144.301 28.9572C143.869 28.5003 143.424 28.0555 142.967 27.6233L143.094 27.4885C143.554 27.9231 144.001 28.3703 144.436 28.8298ZM141.68 26.2241L141.561 26.3658C141.081 25.96 140.589 25.5674 140.086 25.1886L140.198 25.0405C140.703 25.4214 141.198 25.8161 141.68 26.2241ZM138.652 23.9415L138.549 24.0956C138.027 23.7462 137.495 23.411 136.953 23.0906L137.047 22.931C137.592 23.2531 138.127 23.5902 138.652 23.9415ZM135.388 22.012L135.303 22.1767C134.745 21.8882 134.179 21.6148 133.604 21.3571L133.679 21.1878C134.258 21.447 134.827 21.7219 135.388 22.012ZM131.927 20.4612L131.861 20.6344C131.275 20.4107 130.681 20.2028 130.08 20.0113L130.137 19.8346C130.741 20.0271 131.338 20.2362 131.927 20.4612ZM128.313 19.3102L128.267 19.4898C127.66 19.3338 127.047 19.1943 126.428 19.0718L126.464 18.8899C127.087 19.0131 127.703 19.1533 128.313 19.3102ZM124.594 18.5744L124.568 18.7581C123.949 18.6714 123.324 18.6015 122.694 18.5491L122.709 18.3642C123.343 18.417 123.971 18.4872 124.594 18.5744ZM120.816 18.2594L120.811 18.4448C120.497 18.4361 120.181 18.4318 119.865 18.4318C119.549 18.4318 119.233 18.4361 118.919 18.4448L118.914 18.2594C119.23 18.2507 119.547 18.2463 119.865 18.2463C120.183 18.2463 120.5 18.2507 120.816 18.2594ZM117.021 18.3642L117.036 18.5491C116.406 18.6015 115.781 18.6714 115.162 18.7581L115.136 18.5744C115.759 18.4872 116.387 18.417 117.021 18.3642ZM113.266 18.8899L113.302 19.0718C112.683 19.1943 112.07 19.3338 111.463 19.4898L111.417 19.3102C112.027 19.1533 112.643 19.0131 113.266 18.8899ZM109.594 19.8346L109.65 20.0113C109.049 20.2028 108.455 20.4107 107.869 20.6345L107.803 20.4612C108.392 20.2362 108.989 20.0271 109.594 19.8346ZM106.051 21.1878L106.126 21.3571C105.551 21.6148 104.985 21.8882 104.428 22.1767L104.342 22.012C104.903 21.7219 105.472 21.447 106.051 21.1878ZM102.683 22.931L102.777 23.0906C102.235 23.411 101.703 23.7462 101.181 24.0956L101.078 23.9415C101.603 23.5902 102.138 23.2531 102.683 22.931ZM99.532 25.0405L99.6437 25.1886C99.1411 25.5674 98.6495 25.96 98.1694 26.3658L98.0497 26.2241C98.5324 25.8161 99.0267 25.4214 99.532 25.0405ZM96.6358 27.4886L96.7632 27.6233C96.3062 28.0555 95.8614 28.5003 95.4292 28.9572L95.2945 28.8298C95.729 28.3703 96.1763 27.9231 96.6358 27.4886ZM94.0301 30.2437L94.1717 30.3635C93.7659 30.8436 93.3733 31.3352 92.9945 31.8377L92.8464 31.7261C93.2273 31.2208 93.6221 30.7265 94.0301 30.2437ZM91.7475 33.2722L91.9016 33.3753C91.5522 33.8973 91.217 34.4295 90.8966 34.9715L90.7369 34.8772C91.0591 34.3322 91.3961 33.797 91.7475 33.2722ZM89.818 36.5364L89.9827 36.6216C89.6941 37.179 89.4207 37.7455 89.163 38.3205L88.9938 38.2447C89.2529 37.6665 89.5278 37.0968 89.818 36.5364ZM88.2671 39.9969L88.4404 40.0631C88.2166 40.649 88.0087 41.2428 87.8173 41.8439L87.6406 41.7876C87.8331 41.1832 88.0421 40.5861 88.2671 39.9969ZM87.1162 43.6111L87.2958 43.6573C87.1398 44.2638 87.0003 44.8769 86.8778 45.4961L86.6958 45.4601C86.819 44.8375 86.9593 44.221 87.1162 43.6111ZM86.3803 47.3299L86.564 47.3556C86.4773 47.9752 86.4075 48.6001 86.355 49.23L86.1702 49.2146C86.2229 48.5813 86.2932 47.9529 86.3803 47.3299ZM86.0654 51.1082C86.0566 51.4241 86.0522 51.7411 86.0522 52.0591C86.0522 52.3771 86.0566 52.6941 86.0654 53.01L86.2507 53.0048C86.2421 52.6907 86.2377 52.3754 86.2377 52.0591C86.2377 51.7428 86.2421 51.4275 86.2507 51.1133L86.0654 51.1082ZM86.1702 54.9036L86.355 54.8882C86.4075 55.5181 86.4773 56.143 86.564 56.7625L86.3803 56.7882C86.2932 56.1653 86.223 55.5369 86.1702 54.9036ZM86.6958 58.6581L86.8778 58.6221C87.0003 59.2413 87.1398 59.8544 87.2958 60.4609L87.1162 60.5071C86.9593 59.8972 86.819 59.2807 86.6958 58.6581ZM87.6406 62.3306L87.8173 62.2743C88.0087 62.8754 88.2166 63.4692 88.4404 64.0551L88.2672 64.1213C88.0421 63.5321 87.8331 62.935 87.6406 62.3306ZM88.9938 65.8735L89.163 65.7976C89.4207 66.3727 89.6941 66.9392 89.9827 67.4966L89.818 67.5818C89.5278 67.0213 89.2529 66.4517 88.9938 65.8735ZM90.7369 69.241L90.8966 69.1466C91.217 69.6886 91.5522 70.2209 91.9016 70.7428L91.7475 70.846C91.3961 70.3212 91.0591 69.786 90.7369 69.241ZM92.8464 72.3921L92.9945 72.2804C93.3733 72.783 93.7659 73.2746 94.1717 73.7547L94.0301 73.8744C93.6221 73.3917 93.2273 72.8974 92.8464 72.3921ZM95.2945 75.2884L95.4293 75.1609C95.8614 75.6179 96.3062 76.0627 96.7632 76.4949L96.6358 76.6296C96.1763 76.1951 95.729 75.7478 95.2945 75.2884ZM98.0497 77.894L98.1694 77.7524C98.6495 78.1582 99.1411 78.5508 99.6437 78.9296L99.532 79.0777C99.0267 78.6968 98.5324 78.3021 98.0497 77.894ZM101.078 80.1766L101.181 80.0225C101.703 80.3719 102.235 80.7071 102.777 81.0275L102.683 81.1872C102.138 80.865 101.603 80.528 101.078 80.1766ZM104.342 82.1061C104.903 82.3963 105.472 82.6712 106.051 82.9303L106.126 82.7611C105.551 82.5034 104.985 82.23 104.428 81.9414L104.342 82.1061ZM107.803 83.657L107.869 83.4837C108.455 83.7075 109.049 83.9154 109.65 84.1068L109.594 84.2835C108.989 84.091 108.392 83.882 107.803 83.657ZM111.417 84.808L111.463 84.6283C112.07 84.7843 112.683 84.9238 113.302 85.0463L113.266 85.2283C112.643 85.1051 112.027 84.9648 111.417 84.808ZM115.136 85.5438L115.162 85.3601C115.781 85.4468 116.406 85.5166 117.036 85.5691L117.021 85.7539C116.387 85.7012 115.759 85.631 115.136 85.5438ZM118.914 85.8588L118.919 85.6734C119.233 85.682 119.549 85.6864 119.865 85.6864C120.181 85.6864 120.497 85.682 120.811 85.6734L120.816 85.8588C120.5 85.8675 120.183 85.8719 119.865 85.8719C119.547 85.8719 119.23 85.8675 118.914 85.8588ZM122.71 85.7539L122.694 85.5691C123.324 85.5166 123.949 85.4468 124.568 85.3601L124.594 85.5438C123.971 85.631 123.343 85.7012 122.71 85.7539ZM126.464 85.2283L126.428 85.0463C127.047 84.9238 127.66 84.7843 128.267 84.6283L128.313 84.808C127.703 84.9648 127.087 85.1051 126.464 85.2283ZM130.137 84.2835L130.08 84.1068C130.681 83.9154 131.275 83.7075 131.861 83.4837L131.927 83.657C131.338 83.882 130.741 84.091 130.137 84.2835ZM133.679 82.9303L133.604 82.7611C134.179 82.5034 134.745 82.23 135.303 81.9414L135.388 82.1061C134.827 82.3963 134.258 82.6712 133.679 82.9303ZM137.047 81.1872L136.953 81.0275C137.495 80.7071 138.027 80.3719 138.549 80.0225L138.652 80.1766C138.127 80.528 137.592 80.865 137.047 81.1872ZM140.198 79.0777L140.086 78.9296C140.589 78.5508 141.081 78.1582 141.561 77.7524L141.68 77.894C141.198 78.3021 140.703 78.6968 140.198 79.0777ZM143.094 76.6296L142.967 76.4949C143.424 76.0627 143.869 75.6179 144.301 75.1609L144.436 75.2884C144.001 75.7478 143.554 76.1951 143.094 76.6296ZM145.7 73.8744L145.558 73.7547C145.964 73.2746 146.357 72.783 146.736 72.2804L146.884 72.3921C146.503 72.8974 146.108 73.3917 145.7 73.8744ZM147.983 70.846L147.828 70.7428C148.178 70.2209 148.513 69.6886 148.834 69.1466L148.993 69.241C148.671 69.786 148.334 70.3212 147.983 70.846ZM149.912 67.5818C150.202 67.0213 150.477 66.4517 150.736 65.8735L150.567 65.7976C150.309 66.3727 150.036 66.9392 149.747 67.4965L149.912 67.5818ZM151.463 64.1212L151.29 64.0551C151.513 63.4692 151.721 62.8754 151.913 62.2743L152.09 62.3306C151.897 62.935 151.688 63.5321 151.463 64.1212ZM152.614 60.507L152.434 60.4608C152.59 59.8544 152.73 59.2413 152.852 58.6221L153.034 58.658C152.911 59.2807 152.771 59.8972 152.614 60.507ZM153.35 56.7882L153.166 56.7625C153.253 56.143 153.323 55.518 153.375 54.8882L153.56 54.9035C153.507 55.5369 153.437 56.1653 153.35 56.7882Z" fill="#E08031"/>
<path d="M150.743 65.9856C150.743 100.229 122.983 127.989 88.7391 127.989C54.4954 127.989 26.7354 100.229 26.7354 65.9856C26.7354 31.7419 54.4954 3.98189 88.7391 3.98189C122.983 3.98189 150.743 31.7419 150.743 65.9856Z" fill="#FEE2EC"/>
<path fill-rule="evenodd" clip-rule="evenodd" d="M152.248 41.0946C154.619 45.0887 156.993 50.7856 156.993 57.5864C156.993 64.3811 154.623 72.2649 152.259 78.4408C151.076 81.5307 149.893 84.1969 149.006 86.0907C148.563 87.0377 148.193 87.7917 147.934 88.3091C147.805 88.5678 147.703 88.7674 147.634 88.9024C147.599 88.9699 147.572 89.0212 147.554 89.0557C147.545 89.073 147.538 89.0861 147.534 89.0948L147.527 89.1073L147.527 89.1079C147.527 89.1081 147.527 89.1082 147.404 89.0433C147.281 88.9784 147.281 88.9784 147.281 88.9782L147.287 88.9657C147.292 88.9571 147.299 88.9443 147.307 88.9272C147.325 88.8931 147.352 88.8422 147.386 88.7751C147.455 88.641 147.556 88.4423 147.685 88.1846C147.943 87.6691 148.312 86.9173 148.754 85.9727C149.639 84.0835 150.819 81.4236 151.999 78.3413C154.36 72.1729 156.715 64.3282 156.715 57.5864C156.715 50.8507 154.363 45.2029 152.009 41.2366C150.832 39.2538 149.655 37.6927 148.773 36.6276C148.332 36.0951 147.965 35.6868 147.708 35.4119C147.58 35.2745 147.479 35.1705 147.411 35.1009C147.376 35.0662 147.35 35.0401 147.333 35.0227C147.324 35.0141 147.318 35.0076 147.313 35.0033L147.308 34.9986L147.307 34.9975L147.307 34.9972C147.307 34.9972 147.307 34.9967 147.404 34.8973C147.5 34.7974 147.501 34.7974 147.501 34.7976L147.501 34.7979L147.502 34.7993L147.508 34.8046C147.513 34.8093 147.52 34.8161 147.529 34.8252C147.547 34.8433 147.574 34.8702 147.609 34.9058C147.679 34.977 147.781 35.0828 147.911 35.2221C148.172 35.5006 148.543 35.9131 148.987 36.4502C149.877 37.5242 151.063 39.0972 152.248 41.0946Z" fill="#420C0C"/>
<path d="M154.49 42.7775C155.361 42.7775 156.066 42.1133 156.066 41.294C156.066 40.4747 155.361 39.8105 154.49 39.8105C153.62 39.8105 152.914 40.4747 152.914 41.294C152.914 42.1133 153.62 42.7775 154.49 42.7775Z" fill="#506656"/>
<path d="M146.887 32.7641C146.481 32.7641 145.633 32.0669 145.311 32.3413C145.033 32.5754 145.311 33.8101 145.311 34.2472C145.311 35.0665 146.017 35.7307 146.887 35.7307C147.758 35.7307 148.463 35.0669 148.463 34.2476C148.463 33.4282 147.758 32.7641 146.887 32.7641Z" fill="#506656"/>
<path d="M148.185 40.1813C149.056 40.1813 149.761 39.5171 149.761 38.6978C149.761 37.8785 149.056 37.2144 148.185 37.2144C147.315 37.2144 146.609 37.8785 146.609 38.6978C146.609 39.5171 147.315 40.1813 148.185 40.1813Z" fill="#506656"/>
<path d="M151.338 38.3271C152.208 38.3271 152.914 37.6629 152.914 36.8436C152.914 36.0243 152.208 35.3601 151.338 35.3601C150.467 35.3601 149.762 36.0243 149.762 36.8436C149.762 37.6629 150.467 38.3271 151.338 38.3271Z" fill="#506656"/>
<path d="M151.338 44.6318C152.208 44.6318 152.914 43.9676 152.914 43.1483C152.914 42.329 152.208 41.6648 151.338 41.6648C150.467 41.6648 149.762 42.329 149.762 43.1483C149.762 43.9676 150.467 44.6318 151.338 44.6318Z" fill="#506656"/>
<path d="M153.377 49.4531C154.248 49.4531 154.954 48.7889 154.954 47.9696C154.954 47.1503 154.248 46.4861 153.377 46.4861C152.507 46.4861 151.801 47.1503 151.801 47.9696C151.801 48.7889 152.507 49.4531 153.377 49.4531Z" fill="#506656"/>
<path d="M156.53 47.5988C157.4 47.5988 158.106 46.9346 158.106 46.1153C158.106 45.296 157.4 44.6318 156.53 44.6318C155.659 44.6318 154.954 45.296 154.954 46.1153C154.954 46.9346 155.659 47.5988 156.53 47.5988Z" fill="#506656"/>
<path d="M155.204 51.2903C154.402 50.95 153.493 51.2858 153.172 52.0403C152.852 52.7949 153.242 53.6825 154.044 54.0229C154.846 54.3632 155.755 54.0275 156.076 53.2729C156.396 52.5183 156.006 51.6307 155.204 51.2903Z" fill="#506656"/>
<path d="M158.83 50.815C158.028 50.4746 157.119 50.8104 156.798 51.565C156.478 52.3196 156.868 53.2072 157.67 53.5476C158.472 53.8879 159.381 53.5521 159.702 52.7975C160.022 52.043 159.632 51.1553 158.83 50.815Z" fill="#506656"/>
<path d="M155.837 56.2523C155.125 55.7527 154.165 55.8916 153.695 56.5626C153.225 57.2336 153.421 58.1826 154.134 58.6822C154.847 59.1819 155.807 59.043 156.277 58.372C156.747 57.701 156.55 56.752 155.837 56.2523Z" fill="#506656"/>
<path d="M159.483 56.5414C158.771 56.0417 157.811 56.1807 157.341 56.8517C156.871 57.5227 157.067 58.4717 157.78 58.9713C158.493 59.4709 159.453 59.332 159.923 58.661C160.393 57.99 160.196 57.041 159.483 56.5414Z" fill="#506656"/>
<path d="M155.168 62.8786C154.482 62.3424 153.517 62.4311 153.012 63.0767C152.507 63.7223 152.654 64.6804 153.34 65.2166C154.026 65.7528 154.991 65.6641 155.496 65.0185C156.001 64.3729 155.854 63.4148 155.168 62.8786Z" fill="#506656"/>
<path d="M158.794 63.3581C158.108 62.8219 157.142 62.9106 156.638 63.5562C156.133 64.2018 156.28 65.1599 156.966 65.6961C157.652 66.2323 158.617 66.1436 159.122 65.498C159.627 64.8524 159.48 63.8943 158.794 63.3581Z" fill="#506656"/>
<path d="M153.684 69.1833C152.998 68.6471 152.033 68.7358 151.528 69.3814C151.024 70.027 151.171 70.9851 151.857 71.5213C152.543 72.0575 153.508 71.9688 154.012 71.3232C154.517 70.6776 154.37 69.7195 153.684 69.1833Z" fill="#506656"/>
<path d="M157.31 69.663C156.624 69.1268 155.659 69.2155 155.154 69.8611C154.65 70.5067 154.797 71.4648 155.483 72.001C156.169 72.5372 157.134 72.4486 157.638 71.8029C158.143 71.1573 157.996 70.1993 157.31 69.663Z" fill="#506656"/>
<path fill-rule="evenodd" clip-rule="evenodd" d="M17.6794 43.7441C15.3086 47.7382 12.9349 53.435 12.9349 60.2358C12.9349 67.0305 15.3052 74.9143 17.6691 81.0902C18.8518 84.1801 20.0345 86.8463 20.9215 88.7402C21.365 89.6871 21.7347 90.4411 21.9936 90.9585C22.123 91.2172 22.2248 91.4168 22.2942 91.5518C22.3289 91.6193 22.3556 91.6706 22.3736 91.7052C22.3826 91.7224 22.3894 91.7355 22.394 91.7443L22.4005 91.7567L22.4009 91.7574C22.4009 91.7575 22.401 91.7576 22.524 91.6927C22.6471 91.6278 22.647 91.6278 22.647 91.6277L22.6404 91.6151C22.6359 91.6065 22.6292 91.5937 22.6203 91.5766C22.6025 91.5425 22.5761 91.4916 22.5416 91.4245C22.4726 91.2904 22.3713 91.0918 22.2424 90.834C21.9844 90.3185 21.6158 89.5667 21.1734 88.6222C20.2885 86.7329 19.1087 84.073 17.9289 80.9907C15.5678 74.8223 13.2131 66.9777 13.2131 60.2358C13.2131 53.5001 15.5644 47.8524 17.9186 43.8861C19.0955 41.9033 20.2724 40.3421 21.1546 39.277C21.5956 38.7446 21.9629 38.3362 22.2196 38.0614C22.348 37.9239 22.4486 37.8199 22.517 37.7504C22.5512 37.7156 22.5774 37.6895 22.5949 37.6722C22.6036 37.6635 22.6102 37.657 22.6145 37.6528L22.6194 37.648L22.6205 37.6469L22.6208 37.6467C22.6208 37.6466 22.6203 37.6461 22.524 37.5467C22.4273 37.4468 22.4272 37.4469 22.4271 37.447L22.4267 37.4474L22.4252 37.4488L22.4198 37.4541C22.4151 37.4587 22.4081 37.4656 22.399 37.4746C22.3807 37.4927 22.3538 37.5197 22.3187 37.5553C22.2487 37.6264 22.1464 37.7322 22.0163 37.8715C21.7562 38.15 21.3852 38.5625 20.9403 39.0996C20.0507 40.1737 18.865 41.7467 17.6794 43.7441Z" fill="#420C0C"/>
<path d="M15.4375 45.4269C14.567 45.4269 13.8613 44.7628 13.8613 43.9434C13.8613 43.1241 14.567 42.46 15.4375 42.46C16.308 42.46 17.0137 43.1241 17.0137 43.9434C17.0137 44.7628 16.308 45.4269 15.4375 45.4269Z" fill="#506656"/>
<path d="M23.0406 35.4135C23.4463 35.4135 24.2952 34.7163 24.6169 34.9907C24.8944 35.2248 24.6169 36.4595 24.6169 36.8966C24.6169 37.7159 23.9112 38.3801 23.0407 38.3801C22.1702 38.3801 21.4644 37.7163 21.4644 36.897C21.4644 36.0776 22.1701 35.4135 23.0406 35.4135Z" fill="#506656"/>
<path d="M21.7427 42.8307C20.8722 42.8307 20.1665 42.1666 20.1665 41.3473C20.1665 40.5279 20.8722 39.8638 21.7427 39.8638C22.6132 39.8638 23.3188 40.5279 23.3188 41.3473C23.3188 42.1666 22.6132 42.8307 21.7427 42.8307Z" fill="#506656"/>
<path d="M18.5898 40.9765C17.7194 40.9765 17.0137 40.3123 17.0137 39.493C17.0137 38.6737 17.7194 38.0095 18.5898 38.0095C19.4603 38.0095 20.166 38.6737 20.166 39.493C20.166 40.3123 19.4603 40.9765 18.5898 40.9765Z" fill="#506656"/>
<path d="M18.5898 47.2812C17.7194 47.2812 17.0137 46.617 17.0137 45.7977C17.0137 44.9784 17.7194 44.3142 18.5898 44.3142C19.4603 44.3142 20.166 44.9784 20.166 45.7977C20.166 46.617 19.4603 47.2812 18.5898 47.2812Z" fill="#506656"/>
<path d="M16.5503 52.1025C15.6798 52.1025 14.9741 51.4383 14.9741 50.619C14.9741 49.7997 15.6798 49.1355 16.5503 49.1355C17.4208 49.1355 18.1265 49.7997 18.1265 50.619C18.1265 51.4383 17.4208 52.1025 16.5503 52.1025Z" fill="#506656"/>
<path d="M13.3975 50.2482C12.527 50.2482 11.8213 49.584 11.8213 48.7647C11.8213 47.9454 12.527 47.2812 13.3975 47.2812C14.268 47.2812 14.9736 47.9454 14.9736 48.7647C14.9736 49.584 14.268 50.2482 13.3975 50.2482Z" fill="#506656"/>
<path d="M14.7237 53.9397C15.5254 53.5994 16.435 53.9352 16.7554 54.6898C17.0757 55.4443 16.6855 56.332 15.8838 56.6723C15.0821 57.0127 14.1724 56.6769 13.8521 55.9223C13.5317 55.1677 13.9219 54.2801 14.7237 53.9397Z" fill="#506656"/>
<path d="M11.0972 53.4644C11.8989 53.124 12.8086 53.4598 13.1289 54.2144C13.4493 54.969 13.0591 55.8566 12.2573 56.197C11.4556 56.5373 10.546 56.2015 10.2256 55.4469C9.90524 54.6924 10.2955 53.8048 11.0972 53.4644Z" fill="#506656"/>
<path d="M14.0897 58.9017C14.8027 58.4021 15.7619 58.541 16.2322 59.212C16.7025 59.883 16.5058 60.832 15.7929 61.3316C15.0799 61.8313 14.1207 61.6924 13.6504 61.0214C13.1801 60.3504 13.3768 59.4014 14.0897 58.9017Z" fill="#506656"/>
<path d="M10.4443 59.1909C11.1572 58.6912 12.1164 58.8301 12.5867 59.5011C13.0569 60.1722 12.8602 61.1212 12.1473 61.6209C11.4344 62.1206 10.4752 61.9817 10.005 61.3106C9.53469 60.6396 9.7314 59.6906 10.4443 59.1909Z" fill="#506656"/>
<path d="M14.7596 65.528C15.4455 64.9918 16.4107 65.0805 16.9154 65.7261C17.4201 66.3717 17.2732 67.3298 16.5872 67.866C15.9013 68.4022 14.9361 68.3135 14.4314 67.6679C13.9267 67.0223 14.0736 66.0643 14.7596 65.528Z" fill="#506656"/>
<path d="M11.1341 66.0078C11.82 65.4716 12.7852 65.5602 13.2899 66.2058C13.7946 66.8515 13.6477 67.8095 12.9618 68.3457C12.2758 68.882 11.3106 68.7933 10.8059 68.1477C10.3012 67.5021 10.4481 66.544 11.1341 66.0078Z" fill="#506656"/>
<path d="M16.2435 71.8327C16.9294 71.2965 17.8946 71.3852 18.3993 72.0308C18.904 72.6764 18.7571 73.6345 18.0711 74.1707C17.3852 74.7069 16.42 74.6182 15.9153 73.9726C15.4106 73.327 15.5575 72.3689 16.2435 71.8327Z" fill="#506656"/>
<path d="M12.6175 72.3125C13.3034 71.7762 14.2686 71.8649 14.7733 72.5105C15.278 73.1561 15.1311 74.1142 14.4452 74.6504C13.7592 75.1866 12.794 75.098 12.2893 74.4524C11.7846 73.8067 11.9315 72.8487 12.6175 72.3125Z" fill="#506656"/>
<path fill-rule="evenodd" clip-rule="evenodd" d="M142.432 39.4083C144.803 43.4024 147.177 49.0992 147.177 55.9001C147.177 62.6947 144.807 70.5786 142.443 76.7544C141.26 79.8443 140.077 82.5106 139.19 84.4044C138.747 85.3513 138.377 86.1053 138.118 86.6227C137.989 86.8814 137.887 87.081 137.818 87.216C137.783 87.2835 137.756 87.3349 137.738 87.3694C137.729 87.3867 137.722 87.3997 137.718 87.4085L137.711 87.4209L137.711 87.4216C137.711 87.4217 137.711 87.4218 137.588 87.3569C137.465 87.2921 137.465 87.292 137.465 87.2919L137.471 87.2793C137.476 87.2708 137.483 87.2579 137.492 87.2409C137.509 87.2067 137.536 87.1558 137.57 87.0888C137.639 86.9546 137.74 86.756 137.869 86.4983C138.127 85.9828 138.496 85.231 138.938 84.2864C139.823 82.3971 141.003 79.7372 142.183 76.655C144.544 70.4865 146.899 62.6419 146.899 55.9001C146.899 49.1643 144.547 43.5166 142.193 39.5503C141.016 37.5675 139.839 36.0063 138.957 34.9413C138.516 34.4088 138.149 34.0005 137.892 33.7256C137.764 33.5882 137.663 33.4841 137.595 33.4146C137.561 33.3798 137.534 33.3537 137.517 33.3364C137.508 33.3277 137.502 33.3212 137.497 33.317L137.492 33.3123L137.491 33.3111L137.491 33.3109C137.491 33.3109 137.492 33.3104 137.588 33.211C137.685 33.111 137.685 33.1111 137.685 33.1112L137.685 33.1116L137.687 33.113L137.692 33.1183C137.697 33.1229 137.704 33.1298 137.713 33.1389C137.731 33.157 137.758 33.1839 137.793 33.2195C137.863 33.2907 137.965 33.3965 138.096 33.5357C138.356 33.8143 138.727 34.2267 139.171 34.7638C140.061 35.8379 141.247 37.4109 142.432 39.4083Z" fill="#420C0C"/>
<path d="M144.674 41.091C145.545 41.091 146.25 40.4268 146.25 39.6075C146.25 38.7882 145.545 38.124 144.674 38.124C143.804 38.124 143.098 38.7882 143.098 39.6075C143.098 40.4268 143.804 41.091 144.674 41.091Z" fill="#506656"/>
<path d="M137.071 31.0778C136.666 31.0778 135.817 30.3807 135.495 30.655C135.217 30.8891 135.495 32.1238 135.495 32.5609C135.495 33.3802 136.201 34.0444 137.071 34.0444C137.942 34.0444 138.647 33.3806 138.647 32.5613C138.647 31.742 137.942 31.0778 137.071 31.0778Z" fill="#506656"/>
<path d="M138.369 38.495C139.24 38.495 139.945 37.8309 139.945 37.0116C139.945 36.1923 139.24 35.5281 138.369 35.5281C137.499 35.5281 136.793 36.1923 136.793 37.0116C136.793 37.8309 137.499 38.495 138.369 38.495Z" fill="#506656"/>
<path d="M141.521 36.6408C142.392 36.6408 143.098 35.9766 143.098 35.1573C143.098 34.338 142.392 33.6738 141.521 33.6738C140.651 33.6738 139.945 34.338 139.945 35.1573C139.945 35.9766 140.651 36.6408 141.521 36.6408Z" fill="#506656"/>
<path d="M141.521 42.9455C142.392 42.9455 143.098 42.2813 143.098 41.462C143.098 40.6427 142.392 39.9785 141.521 39.9785C140.651 39.9785 139.945 40.6427 139.945 41.462C139.945 42.2813 140.651 42.9455 141.521 42.9455Z" fill="#506656"/>
<path d="M143.561 47.7668C144.432 47.7668 145.137 47.1026 145.137 46.2833C145.137 45.464 144.432 44.7998 143.561 44.7998C142.691 44.7998 141.985 45.464 141.985 46.2833C141.985 47.1026 142.691 47.7668 143.561 47.7668Z" fill="#506656"/>
<path d="M146.713 45.9125C147.584 45.9125 148.29 45.2483 148.29 44.429C148.29 43.6097 147.584 42.9456 146.713 42.9456C145.843 42.9456 145.137 43.6097 145.137 44.429C145.137 45.2483 145.843 45.9125 146.713 45.9125Z" fill="#506656"/>
<path d="M145.387 49.6038C144.585 49.2634 143.676 49.5992 143.355 50.3538C143.035 51.1084 143.425 51.996 144.227 52.3364C145.029 52.6767 145.938 52.3409 146.259 51.5864C146.579 50.8318 146.189 49.9442 145.387 49.6038Z" fill="#506656"/>
<path d="M149.014 49.1287C148.212 48.7883 147.302 49.1241 146.982 49.8787C146.662 50.6333 147.052 51.5209 147.854 51.8613C148.655 52.2016 149.565 51.8658 149.885 51.1113C150.206 50.3567 149.815 49.4691 149.014 49.1287Z" fill="#506656"/>
<path d="M146.021 54.5659C145.308 54.0662 144.349 54.2051 143.879 54.8761C143.408 55.5472 143.605 56.4962 144.318 56.9959C145.031 57.4956 145.99 57.3567 146.46 56.6856C146.931 56.0146 146.734 55.0656 146.021 54.5659Z" fill="#506656"/>
<path d="M149.668 54.8551C148.955 54.3555 147.995 54.4944 147.525 55.1654C147.055 55.8364 147.252 56.7854 147.964 57.285C148.677 57.7847 149.637 57.6457 150.107 56.9747C150.577 56.3037 150.381 55.3548 149.668 54.8551Z" fill="#506656"/>
<path d="M145.351 61.1923C144.665 60.6561 143.7 60.7448 143.195 61.3904C142.691 62.036 142.838 62.9941 143.524 63.5303C144.21 64.0665 145.175 63.9778 145.679 63.3322C146.184 62.6866 146.037 61.7286 145.351 61.1923Z" fill="#506656"/>
<path d="M148.977 61.6718C148.291 61.1356 147.326 61.2243 146.821 61.8699C146.317 62.5155 146.464 63.4736 147.15 64.0098C147.836 64.546 148.801 64.4573 149.305 63.8117C149.81 63.1661 149.663 62.2081 148.977 61.6718Z" fill="#506656"/>
<path d="M143.868 67.497C143.182 66.9608 142.217 67.0495 141.713 67.6951C141.208 68.3407 141.355 69.2988 142.041 69.835C142.727 70.3712 143.692 70.2825 144.197 69.6369C144.701 68.9913 144.554 68.0332 143.868 67.497Z" fill="#506656"/>
<path d="M147.494 67.9765C146.808 67.4403 145.843 67.529 145.338 68.1746C144.833 68.8202 144.98 69.7783 145.666 70.3145C146.352 70.8507 147.317 70.762 147.822 70.1164C148.327 69.4708 148.18 68.5127 147.494 67.9765Z" fill="#506656"/>
<path fill-rule="evenodd" clip-rule="evenodd" d="M27.4943 42.0584C25.1236 46.0525 22.7498 51.7493 22.7498 58.5501C22.7498 65.3448 25.1201 73.2286 27.484 79.4045C28.6668 82.4944 29.8494 85.1606 30.7364 87.0545C31.18 88.0014 31.5496 88.7554 31.8085 89.2728C31.938 89.5315 32.0397 89.7311 32.1091 89.8661C32.1439 89.9336 32.1705 89.9849 32.1885 90.0195C32.1975 90.0367 32.2043 90.0498 32.2089 90.0586L32.2155 90.071L32.2158 90.0717C32.2159 90.0718 32.2159 90.0719 32.339 90.007C32.462 89.9421 32.462 89.9421 32.4619 89.942L32.4553 89.9294C32.4508 89.9208 32.4441 89.908 32.4352 89.8909C32.4174 89.8568 32.391 89.8059 32.3565 89.7388C32.2875 89.6047 32.1863 89.4061 32.0573 89.1483C31.7994 88.6328 31.4308 87.881 30.9884 86.9365C30.1035 85.0472 28.9236 82.3873 27.7438 79.305C25.3828 73.1366 23.028 65.292 23.028 58.5501C23.028 51.8144 25.3793 46.1667 27.7336 42.2004C28.9105 40.2176 30.0873 38.6564 30.9695 37.5913C31.4106 37.0589 31.7779 36.6505 32.0346 36.3757C32.1629 36.2382 32.2636 36.1342 32.332 36.0647C32.3662 36.0299 32.3923 36.0038 32.4098 35.9865C32.4185 35.9778 32.4251 35.9713 32.4295 35.9671L32.4343 35.9623L32.4354 35.9612L32.4357 35.961C32.4357 35.9609 32.4352 35.9604 32.339 35.861C32.2422 35.7611 32.2421 35.7612 32.242 35.7613L32.2416 35.7617L32.2402 35.7631L32.2348 35.7684C32.23 35.773 32.2231 35.7799 32.2139 35.7889C32.1956 35.807 32.1687 35.834 32.1337 35.8696C32.0637 35.9407 31.9613 36.0465 31.8312 36.1858C31.5711 36.4643 31.2002 36.8768 30.7553 37.4139C29.8656 38.488 28.6799 40.061 27.4943 42.0584Z" fill="#420C0C"/>
<path d="M25.2529 43.7411C24.3824 43.7411 23.6768 43.077 23.6768 42.2577C23.6768 41.4383 24.3824 40.7742 25.2529 40.7742C26.1234 40.7742 26.8291 41.4383 26.8291 42.2577C26.8291 43.077 26.1234 43.7411 25.2529 43.7411Z" fill="#506656"/>
<path d="M32.856 33.7275C33.2617 33.7275 34.1106 33.0303 34.4323 33.3047C34.7099 33.5388 34.4323 34.7735 34.4323 35.2106C34.4323 36.0299 33.7266 36.694 32.8561 36.694C31.9856 36.694 31.2799 36.0303 31.2799 35.2109C31.2799 34.3916 31.9855 33.7275 32.856 33.7275Z" fill="#506656"/>
<path d="M31.5576 41.1449C30.6871 41.1449 29.9815 40.4808 29.9815 39.6615C29.9815 38.8422 30.6871 38.178 31.5576 38.178C32.4281 38.178 33.1338 38.8422 33.1338 39.6615C33.1338 40.4808 32.4281 41.1449 31.5576 41.1449Z" fill="#506656"/>
<path d="M28.4053 39.2907C27.5348 39.2907 26.8291 38.6265 26.8291 37.8072C26.8291 36.9879 27.5348 36.3237 28.4053 36.3237C29.2758 36.3237 29.9814 36.9879 29.9814 37.8072C29.9814 38.6265 29.2758 39.2907 28.4053 39.2907Z" fill="#506656"/>
<path d="M28.4053 45.5954C27.5348 45.5954 26.8291 44.9312 26.8291 44.1119C26.8291 43.2926 27.5348 42.6284 28.4053 42.6284C29.2758 42.6284 29.9814 43.2926 29.9814 44.1119C29.9814 44.9312 29.2758 45.5954 28.4053 45.5954Z" fill="#506656"/>
<path d="M26.3652 50.4167C25.4947 50.4167 24.7891 49.7525 24.7891 48.9332C24.7891 48.1139 25.4947 47.4497 26.3652 47.4497C27.2357 47.4497 27.9414 48.1139 27.9414 48.9332C27.9414 49.7525 27.2357 50.4167 26.3652 50.4167Z" fill="#506656"/>
<path d="M23.2129 48.5624C22.3424 48.5624 21.6367 47.8983 21.6367 47.0789C21.6367 46.2596 22.3424 45.5955 23.2129 45.5955C24.0834 45.5955 24.7891 46.2596 24.7891 47.0789C24.7891 47.8983 24.0834 48.5624 23.2129 48.5624Z" fill="#506656"/>
<path d="M24.5391 52.254C25.3408 51.9136 26.2505 52.2494 26.5708 53.004C26.8912 53.7586 26.5009 54.6462 25.6992 54.9865C24.8975 55.3269 23.9879 54.9911 23.6675 54.2365C23.3471 53.4819 23.7374 52.5943 24.5391 52.254Z" fill="#506656"/>
<path d="M20.9126 51.7789C21.7144 51.4385 22.624 51.7743 22.9443 52.5289C23.2647 53.2835 22.8745 54.1711 22.0728 54.5114C21.271 54.8518 20.3614 54.516 20.041 53.7614C19.7207 53.0068 20.1109 52.1192 20.9126 51.7789Z" fill="#506656"/>
<path d="M23.9052 57.216C24.6181 56.7163 25.5773 56.8552 26.0476 57.5262C26.5179 58.1972 26.3212 59.1462 25.6083 59.6459C24.8953 60.1455 23.9361 60.0066 23.4658 59.3356C22.9955 58.6646 23.1922 57.7156 23.9052 57.216Z" fill="#506656"/>
<path d="M20.2592 57.505C20.9721 57.0054 21.9313 57.1443 22.4016 57.8153C22.8719 58.4863 22.6752 59.4353 21.9623 59.9349C21.2493 60.4346 20.2901 60.2956 19.8198 59.6246C19.3495 58.9537 19.5462 58.0047 20.2592 57.505Z" fill="#506656"/>
<path d="M24.575 63.8422C25.261 63.306 26.2262 63.3947 26.7309 64.0403C27.2356 64.6859 27.0886 65.644 26.4027 66.1802C25.7167 66.7164 24.7515 66.6278 24.2468 65.9821C23.7421 65.3365 23.8891 64.3785 24.575 63.8422Z" fill="#506656"/>
<path d="M20.949 64.322C21.635 63.7858 22.6002 63.8744 23.1049 64.52C23.6096 65.1657 23.4626 66.1237 22.7767 66.6599C22.0907 67.1962 21.1255 67.1075 20.6208 66.4619C20.1161 65.8163 20.2631 64.8582 20.949 64.322Z" fill="#506656"/>
<path d="M26.0584 70.1472C26.7444 69.611 27.7096 69.6996 28.2143 70.3452C28.719 70.9909 28.572 71.9489 27.8861 72.4851C27.2001 73.0214 26.2349 72.9327 25.7302 72.2871C25.2255 71.6415 25.3725 70.6834 26.0584 70.1472Z" fill="#506656"/>
<path d="M22.4324 70.6267C23.1184 70.0904 24.0836 70.1791 24.5883 70.8247C25.093 71.4703 24.946 72.4284 24.2601 72.9646C23.5741 73.5009 22.6089 73.4122 22.1042 72.7666C21.5995 72.121 21.7465 71.1629 22.4324 70.6267Z" fill="#506656"/>
<path fill-rule="evenodd" clip-rule="evenodd" d="M133.339 36.2171C135.71 40.2112 138.084 45.908 138.084 52.7088C138.084 59.5035 135.713 67.3874 133.349 73.5632C132.167 76.6531 130.984 79.3193 130.097 81.2132C129.654 82.1601 129.284 82.9141 129.025 83.4315C128.896 83.6902 128.794 83.8898 128.724 84.0248C128.69 84.0923 128.663 84.1437 128.645 84.1782C128.636 84.1955 128.629 84.2085 128.625 84.2173L128.618 84.2297L128.618 84.2304C128.618 84.2305 128.618 84.2306 128.495 84.1657C128.371 84.1009 128.372 84.1008 128.372 84.1007L128.378 84.0881C128.383 84.0796 128.389 84.0667 128.398 84.0497C128.416 84.0155 128.442 83.9646 128.477 83.8976C128.546 83.7634 128.647 83.5648 128.776 83.307C129.034 82.7916 129.403 82.0398 129.845 81.0952C130.73 79.2059 131.91 76.546 133.09 73.4638C135.451 67.2953 137.805 59.4507 137.805 52.7088C137.805 45.9731 135.454 40.3254 133.1 36.3591C131.923 34.3763 130.746 32.8151 129.864 31.7501C129.423 31.2176 129.056 30.8093 128.799 30.5344C128.671 30.397 128.57 30.2929 128.502 30.2234C128.467 30.1886 128.441 30.1625 128.424 30.1452C128.415 30.1365 128.408 30.13 128.404 30.1258L128.399 30.1211L128.398 30.1199L128.398 30.1197C128.398 30.1197 128.398 30.1192 128.495 30.0197C128.591 29.9198 128.591 29.9199 128.591 29.92L128.592 29.9204L128.593 29.9218L128.599 29.9271C128.603 29.9317 128.61 29.9386 128.62 29.9476C128.638 29.9658 128.665 29.9927 128.7 30.0283C128.77 30.0994 128.872 30.2052 129.002 30.3445C129.262 30.6231 129.633 31.0355 130.078 31.5726C130.968 32.6467 132.154 34.2197 133.339 36.2171Z" fill="#420C0C"/>
<path d="M135.581 37.8998C136.452 37.8998 137.157 37.2357 137.157 36.4163C137.157 35.597 136.452 34.9329 135.581 34.9329C134.711 34.9329 134.005 35.597 134.005 36.4163C134.005 37.2357 134.711 37.8998 135.581 37.8998Z" fill="#506656"/>
<path d="M127.978 27.8861C127.572 27.8861 126.723 27.189 126.402 27.4634C126.124 27.6975 126.402 28.9322 126.402 29.3692C126.402 30.1886 127.107 30.8527 127.978 30.8527C128.848 30.8527 129.554 30.189 129.554 29.3696C129.554 28.5503 128.848 27.8861 127.978 27.8861Z" fill="#506656"/>
<path d="M129.276 35.3039C130.147 35.3039 130.853 34.6397 130.853 33.8204C130.853 33.0011 130.147 32.3369 129.276 32.3369C128.406 32.3369 127.7 33.0011 127.7 33.8204C127.7 34.6397 128.406 35.3039 129.276 35.3039Z" fill="#506656"/>
<path d="M132.429 33.4494C133.299 33.4494 134.005 32.7852 134.005 31.9659C134.005 31.1466 133.299 30.4824 132.429 30.4824C131.558 30.4824 130.853 31.1466 130.853 31.9659C130.853 32.7852 131.558 33.4494 132.429 33.4494Z" fill="#506656"/>
<path d="M132.429 39.7543C133.299 39.7543 134.005 39.0901 134.005 38.2708C134.005 37.4515 133.299 36.7874 132.429 36.7874C131.558 36.7874 130.853 37.4515 130.853 38.2708C130.853 39.0901 131.558 39.7543 132.429 39.7543Z" fill="#506656"/>
<path d="M134.468 44.5756C135.339 44.5756 136.044 43.9114 136.044 43.0921C136.044 42.2728 135.339 41.6086 134.468 41.6086C133.598 41.6086 132.892 42.2728 132.892 43.0921C132.892 43.9114 133.598 44.5756 134.468 44.5756Z" fill="#506656"/>
<path d="M137.621 42.7214C138.492 42.7214 139.197 42.0572 139.197 41.2379C139.197 40.4186 138.492 39.7544 137.621 39.7544C136.751 39.7544 136.045 40.4186 136.045 41.2379C136.045 42.0572 136.751 42.7214 137.621 42.7214Z" fill="#506656"/>
<path d="M136.294 46.4126C135.493 46.0723 134.583 46.4081 134.263 47.1627C133.942 47.9172 134.333 48.8049 135.134 49.1452C135.936 49.4856 136.846 49.1498 137.166 48.3952C137.486 47.6406 137.096 46.753 136.294 46.4126Z" fill="#506656"/>
<path d="M139.921 45.9375C139.12 45.5972 138.21 45.933 137.89 46.6876C137.569 47.4421 137.96 48.3298 138.761 48.6701C139.563 49.0105 140.473 48.6747 140.793 47.9201C141.113 47.1655 140.723 46.2779 139.921 45.9375Z" fill="#506656"/>
<path d="M136.929 51.3747C136.216 50.8751 135.257 51.014 134.786 51.685C134.316 52.356 134.513 53.305 135.226 53.8047C135.939 54.3044 136.898 54.1655 137.368 53.4945C137.838 52.8235 137.642 51.8744 136.929 51.3747Z" fill="#506656"/>
<path d="M140.574 51.6638C139.861 51.1641 138.902 51.303 138.432 51.974C137.962 52.6451 138.158 53.5941 138.871 54.0938C139.584 54.5935 140.543 54.4546 141.014 53.7835C141.484 53.1125 141.287 52.1635 140.574 51.6638Z" fill="#506656"/>
<path d="M136.259 58.0012C135.573 57.4649 134.608 57.5536 134.103 58.1992C133.598 58.8449 133.745 59.8029 134.431 60.3391C135.117 60.8754 136.082 60.7867 136.587 60.1411C137.092 59.4955 136.945 58.5374 136.259 58.0012Z" fill="#506656"/>
<path d="M139.884 58.4807C139.199 57.9445 138.233 58.0331 137.729 58.6787C137.224 59.3244 137.371 60.2824 138.057 60.8186C138.743 61.3549 139.708 61.2662 140.213 60.6206C140.717 59.975 140.57 59.0169 139.884 58.4807Z" fill="#506656"/>
<path d="M134.775 64.3059C134.089 63.7696 133.124 63.8583 132.619 64.5039C132.115 65.1495 132.261 66.1076 132.947 66.6438C133.633 67.1801 134.599 67.0914 135.103 66.4458C135.608 65.8002 135.461 64.8421 134.775 64.3059Z" fill="#506656"/>
<path d="M138.401 64.7854C137.715 64.2491 136.75 64.3378 136.245 64.9834C135.741 65.629 135.887 66.5871 136.573 67.1233C137.259 67.6595 138.225 67.5709 138.729 66.9253C139.234 66.2796 139.087 65.3216 138.401 64.7854Z" fill="#506656"/>
<path fill-rule="evenodd" clip-rule="evenodd" d="M36.5881 38.8666C34.2173 42.8607 31.8436 48.5575 31.8436 55.3583C31.8436 62.153 34.2139 70.0369 36.5778 76.2127C37.7605 79.3026 38.9432 81.9688 39.8302 83.8627C40.2737 84.8096 40.6434 85.5636 40.9023 86.081C41.0317 86.3397 41.1335 86.5393 41.2029 86.6743C41.2376 86.7418 41.2643 86.7932 41.2822 86.8277C41.2912 86.845 41.2981 86.858 41.3027 86.8668L41.3092 86.8792L41.3095 86.8799C41.3096 86.88 41.3097 86.8801 41.4327 86.8152C41.5557 86.7504 41.5557 86.7503 41.5557 86.7502L41.5491 86.7376C41.5446 86.7291 41.5378 86.7162 41.529 86.6992C41.5112 86.665 41.4848 86.6141 41.4503 86.5471C41.3813 86.4129 41.28 86.2143 41.1511 85.9566C40.8931 85.4411 40.5245 84.6893 40.0821 83.7447C39.1972 81.8554 38.0174 79.1955 36.8376 76.1133C34.4765 69.9448 32.1218 62.1002 32.1218 55.3583C32.1218 48.6226 34.473 42.9749 36.8273 39.0086C38.0042 37.0258 39.1811 35.4646 40.0633 34.3996C40.5043 33.8671 40.8716 33.4588 41.1283 33.1839C41.2567 33.0465 41.3573 32.9424 41.4257 32.8729C41.4599 32.8381 41.4861 32.812 41.5035 32.7947C41.5123 32.786 41.5189 32.7795 41.5232 32.7753L41.5281 32.7706L41.5292 32.7694L41.5294 32.7692C41.5295 32.7692 41.529 32.7687 41.4327 32.6693C41.3359 32.5693 41.3359 32.5694 41.3358 32.5695L41.3354 32.5699L41.3339 32.5713L41.3285 32.5766C41.3238 32.5812 41.3168 32.5881 41.3077 32.5972C41.2894 32.6153 41.2625 32.6422 41.2274 32.6778C41.1574 32.749 41.0551 32.8548 40.925 32.994C40.6649 33.2726 40.2939 33.685 39.849 34.2221C38.9593 35.2962 37.7737 36.8692 36.5881 38.8666Z" fill="#420C0C"/>
<path d="M34.3457 40.5492C33.4752 40.5492 32.7695 39.8851 32.7695 39.0658C32.7695 38.2465 33.4752 37.5823 34.3457 37.5823C35.2162 37.5823 35.9219 38.2465 35.9219 39.0658C35.9219 39.8851 35.2162 40.5492 34.3457 40.5492Z" fill="#506656"/>
<path d="M41.9488 30.5358C42.3545 30.5358 43.2034 29.8387 43.5251 30.113C43.8026 30.3472 43.5251 31.5818 43.5251 32.0189C43.5251 32.8382 42.8194 33.5024 41.9489 33.5024C41.0784 33.5024 40.3726 32.8386 40.3726 32.0193C40.3726 31.2 41.0783 30.5358 41.9488 30.5358Z" fill="#506656"/>
<path d="M40.6509 37.9533C39.7804 37.9533 39.0747 37.2891 39.0747 36.4698C39.0747 35.6505 39.7804 34.9863 40.6509 34.9863C41.5214 34.9863 42.2271 35.6505 42.2271 36.4698C42.2271 37.2891 41.5214 37.9533 40.6509 37.9533Z" fill="#506656"/>
<path d="M37.4985 36.0988C36.628 36.0988 35.9224 35.4346 35.9224 34.6153C35.9224 33.796 36.628 33.1318 37.4985 33.1318C38.369 33.1318 39.0747 33.796 39.0747 34.6153C39.0747 35.4346 38.369 36.0988 37.4985 36.0988Z" fill="#506656"/>
<path d="M37.4985 42.4037C36.628 42.4037 35.9224 41.7396 35.9224 40.9203C35.9224 40.1009 36.628 39.4368 37.4985 39.4368C38.369 39.4368 39.0747 40.1009 39.0747 40.9203C39.0747 41.7396 38.369 42.4037 37.4985 42.4037Z" fill="#506656"/>
<path d="M35.459 47.225C34.5885 47.225 33.8828 46.5608 33.8828 45.7415C33.8828 44.9222 34.5885 44.2581 35.459 44.2581C36.3295 44.2581 37.0352 44.9222 37.0352 45.7415C37.0352 46.5608 36.3295 47.225 35.459 47.225Z" fill="#506656"/>
<path d="M32.3066 45.3708C31.4362 45.3708 30.7305 44.7066 30.7305 43.8873C30.7305 43.068 31.4362 42.4038 32.3066 42.4038C33.1771 42.4038 33.8828 43.068 33.8828 43.8873C33.8828 44.7066 33.1771 45.3708 32.3066 45.3708Z" fill="#506656"/>
<path d="M33.6328 49.0623C34.4346 48.7219 35.3442 49.0577 35.6646 49.8123C35.9849 50.5669 35.5947 51.4545 34.793 51.7949C33.9912 52.1352 33.0816 51.7994 32.7612 51.0448C32.4409 50.2903 32.8311 49.4027 33.6328 49.0623Z" fill="#506656"/>
<path d="M30.0064 48.587C30.8081 48.2466 31.7177 48.5824 32.0381 49.337C32.3585 50.0916 31.9682 50.9792 31.1665 51.3195C30.3648 51.6599 29.4551 51.3241 29.1348 50.5695C28.8144 49.8149 29.2047 48.9273 30.0064 48.587Z" fill="#506656"/>
<path d="M32.999 54.0241C33.7119 53.5245 34.6711 53.6634 35.1414 54.3344C35.6116 55.0054 35.4149 55.9545 34.702 56.4541C33.9891 56.9538 33.0299 56.8149 32.5596 56.1439C32.0894 55.4729 32.2861 54.5238 32.999 54.0241Z" fill="#506656"/>
<path d="M29.3525 54.3132C30.0654 53.8135 31.0246 53.9524 31.4949 54.6235C31.9651 55.2945 31.7684 56.2435 31.0555 56.7432C30.3426 57.2429 29.3834 57.104 28.9132 56.433C28.4429 55.7619 28.6396 54.8129 29.3525 54.3132Z" fill="#506656"/>
<path d="M33.6688 60.6506C34.3547 60.1144 35.3199 60.2031 35.8246 60.8487C36.3293 61.4943 36.1824 62.4523 35.4964 62.9886C34.8105 63.5248 33.8453 63.4361 33.3406 62.7905C32.8359 62.1449 32.9828 61.1868 33.6688 60.6506Z" fill="#506656"/>
<path d="M30.0428 61.1301C30.7287 60.5939 31.6939 60.6825 32.1986 61.3282C32.7033 61.9738 32.5564 62.9318 31.8704 63.4681C31.1845 64.0043 30.2193 63.9156 29.7146 63.27C29.2099 62.6244 29.3568 61.6663 30.0428 61.1301Z" fill="#506656"/>
<path d="M35.1522 66.9553C35.8381 66.4191 36.8033 66.5077 37.308 67.1534C37.8127 67.799 37.6658 68.757 36.9798 69.2932C36.2939 69.8295 35.3287 69.7408 34.824 69.0952C34.3193 68.4496 34.4662 67.4915 35.1522 66.9553Z" fill="#506656"/>
<path d="M31.5262 67.435C32.2121 66.8988 33.1773 66.9875 33.682 67.6331C34.1867 68.2787 34.0398 69.2368 33.3538 69.773C32.6679 70.3092 31.7027 70.2205 31.198 69.5749C30.6933 68.9293 30.8402 67.9712 31.5262 67.435Z" fill="#506656"/>
<path fill-rule="evenodd" clip-rule="evenodd" d="M97.4723 27.9502C97.4785 28.0918 97.5098 28.3214 97.5689 28.6322L97.2956 28.6841C97.2359 28.3702 97.2015 28.1247 97.1944 27.9624C97.191 27.8857 97.1926 27.81 97.2098 27.7534C97.2173 27.7288 97.2377 27.6727 97.2957 27.6411C97.3681 27.6018 97.4356 27.6304 97.4681 27.6519L97.3145 27.8838C97.3244 27.8904 97.3725 27.9161 97.4287 27.8855C97.4511 27.8733 97.4634 27.8574 97.4689 27.8487C97.4718 27.8441 97.4735 27.8404 97.4745 27.8382C97.4755 27.8359 97.4759 27.8345 97.4759 27.8343C97.476 27.8341 97.4753 27.8365 97.4744 27.8425C97.4735 27.8484 97.4727 27.8563 97.4721 27.8667C97.4708 27.8876 97.4707 27.9152 97.4723 27.9502ZM97.997 30.431C98.1418 30.9644 98.3169 31.5638 98.5228 32.2165L98.2575 32.3002C98.0505 31.6441 97.8744 31.0411 97.7285 30.5039L97.997 30.431ZM99.1114 33.979C99.3088 34.5397 99.5243 35.1254 99.7584 35.7302L99.4989 35.8306C99.2638 35.223 99.0473 34.6347 98.849 34.0714L99.1114 33.979ZM100.454 37.4509C100.69 38.01 100.94 38.58 101.205 39.1571L100.953 39.2732C100.686 38.6934 100.435 38.1207 100.198 37.559L100.454 37.4509ZM102.008 40.8338C102.282 41.3816 102.568 41.9323 102.867 42.4829L102.622 42.6157C102.322 42.0621 102.034 41.5086 101.759 40.9581L102.008 40.8338ZM103.785 44.1009C104.1 44.6315 104.427 45.1591 104.766 45.681L104.533 45.8326C104.191 45.3074 103.863 44.7765 103.546 44.2428L103.785 44.1009ZM106.517 45.4006C106.247 45.4006 105.953 45.4126 105.635 45.4363L105.614 45.1589C105.938 45.1348 106.239 45.1224 106.517 45.1224C106.812 45.1224 107.104 45.1242 107.391 45.1279L107.387 45.4061C107.101 45.4024 106.811 45.4006 106.517 45.4006ZM110.853 45.551C110.295 45.5101 109.719 45.4771 109.122 45.4525L109.134 45.1745C109.733 45.1992 110.313 45.2324 110.873 45.2736L110.853 45.551ZM103.812 45.6573C103.255 45.7451 102.658 45.8544 102.022 45.9836L101.967 45.711C102.605 45.5811 103.207 45.471 103.768 45.3825L103.812 45.6573ZM114.295 45.9359C113.746 45.8511 113.174 45.7752 112.578 45.7092L112.608 45.4327C113.209 45.4992 113.785 45.5755 114.338 45.661L114.295 45.9359ZM117.68 46.6393C117.148 46.4965 116.589 46.3637 115.999 46.242L116.055 45.9695C116.65 46.0923 117.215 46.2264 117.752 46.3707L117.68 46.6393ZM100.234 46.3759C99.6628 46.5092 99.0693 46.6548 98.455 46.8117L98.3862 46.5421C99.0021 46.3848 99.5975 46.2388 100.17 46.105L100.234 46.3759ZM120.942 47.7727C120.442 47.5525 119.907 47.3423 119.334 47.1446L119.425 46.8817C120.005 47.0818 120.547 47.2947 121.054 47.5181L120.942 47.7727ZM96.6975 47.2757C96.1255 47.4313 95.5389 47.5951 94.939 47.7663L94.8626 47.4988C95.4635 47.3273 96.0513 47.1632 96.6245 47.0073L96.6975 47.2757ZM105.814 47.2155C106.175 47.7189 106.548 48.2139 106.934 48.6976L106.716 48.871C106.327 48.3834 105.951 47.8846 105.588 47.3776L105.814 47.2155ZM93.1771 48.2793C92.5991 48.4508 92.0109 48.6281 91.4135 48.8109L91.3321 48.5449C91.9302 48.3619 92.5192 48.1843 93.098 48.0126L93.1771 48.2793ZM123.942 49.4596C123.499 49.1442 123.015 48.836 122.485 48.5394L122.621 48.2966C123.159 48.5982 123.652 48.9117 124.104 49.2328L123.942 49.4596ZM89.6765 49.3495C89.1013 49.5301 88.519 49.715 87.9304 49.904L87.8454 49.6391C88.4345 49.45 89.0174 49.2648 89.5932 49.0841L89.6765 49.3495ZM108.131 50.1163C108.545 50.5787 108.972 51.027 109.411 51.4581L109.216 51.6567C108.772 51.2211 108.342 50.7685 107.924 50.3018L108.131 50.1163ZM86.1799 50.4714C85.6078 50.6587 85.0307 50.8492 84.4495 51.0426L84.3617 50.7786C84.9433 50.5851 85.5208 50.3944 86.0934 50.2071L86.1799 50.4714ZM125.912 51.1257C125.714 50.9282 125.507 50.7307 125.287 50.534L125.473 50.3268C125.696 50.527 125.908 50.7281 126.109 50.929C126.305 51.1248 126.502 51.3371 126.695 51.5616L126.485 51.7431C126.296 51.5238 126.103 51.3166 125.912 51.1257ZM82.711 51.6255C82.1356 51.8199 81.5569 52.0167 80.9757 52.2157L80.8856 51.9525C81.4671 51.7534 82.0462 51.5564 82.622 51.362L82.711 51.6255ZM79.2465 52.8112C78.6707 53.0107 78.0931 53.212 77.5145 53.4147L77.4225 53.1522C78.0015 52.9494 78.5793 52.748 79.1554 52.5484L79.2465 52.8112ZM110.781 52.7089C111.255 53.1101 111.742 53.4907 112.242 53.8477L112.081 54.0742C111.574 53.7124 111.081 53.3271 110.601 52.9212L110.781 52.7089ZM128.202 54.604C128.048 54.1109 127.796 53.5977 127.485 53.0975L127.722 52.9509C128.04 53.4648 128.305 53.9995 128.468 54.521L128.202 54.604ZM75.7885 54.0224C75.2132 54.226 74.6375 54.4307 74.062 54.6362L73.9685 54.3743C74.5442 54.1686 75.1201 53.9639 75.6957 53.7602L75.7885 54.0224ZM113.796 54.8523C114.33 55.1626 114.878 55.4458 115.44 55.6988L115.326 55.9525C114.755 55.6954 114.199 55.4077 113.657 55.0928L113.796 54.8523ZM72.3389 55.2544C71.7631 55.4618 71.1883 55.6697 70.615 55.8779L70.52 55.6164C71.0935 55.4082 71.6686 55.2001 72.2446 54.9926L72.3389 55.2544ZM127.197 57.294C127.798 57.0248 128.129 56.6412 128.275 56.1963L128.54 56.283C128.366 56.8126 127.973 57.2514 127.311 57.5479L127.197 57.294ZM68.8955 56.5047C68.3196 56.7154 67.746 56.926 67.1754 57.1363L67.0792 56.8753C67.65 56.6649 68.2238 56.4542 68.7999 56.2435L68.8955 56.5047ZM117.164 56.363C117.456 56.4572 117.753 56.5433 118.053 56.6208C118.339 56.6948 118.618 56.7646 118.89 56.8303L118.825 57.1007C118.551 57.0346 118.271 56.9645 117.983 56.8901C117.678 56.8113 117.376 56.7237 117.078 56.6278L117.164 56.363ZM120.541 57.1968C121.142 57.3176 121.702 57.4148 122.222 57.4901L122.182 57.7654C121.656 57.6893 121.092 57.5912 120.486 57.4695L120.541 57.1968ZM65.4555 57.7722C64.8817 57.985 64.3117 58.1971 63.7462 58.4082L63.649 58.1476C64.2146 57.9364 64.7847 57.7243 65.3587 57.5114L65.4555 57.7722ZM123.907 57.6689C124.544 57.7078 125.1 57.7037 125.582 57.6629L125.606 57.9401C125.107 57.9823 124.537 57.9862 123.89 57.9466L123.907 57.6689ZM62.023 59.0534C61.4457 59.2702 60.8741 59.4855 60.3091 59.6989L60.2108 59.4387C60.776 59.2252 61.3478 59.0098 61.9252 58.793L62.023 59.0534ZM58.6043 60.3446C58.0219 60.5658 57.4477 60.7845 56.8826 61.0003L56.7834 60.7404C57.3486 60.5246 57.923 60.3058 58.5055 60.0846L58.6043 60.3446ZM55.1713 61.6554C54.5932 61.8773 54.0265 62.0954 53.4723 62.3092L53.3722 62.0497C53.9265 61.8358 54.4934 61.6177 55.0716 61.3957L55.1713 61.6554ZM51.7598 62.9715C51.1703 63.2 50.598 63.4225 50.0446 63.6381L49.9436 63.3789C50.4971 63.1632 51.0695 62.9407 51.6592 62.7121L51.7598 62.9715ZM48.3351 64.3058C47.7373 64.5399 47.1676 64.7636 46.6286 64.9757L46.5268 64.7168C47.0659 64.5046 47.6357 64.2809 48.2337 64.0468L48.3351 64.3058ZM44.9238 65.6484C44.2977 65.8961 43.7321 66.1206 43.2334 66.3191L43.1305 66.0606C43.6294 65.8621 44.1951 65.6375 44.8214 65.3897L44.9238 65.6484ZM40.7 67.333L40.5957 67.0751L40.5959 67.0751L40.5965 67.0748L40.6487 67.0537C40.6839 67.0395 40.7363 67.0184 40.8054 66.9906C40.9436 66.9349 41.1485 66.8525 41.4156 66.7455L41.5191 67.0037C41.2522 67.1107 41.0474 67.1931 40.9093 67.2486C40.8403 67.2764 40.7879 67.2976 40.7528 67.3117L40.7002 67.333L40.7 67.333Z" fill="#DD6E42"/>
<path d="M87.322 65.3406C87.322 65.3406 87.5905 65.5358 87.6366 65.3644C87.6826 65.193 87.9252 62.0829 87.9404 61.9497C87.9404 61.9497 88.0406 58.4822 87.8231 56.6824C87.6056 54.8827 87.6138 54.9754 87.2486 55.1779C86.8834 55.3804 86.4406 56.5099 86.4406 56.5099L85.4506 61.2756L87.322 65.3406Z" fill="#EFBBA2"/>
<path d="M85.0669 63.4465C85.0459 62.1251 85.1685 60.7986 85.4323 59.4917C85.6486 58.6943 85.9324 60.07 86.1178 60.6907C86.2275 61.1049 86.2465 61.543 86.1735 61.9743C86.1735 61.9743 87.4222 62.585 87.6687 63.4129C87.9152 64.2408 87.1604 65.2862 87.1604 65.2862L85.3916 64.8558C85.3916 64.8558 85.0821 64.8019 85.0669 63.4465Z" fill="#EFBBA2"/>
<path d="M110.615 112.579C123.569 109.318 134.836 111.044 150.962 98.6404C159.123 92.3643 166.23 89.4028 173.076 80.5787C179.921 71.7546 181.178 66.0003 179.829 62.8871C178.48 59.7739 172.048 57.2467 164.205 59.0209C156.362 60.795 146.973 70.4402 146.973 70.4402C146.973 70.4402 136.563 81.1494 126.72 89.1711C116.877 97.1928 114.756 97.0285 107.865 102.657C100.973 108.285 99.1521 111.681 99.1521 111.681C99.1521 111.681 97.6632 115.838 110.615 112.579Z" fill="#075088"/>
<path fill-rule="evenodd" clip-rule="evenodd" d="M104.521 109.458C104.448 109.434 104.408 109.355 104.432 109.282C104.456 109.212 104.51 109.148 104.567 109.095C104.627 109.038 104.707 108.976 104.802 108.91C104.994 108.778 105.262 108.621 105.597 108.439C106.268 108.075 107.221 107.609 108.401 107.052C109.608 106.482 111.058 105.816 112.691 105.065C114.247 104.349 115.969 103.557 117.805 102.7C125.338 99.1837 134.823 94.5609 142.835 89.5513C150.848 84.5415 157.296 79.4311 161.741 75.5732C163.963 73.6444 165.684 72.0288 166.85 70.8958C167.432 70.3293 167.876 69.8834 168.174 69.5794C168.323 69.4274 168.435 69.3108 168.511 69.2323C168.548 69.1931 168.576 69.1633 168.595 69.1435C168.605 69.1336 168.612 69.1261 168.616 69.1211L168.622 69.1156L168.623 69.1142L168.623 69.1139C168.623 69.1138 168.623 69.1138 168.69 69.1762L168.623 69.1138C168.676 69.0577 168.764 69.0549 168.82 69.1074C168.876 69.1599 168.879 69.248 168.826 69.304L168.75 69.2328C168.826 69.304 168.826 69.3041 168.826 69.3042L168.819 69.3119C168.814 69.317 168.807 69.3247 168.797 69.3348C168.778 69.355 168.749 69.3851 168.712 69.4247C168.636 69.5039 168.522 69.6213 168.373 69.7741C168.073 70.0797 167.628 70.5271 167.044 71.0953C165.875 72.2316 164.15 73.8507 161.923 75.7833C157.47 79.6484 151.01 84.7682 142.983 89.7872C134.955 94.8064 125.457 99.4351 117.923 102.952C116.082 103.811 114.36 104.603 112.805 105.318C111.175 106.068 109.728 106.734 108.52 107.304C107.34 107.86 106.393 108.324 105.729 108.683C105.397 108.863 105.14 109.016 104.96 109.139C104.871 109.201 104.804 109.254 104.758 109.297C104.735 109.319 104.719 109.336 104.709 109.35C104.699 109.363 104.697 109.369 104.697 109.369" fill="#FFFDD9"/>
<path d="M98.3781 113.561C107.884 107.82 117.263 106.454 127.07 92.6716C132.033 85.6974 136.965 81.6157 140.263 72.9348C143.562 64.2539 143.161 59.3737 141.332 57.2262C139.503 55.0786 133.774 54.6331 127.969 57.9501C122.164 61.2672 117.043 71.2189 117.043 71.2189C117.043 71.2189 111.369 82.2645 105.493 91.0356C99.6166 99.8066 97.891 100.193 93.7788 106.342C89.6666 112.49 89.0456 115.635 89.0456 115.635C89.0456 115.635 88.8716 119.302 98.3781 113.561Z" fill="#3B72AA"/>
<path fill-rule="evenodd" clip-rule="evenodd" d="M132.469 65.6322C132.538 65.666 132.567 65.7494 132.533 65.8183L132.408 65.757L132.283 65.6958C132.317 65.6268 132.4 65.5983 132.469 65.6322ZM128.618 72.6499C126.016 76.8062 122.124 82.4482 116.96 88.3915C111.796 94.335 105.369 100.325 100.233 104.953C98.9774 106.084 97.8005 107.132 96.7377 108.079C95.6241 109.072 94.6358 109.952 93.814 110.699C93.0115 111.428 92.3714 112.026 91.9318 112.473C91.7117 112.697 91.5445 112.88 91.4329 113.021C91.3769 113.091 91.3373 113.148 91.3122 113.192C91.2909 113.23 91.2856 113.249 91.2844 113.253C91.284 113.254 91.284 113.254 91.284 113.253C91.2824 113.33 91.2188 113.391 91.142 113.389C91.0652 113.388 91.0043 113.324 91.0059 113.247C91.0073 113.18 91.038 113.112 91.0704 113.055C91.1053 112.993 91.1545 112.924 91.2148 112.848C91.3357 112.695 91.5111 112.504 91.7335 112.278C92.179 111.825 92.824 111.223 93.6269 110.493C94.4483 109.747 95.4388 108.864 96.5541 107.87C97.6176 106.923 98.7945 105.874 100.046 104.746C105.181 100.119 111.598 94.1389 116.75 88.209C121.902 82.2789 125.786 76.6492 128.382 72.5023C129.68 70.4289 130.655 68.7264 131.307 67.5427C131.632 66.9508 131.876 66.4886 132.039 66.1747C132.121 66.0177 132.182 65.8977 132.222 65.8171C132.243 65.7768 132.258 65.7464 132.268 65.7261C132.273 65.7159 132.277 65.7083 132.279 65.7032L132.283 65.6962L132.283 65.6958C132.283 65.6957 132.283 65.6958 132.408 65.757C132.533 65.8183 132.533 65.8184 132.533 65.8185L132.529 65.8264C132.526 65.8317 132.522 65.8396 132.517 65.85C132.507 65.8707 132.491 65.9017 132.471 65.9424C132.43 66.0239 132.368 66.1448 132.286 66.3027C132.122 66.6186 131.877 67.0828 131.55 67.6768C130.897 68.8646 129.919 70.5717 128.618 72.6499Z" fill="#FFFDD9"/>
<path d="M71.4132 112.533C58.461 109.273 47.1937 111 31.0675 98.5961C22.9072 92.32 15.7999 89.3584 8.95412 80.5343C2.10834 71.7102 0.850818 65.9565 2.19976 62.843C3.5487 59.7295 9.98062 57.2019 17.824 58.9768C25.6673 60.7516 35.056 70.3961 35.056 70.3961C35.056 70.3961 45.4665 81.1053 55.3093 89.127C65.1521 97.1487 67.2727 96.985 74.1647 102.612C81.0567 108.24 82.8769 111.637 82.8769 111.637C82.8769 111.637 84.3658 115.794 71.4132 112.533Z" fill="#075088"/>
<path fill-rule="evenodd" clip-rule="evenodd" d="M17.397 73.8112C17.453 73.7586 17.541 73.7615 17.5936 73.8175L17.4921 73.9127L17.3906 74.0078C17.3381 73.9517 17.3409 73.8637 17.397 73.8112ZM17.4921 73.9127C17.3906 74.0078 17.3906 74.0078 17.3907 74.0079L17.3925 74.0098L17.398 74.0156C17.4028 74.0208 17.4101 74.0284 17.4196 74.0385C17.4388 74.0588 17.4674 74.0888 17.5053 74.1284C17.5812 74.2077 17.6944 74.325 17.8441 74.4778C18.1435 74.7833 18.5888 75.2307 19.1731 75.7988C20.3419 76.935 22.0669 78.554 24.2935 80.4864C28.7466 84.3513 35.2062 89.4707 43.2338 94.4899C51.2616 99.5092 60.7595 104.138 68.294 107.655C70.1332 108.513 71.8541 109.305 73.4083 110.02C75.0401 110.77 76.4883 111.437 77.6972 112.007C78.8767 112.564 79.8239 113.027 80.4874 113.387C80.8195 113.567 81.0772 113.719 81.2564 113.843C81.3461 113.905 81.413 113.958 81.4589 114.001C81.4817 114.022 81.4976 114.04 81.508 114.054C81.5188 114.068 81.5206 114.074 81.5202 114.073C81.5442 114.146 81.6228 114.185 81.6957 114.161C81.7687 114.137 81.8084 114.059 81.7844 113.986C81.7612 113.915 81.7066 113.852 81.65 113.799C81.5896 113.742 81.5099 113.68 81.4144 113.614C81.2229 113.482 80.955 113.324 80.62 113.142C79.9491 112.779 78.9959 112.312 77.8159 111.756C76.6074 111.185 75.1564 110.518 73.5225 109.766C71.9674 109.051 70.2467 108.259 68.4116 107.403C60.8786 103.887 51.3938 99.2637 43.3813 94.254C35.3686 89.2441 28.9205 84.1339 24.4759 80.2763C22.2536 78.3476 20.5324 76.7322 19.367 75.5993C18.7844 75.0329 18.3407 74.5871 18.0428 74.2831C17.8939 74.1311 17.7814 74.0145 17.7062 73.936C17.6687 73.8968 17.6404 73.8671 17.6216 73.8472C17.6122 73.8373 17.6051 73.8298 17.6005 73.8249L17.5952 73.8193L17.5937 73.8176C17.5936 73.8176 17.5936 73.8175 17.4921 73.9127Z" fill="#FFFDD9"/>
<path d="M81.6965 113.517C72.1904 107.777 62.8118 106.411 53.0041 92.6279C48.0412 85.6537 43.1102 81.5719 39.8118 72.8911C36.5135 64.2102 36.9135 59.33 38.7428 57.1824C40.572 55.0349 46.3007 54.5893 52.1056 57.9064C57.9105 61.2234 63.0315 71.1752 63.0315 71.1752C63.0315 71.1752 68.7055 82.2208 74.5817 90.9918C80.4578 99.7629 82.184 100.149 86.2962 106.298C90.4084 112.446 91.0292 115.591 91.0292 115.591C91.0292 115.591 91.2029 119.258 81.6965 113.517Z" fill="#3B72AA"/>
<path fill-rule="evenodd" clip-rule="evenodd" d="M45.093 65.3091C45.1619 65.2752 45.2453 65.3037 45.2791 65.3726L45.1543 65.4339L45.0294 65.4952C44.9955 65.4263 45.024 65.3429 45.093 65.3091ZM45.1543 65.4339C45.0294 65.4952 45.0294 65.4953 45.0295 65.4954L45.0304 65.4973L45.0334 65.5033C45.036 65.5086 45.0399 65.5165 45.0451 65.5269C45.0554 65.5476 45.0708 65.5785 45.0914 65.6193C45.1325 65.7008 45.194 65.8217 45.276 65.9796C45.4398 66.2955 45.6852 66.7597 46.0119 67.3536C46.6652 68.5415 47.6435 70.2485 48.9444 72.3268C51.5461 76.4831 55.4385 82.125 60.6021 88.0683C65.766 94.0119 72.1935 100.002 77.3295 104.63C78.5848 105.761 79.7617 106.809 80.8245 107.756C81.9381 108.748 82.9263 109.629 83.7481 110.376C84.5507 111.105 85.1907 111.703 85.6303 112.15C85.8504 112.374 86.0176 112.557 86.1293 112.698C86.1852 112.768 86.2248 112.825 86.2499 112.869C86.2712 112.907 86.2765 112.925 86.2777 112.93C86.2781 112.931 86.2781 112.931 86.2781 112.93C86.2797 113.007 86.3433 113.068 86.4201 113.066C86.4969 113.065 86.5579 113.001 86.5562 112.924C86.5548 112.856 86.5241 112.789 86.4917 112.732C86.4568 112.67 86.4076 112.601 86.3473 112.525C86.2264 112.372 86.051 112.181 85.8286 111.955C85.3831 111.502 84.7381 110.899 83.9352 110.17C83.1138 109.423 82.1233 108.541 81.008 107.547C79.9445 106.6 78.7676 105.551 77.5157 104.423C72.3809 99.7963 65.9641 93.8158 60.8121 87.8859C55.66 81.9558 51.776 76.3261 49.1802 72.1792C47.8823 70.1058 46.9066 68.4033 46.2556 67.2196C45.9301 66.6277 45.6858 66.1655 45.5229 65.8515C45.4415 65.6945 45.3804 65.5746 45.3398 65.494C45.3195 65.4537 45.3042 65.4233 45.2941 65.4029C45.2891 65.3928 45.2853 65.3851 45.2828 65.3801L45.28 65.3744L45.2791 65.3726C45.2791 65.3726 45.2791 65.3726 45.1543 65.4339Z" fill="#FFFDD9"/>
<path d="M23.5591 81.9258H72.1865L80.7018 116.146H31.2728L23.5591 81.9258Z" fill="#21276F"/>
<path d="M26.3369 83.3291H70.6017L78.3543 114.479H33.3586L26.3369 83.3291Z" fill="#BBD1F4"/>
<path d="M31.2988 117.788H89.0633C89.1043 118.244 89.0274 118.703 88.8399 119.121C88.5929 119.514 88.2522 119.839 87.8482 120.068H32.9708C32.5032 119.86 32.089 119.548 31.7595 119.157C31.4928 118.747 31.3343 118.276 31.2988 117.788Z" fill="#262573"/>
<path d="M155.8 81.9258H107.171L98.6558 116.146H148.086L155.8 81.9258Z" fill="#21276F"/>
<path d="M153.023 83.3291H108.758L101.006 114.479H146.002L153.023 83.3291Z" fill="#BBD1F4"/>
<path d="M148.06 117.788H90.2954C90.2544 118.244 90.3314 118.703 90.5189 119.121C90.7658 119.514 91.1065 119.839 91.5105 120.068H146.387C146.855 119.86 147.269 119.548 147.599 119.157C147.866 118.747 148.024 118.276 148.06 117.788Z" fill="#262573"/>
<path d="M75.5853 95.0027L89.1819 79.2663V64.6759C88.4956 64.3962 87.767 64.2338 87.0268 64.1959C86.3679 64.2137 85.7212 64.3777 85.1334 64.6759L82.6889 76.3636L72.5288 84.8429L73.0637 91.5653L75.5853 95.0027Z" fill="#E08031"/>
<path d="M62.2178 77.6221L63.8044 87.494L69.0928 89.197L71.5019 86.0826L67.7999 77.6209L62.2178 77.6221Z" fill="#EFBBA3"/>
<path d="M56.3042 87.6483C57.411 86.8076 58.5436 86.0863 59.7803 85.4519C60.8727 84.9326 62.0243 84.5482 63.2096 84.3072C63.2096 84.3072 64.9157 87.2108 65.5308 87.6679C66.1458 88.1249 66.9642 88.5272 68.2055 87.6679C69.4467 86.8085 70.3903 83.7726 70.3903 83.7726L73.4364 84.0954C73.0673 85.778 73.1832 87.2007 73.6097 88.8697C74.3356 91.4477 76.4253 94.085 76.4253 94.085V114.481H59.3138V94.085L56.3042 87.6483Z" fill="#E08031"/>
<path d="M51.8284 105.087C52.1619 101.974 52.6978 98.8865 53.4327 95.8436C54.1805 93.0116 55.0186 90.28 56.3045 87.6483C56.3045 87.6483 58.8944 90.8392 59.6956 94.2349C60.4969 97.6307 59.6956 101.216 59.6956 101.216C59.6956 101.216 58.6113 106.787 58.2637 108.282C57.9161 109.777 55.7023 114.596 55.7023 114.596H48.5664L51.8284 105.087Z" fill="#E08031"/>
<path d="M70.4258 82.4093C70.4258 82.4093 70.4258 84.2761 69.8537 85.0288C69.2816 85.7816 65.4397 84.8723 64.0727 82.8911C63.7024 82.3543 63.3501 81.3856 63.3501 81.3856L70.4258 82.4093Z" fill="#E3A181"/>
<path d="M95.8491 65.0586C95.8491 65.0586 95.4024 59.8078 95.0472 57.4983C94.6921 55.1889 94.7013 55.8206 94.43 55.8206C94.1586 55.8206 93.9054 56.379 93.9054 56.379L93.5439 59.5897C93.5439 59.5897 93.2432 59.3347 93.0849 59.3347C92.9266 59.3347 92.9109 59.5897 92.9109 59.5897C92.9425 60.1882 92.8999 60.7884 92.7841 61.3765C92.5921 62.3483 92.1194 62.6309 92.1509 63.7663C92.2124 64.5376 92.4744 65.2793 92.9109 65.9181C93.4093 66.1699 93.9525 66.3208 94.5093 66.3618C94.989 66.3437 95.4536 66.1897 95.8494 65.9181L95.8491 65.0586Z" fill="#EEBAA1"/>
<path d="M114.531 82.6954V90.2405L109.559 91.979L107.437 89.4408L108.863 83.1822L114.531 82.6954Z" fill="#EEBAA1"/>
<path d="M105.684 86.4741L102.173 95.4975L102.52 104.348L102.173 114.466H120.547L118.944 104.882L121.521 90.6291C120.568 89.9812 119.563 89.4437 118.491 89.021C117.211 88.5527 115.898 88.1808 114.562 87.9085C114.562 87.9085 112.376 90.905 110.316 90.6319C108.256 90.3589 107.956 86.9696 107.956 86.9696L105.684 86.4741Z" fill="#E07E7D"/>
<path d="M117.727 100.635C117.727 100.635 117.364 96.5497 118.492 94.4109C119.297 92.9836 120.309 91.7305 121.522 90.6292C121.522 90.6292 129.169 106.858 129.561 107.611C129.952 108.364 127.496 114.504 127.496 114.504H121.538L123.371 109.309L117.727 100.635Z" fill="#E07E7D"/>
<path d="M102.203 96.7847C103.247 94.9588 104.187 93.0752 105.018 91.1431C105.639 89.6372 105.383 88.0751 105.683 86.474L97.7708 77.3799L96.0138 65.845C96.0138 65.845 94.7762 65.3044 93.9452 65.3389C93.2341 65.3683 92.1943 65.845 92.1943 65.845V81.2005L102.203 96.7847Z" fill="#E07E7D"/>
<path d="M108.213 85.3901C108.213 85.3901 107.942 86.9859 108.424 87.1967C108.906 87.4074 111.95 86.7228 113.031 86.1428C114.575 85.3137 114.414 83.9821 114.386 83.8545L108.213 85.3901Z" fill="#E3A181"/>
<path d="M112.089 71.6054C112.7 71.5966 113.302 71.7484 113.835 72.0454C114.368 72.3424 114.814 72.7743 115.128 73.2978C116.047 74.8593 116.098 77.5049 116.098 79.6273C116.098 83.1242 113.679 85.9588 110.693 85.9588C109.344 85.9588 107.676 86.4745 106.666 85.4524C105.581 84.3571 105.289 81.5437 105.289 79.6273C105.289 76.1307 109.104 71.6054 112.089 71.6054Z" fill="#EEBAA1"/>
<path d="M104.59 76.6498C104.246 75.5422 106.026 72.6476 107.326 71.2916C108.626 69.9356 108.992 70.5548 110.49 70.3094C111.988 70.064 112.287 69.8906 113.319 70.3094C114.351 70.7282 114.618 71.9901 114.618 71.9901C114.618 71.9901 115.42 71.4934 116.146 71.9901C116.871 72.4868 117.177 72.8116 117.521 73.9763C117.865 75.1411 117.521 75.0266 117.521 76.6498C117.521 78.273 118.036 78.6552 117.521 80.4694C117.005 82.2836 115.594 84.0863 114.868 84.3728C114.143 84.6592 114.833 83.5461 114.617 81.6152C114.401 79.6843 113.643 79.9158 113.318 78.2543C112.994 76.5928 112.399 77.2984 111.51 77.2113C110.62 77.1242 109.941 77.1242 108.623 76.9321C107.306 76.74 104.935 77.7573 104.59 76.6498Z" fill="#1A2F34"/>
<path d="M107.516 80.0498L106.096 82.5028H107.516V80.0498Z" fill="#E3A181"/>
<path d="M109.357 114.416L110.32 89.6957L110.019 89.0634L111.254 89.2441L112.007 114.416H109.357Z" fill="#BBD1F4"/>
<path fill-rule="evenodd" clip-rule="evenodd" d="M109.94 89.005L111.299 89.2039L112.054 114.462H109.309L110.274 89.7054L109.94 89.005ZM110.098 89.1219L110.367 89.6862L109.405 114.369H111.959L111.209 89.2844L110.098 89.1219Z" fill="#E07E7D"/>
<path d="M111.585 91.5927L110.742 89.1375L114.426 86.8956L115.379 87.9863L111.585 91.5927Z" fill="white"/>
<path d="M110.742 89.1385L108.068 86.8967L106.948 86.7149L110.019 91.5324L110.742 89.1385Z" fill="white"/>
<path d="M116.312 114.385L119.263 103.094L118.962 104.811L120.558 114.506L116.312 114.385Z" fill="#D25E5D"/>
<path d="M67.3244 110.895V88.4166L67.2646 87.9193H68.5184L70.7573 111.293L68.9961 114.476L67.3244 110.895Z" fill="#3B72AA"/>
<path d="M67.7462 87.8191L63.2334 83.3427L62.2061 84.4525L66.5354 91.5926L67.7462 87.8191Z" fill="white"/>
<path d="M67.7461 87.8455L70.4685 83.7642L71.6603 83.8546L69.7295 90.87L67.7461 87.8455Z" fill="white"/>
<path opacity="0.98" d="M67.1833 67.7415C70.3424 67.7415 72.9034 73.7128 72.9034 77.3841C72.9034 81.0555 72.4288 83.8801 69.2703 83.8801C66.1118 83.8801 61.4633 81.0558 61.4633 77.3841C61.4633 75.4125 61.1562 71.2009 62.3723 69.1081C63.3392 67.4447 65.7207 67.7415 67.1833 67.7415Z" fill="#EFBBA3"/>
<path d="M63.7009 73.5723C65.6298 72.8277 68.6405 73.7898 70.0197 73.0053C71.3989 72.2208 71.9795 72.1083 72.104 70.3405C72.2285 68.5726 72.0442 66.8112 70.5173 65.9334C68.9904 65.0556 66.0503 67.0502 66.0503 67.0502C66.0503 67.0502 61.9959 67.4028 61.1575 69.0324C60.3191 70.6621 59.5279 70.1048 59.0577 72.1616C58.5875 74.2184 59.2927 74.277 59.3513 75.984C59.41 77.6909 59.1367 77.6468 59.9377 79.2128C60.7387 80.7788 62.5621 82.4994 63.1537 81.6922C63.7453 80.8851 62.6187 76.5831 62.6187 76.5831C62.6187 76.5831 61.7719 74.3172 63.7009 73.5723Z" fill="#1A2F34"/>
<path d="M70.7578 76.4779L72.1428 79.3684H70.7578V76.4779Z" fill="#E3A181"/>
<path d="M72.5034 114.415L76.3875 101.649V114.415H72.5034Z" fill="#CD6D1E"/>
<path fill-rule="evenodd" clip-rule="evenodd" d="M104.796 90.7663C104.796 90.7663 104.796 90.7662 104.84 90.7797C104.885 90.7931 104.885 90.7932 104.885 90.7932L104.883 90.7986L104.878 90.8144C104.874 90.8283 104.868 90.8489 104.86 90.8754C104.843 90.9285 104.819 91.0055 104.789 91.1015C104.728 91.2934 104.641 91.5609 104.538 91.8637C104.332 92.4687 104.06 93.2158 103.799 93.78C103.538 94.3414 103.146 95.0281 102.819 95.5736C102.656 95.8465 102.508 96.0845 102.402 96.2542C102.349 96.3391 102.306 96.4069 102.276 96.4535C102.261 96.4768 102.25 96.4948 102.242 96.507L102.233 96.5209L102.23 96.5255C102.23 96.5256 102.23 96.5256 102.191 96.5005C102.152 96.4753 102.152 96.4753 102.152 96.4753L102.155 96.4707L102.164 96.4569C102.171 96.4448 102.183 96.4269 102.198 96.4037C102.227 96.3572 102.27 96.2896 102.323 96.205C102.429 96.0356 102.576 95.7982 102.739 95.5259C103.066 94.981 103.456 94.2977 103.714 93.741C103.974 93.1815 104.244 92.4382 104.45 91.8338C104.553 91.5318 104.639 91.2648 104.7 91.0734C104.731 90.9777 104.755 90.9008 104.771 90.848C104.779 90.8215 104.785 90.8011 104.79 90.7873L104.794 90.7715L104.796 90.7663Z" fill="white"/>
<path fill-rule="evenodd" clip-rule="evenodd" d="M120.885 91.2896C120.886 91.2896 120.886 91.2896 120.919 91.3216C120.952 91.3537 120.952 91.3537 120.952 91.3537L120.952 91.3545L120.949 91.357C120.947 91.3593 120.944 91.3627 120.94 91.3671C120.931 91.376 120.919 91.3892 120.903 91.4063C120.871 91.4406 120.825 91.4907 120.768 91.5538C120.655 91.6801 120.499 91.8582 120.331 92.0656C119.993 92.4815 119.605 93.012 119.396 93.4784C119.265 93.77 119.167 94.2667 119.094 94.8535C119.021 95.4385 118.974 96.1074 118.943 96.7398C118.912 97.372 118.899 97.9671 118.893 98.4041C118.889 98.6226 118.888 98.8016 118.888 98.9259C118.888 98.988 118.888 99.0365 118.888 99.0695C118.888 99.0859 118.888 99.0985 118.888 99.107L118.888 99.1197C118.888 99.1197 118.888 99.1197 118.841 99.12C118.795 99.1202 118.795 99.1202 118.795 99.1201L118.795 99.1073C118.795 99.0987 118.795 99.0861 118.795 99.0696C118.795 99.0365 118.795 98.9879 118.795 98.9256C118.796 98.801 118.797 98.6217 118.8 98.4028C118.806 97.9651 118.82 97.3689 118.85 96.7353C118.881 96.1019 118.928 95.4303 119.002 94.842C119.075 94.2554 119.174 93.746 119.311 93.4404C119.525 92.9624 119.92 92.4241 120.259 92.0071C120.429 91.7982 120.585 91.619 120.699 91.4919C120.756 91.4283 120.803 91.3778 120.835 91.3432C120.851 91.3259 120.864 91.3125 120.872 91.3034C120.877 91.2989 120.88 91.2955 120.882 91.2931L120.885 91.2905L120.885 91.2896Z" fill="white"/>
<path fill-rule="evenodd" clip-rule="evenodd" d="M97.6893 77.2244C97.9428 77.4274 98.1752 77.6705 98.3122 77.8329L98.2414 77.8927C98.1074 77.7339 97.8791 77.4953 97.6313 77.2968C97.5074 77.1976 97.3796 77.1092 97.2571 77.0459C97.1339 76.9822 97.0197 76.9457 96.9219 76.9457V76.8529C97.0409 76.8529 97.1705 76.8967 97.2997 76.9635C97.4295 77.0306 97.5625 77.1229 97.6893 77.2244Z" fill="white"/>
<path fill-rule="evenodd" clip-rule="evenodd" d="M92.2929 81.2631C92.1872 80.9248 92.2135 80.5725 92.2704 80.3503L92.3602 80.3733C92.3067 80.5827 92.2819 80.917 92.3814 81.2355C92.4802 81.5518 92.7014 81.8529 93.1433 82.0041L93.1133 82.0918C92.6398 81.9298 92.3993 81.6037 92.2929 81.2631ZM90.1938 85.1191V85.4202H90.1011V85.1191H90.1938Z" fill="white"/>
<path fill-rule="evenodd" clip-rule="evenodd" d="M129.126 108.739C129.553 107.575 129.144 106.757 128.895 106.499L128.962 106.434C129.235 106.718 129.652 107.574 129.213 108.771L129.126 108.739Z" fill="white"/>
<path fill-rule="evenodd" clip-rule="evenodd" d="M123.726 109.703C123.477 109.471 123.246 109.185 123.109 108.993L123.185 108.939C123.319 109.128 123.546 109.408 123.789 109.635C123.911 109.748 124.035 109.847 124.153 109.914C124.272 109.982 124.379 110.014 124.467 110.004L124.477 110.096C124.361 110.11 124.233 110.066 124.107 109.995C123.981 109.923 123.851 109.819 123.726 109.703Z" fill="white"/>
<path fill-rule="evenodd" clip-rule="evenodd" d="M74.2746 91.1779C73.8287 89.9547 73.5766 88.6096 73.481 87.7437L73.5731 87.7335C73.6682 88.5939 73.9189 89.9315 74.3617 91.1462C74.5831 91.7535 74.852 92.3285 75.1723 92.7974C75.4929 93.2666 75.8629 93.6263 76.2853 93.8082L76.2487 93.8934C75.804 93.7019 75.4217 93.3268 75.0958 92.8497C74.7696 92.3722 74.4976 91.7895 74.2746 91.1779Z" fill="white"/>
<path fill-rule="evenodd" clip-rule="evenodd" d="M58.9369 92.3344C58.4777 91.1618 57.8795 89.9729 57.4688 89.2366L57.5497 89.1914C57.962 89.9304 58.5621 91.1232 59.0233 92.3006C59.2538 92.8893 59.45 93.4752 59.5704 93.9992C59.6906 94.5219 59.7367 94.9884 59.6622 95.3359L59.5716 95.3165C59.6416 94.9895 59.5994 94.5392 59.4801 94.02C59.361 93.502 59.1665 92.9208 58.9369 92.3344Z" fill="white"/>
<path fill-rule="evenodd" clip-rule="evenodd" d="M82.5606 76.9508C82.6381 76.2269 82.8056 75.3594 82.9363 74.7814L83.0267 74.8018C82.8965 75.378 82.7298 76.2417 82.6528 76.9606C82.6142 77.3206 82.5984 77.6415 82.6201 77.8711C82.6309 77.9865 82.6509 78.0745 82.6793 78.1323C82.7073 78.1892 82.7382 78.2078 82.7708 78.2078V78.3005C82.6889 78.3005 82.6324 78.247 82.5961 78.1732C82.5602 78.1002 82.539 77.9989 82.5278 77.8798C82.5052 77.6406 82.5218 77.3122 82.5606 76.9508Z" fill="white"/>
<path fill-rule="evenodd" clip-rule="evenodd" d="M51.6262 106.17C51.7629 104.876 51.9934 103.378 52.1641 102.394L52.2555 102.41C52.085 103.393 51.8548 104.888 51.7185 106.18C51.6503 106.825 51.6057 107.419 51.6036 107.872C51.6025 108.098 51.6121 108.288 51.6342 108.43C51.6453 108.501 51.6592 108.559 51.6759 108.604C51.6928 108.649 51.7109 108.676 51.7274 108.689L51.6685 108.761C51.6338 108.732 51.6084 108.688 51.5891 108.636C51.5694 108.584 51.5542 108.519 51.5426 108.444C51.5194 108.295 51.5098 108.1 51.5108 107.871C51.513 107.414 51.5579 106.817 51.6262 106.17Z" fill="white"/>
<path fill-rule="evenodd" clip-rule="evenodd" d="M57.4187 110.767C57.8085 110.037 58.0361 109.156 58.1259 108.567L58.2175 108.581C58.1267 109.177 57.8966 110.069 57.5005 110.811C57.1058 111.55 56.5367 112.156 55.7622 112.143L55.7637 112.051C56.4827 112.062 57.0276 111.499 57.4187 110.767Z" fill="white"/>
<path d="M35.77 94.2208L46.7941 87.4977L47.919 90.1972L36.1707 95.8082L35.77 94.2208Z" fill="white"/>
<path d="M143.305 95.7865L132.281 89.0634L131.156 91.7629L142.904 97.3739L143.305 95.7865Z" fill="white"/>
<path d="M37.0801 97.2348L45.1383 93.2119L45.4546 93.833L37.2908 97.8598L37.0801 97.2348Z" fill="white"/>
<path d="M141.995 98.8005L133.937 94.7775L133.621 95.3986L141.784 99.4254L141.995 98.8005Z" fill="white"/>
</svg>
