<svg width="179" height="133" viewBox="0 0 179 133" fill="none" xmlns="http://www.w3.org/2000/svg">
<path fill-rule="evenodd" clip-rule="evenodd" d="M84.4788 47.2118L84.291 47.207C84.2989 46.8943 84.3029 46.5807 84.3029 46.266C84.3029 45.9514 84.2989 45.6377 84.291 45.325L84.4788 45.3203C84.4868 45.6345 84.4908 45.9498 84.4908 46.266C84.4908 46.5823 84.4868 46.8975 84.4788 47.2118ZM84.3831 43.4367L84.1957 43.451C84.1478 42.8242 84.0841 42.2018 84.0048 41.5844L84.1912 41.5605C84.2709 42.1811 84.3349 42.8066 84.3831 43.4367ZM83.903 39.6967L83.7181 39.7302C83.6061 39.1122 83.4785 38.4998 83.3357 37.8933L83.5187 37.8502C83.6621 38.4599 83.7904 39.0755 83.903 39.6967ZM83.039 36.0263L82.8586 36.0788C82.6833 35.4763 82.4928 34.8804 82.2876 34.2916L82.4651 34.2297C82.6713 34.8217 82.8628 35.4207 83.039 36.0263ZM81.7984 32.4655L81.6244 32.5365C81.3876 31.956 81.1362 31.3831 80.8707 30.8183L81.0408 30.7384C81.3077 31.3061 81.5604 31.882 81.7984 32.4655ZM80.1943 29.053L80.0286 29.1417C79.7329 28.5892 79.4234 28.0455 79.1004 27.5109L79.2612 27.4137C79.5859 27.9511 79.8971 28.4977 80.1943 29.053ZM78.2442 25.825L78.0886 25.9304C77.7374 25.4119 77.3731 24.9031 76.9962 24.4046L77.1461 24.2913C77.5249 24.7924 77.8911 25.3038 78.2442 25.825ZM75.9699 22.8167L75.826 22.9377C75.4232 22.4587 75.0081 21.9904 74.5814 21.5335L74.7187 21.4052C75.1477 21.8645 75.5649 22.3352 75.9699 22.8167ZM73.3959 20.0607L73.2654 20.1959C72.8152 19.7615 72.3538 19.3389 71.8816 18.9287L72.0049 18.7868C72.4795 19.1992 72.9434 19.624 73.3959 20.0607ZM70.5493 17.5873L70.4336 17.7354C69.9409 17.3505 69.4379 16.9783 68.9252 16.6195L69.0329 16.4655C69.5484 16.8263 70.054 17.2004 70.5493 17.5873ZM67.4597 15.4249L67.3602 15.5843C66.8301 15.2534 66.2908 14.9362 65.7428 14.6331L65.8337 14.4687C66.3847 14.7734 66.9268 15.0923 67.4597 15.4249ZM64.1594 13.5998L64.0773 13.7688C63.5158 13.4961 62.9461 13.2378 62.3687 12.9944L62.4417 12.8212C63.0221 13.0659 63.5949 13.3256 64.1594 13.5998ZM60.6849 12.1352L60.6212 12.312C60.0344 12.1008 59.4404 11.9046 58.8399 11.724L58.894 11.5441C59.4978 11.7256 60.0949 11.9228 60.6849 12.1352ZM57.074 11.0495L57.0296 11.2321C56.4242 11.0849 55.8127 10.9532 55.1957 10.8377L55.2303 10.653C55.8506 10.7691 56.4654 10.9015 57.074 11.0495ZM53.368 10.3554L53.3433 10.5417C52.7262 10.4598 52.1042 10.394 51.4776 10.3445L51.4924 10.1572C52.1223 10.2069 52.7476 10.2731 53.368 10.3554ZM49.6091 10.0583C49.2948 10.05 48.9796 10.0459 48.6634 10.0459C48.3472 10.0459 48.0319 10.05 47.7176 10.0583L47.7226 10.2461C48.0352 10.2379 48.3488 10.2338 48.6634 10.2338C48.9779 10.2338 49.2916 10.2379 49.6042 10.2461L49.6091 10.0583ZM45.8343 10.1572L45.8491 10.3445C45.2225 10.394 44.6005 10.4598 43.9835 10.5417L43.9588 10.3554C44.5791 10.2731 45.2044 10.2069 45.8343 10.1572ZM42.0965 10.653L42.1311 10.8377C41.514 10.9532 40.9025 11.0849 40.2971 11.2321L40.2527 11.0495C40.8614 10.9015 41.4761 10.7691 42.0965 10.653ZM38.4328 11.5441L38.4869 11.724C37.8863 11.9046 37.2924 12.1008 36.7055 12.3121L36.6419 12.1352C37.2319 11.9228 37.829 11.7256 38.4328 11.5441ZM34.8851 12.8212L34.9581 12.9944C34.3807 13.2378 33.811 13.4961 33.2494 13.7688L33.1673 13.5998C33.7318 13.3256 34.3046 13.0659 34.8851 12.8212ZM31.493 14.4687C30.9421 14.7734 30.3999 15.0923 29.867 15.4249L29.9665 15.5843C30.4966 15.2534 31.0359 14.9362 31.584 14.6331L31.493 14.4687ZM28.2938 16.4655L28.4016 16.6195C27.8888 16.9783 27.3858 17.3505 26.8931 17.7354L26.7774 17.5873C27.2727 17.2004 27.7784 16.8263 28.2938 16.4655ZM25.3218 18.7868L25.4451 18.9287C24.9729 19.3389 24.5115 19.7615 24.0613 20.1959L23.9308 20.0607C24.3834 19.624 24.8472 19.1992 25.3218 18.7868ZM22.608 21.4052L22.7454 21.5335C22.3186 21.9904 21.9036 22.4587 21.5007 22.9377L21.3569 22.8167C21.7618 22.3352 22.1791 21.8645 22.608 21.4052ZM20.1807 24.2913L20.3306 24.4046C19.9537 24.9032 19.5894 25.4119 19.2381 25.9304L19.0825 25.825C19.4356 25.3038 19.8018 24.7924 20.1807 24.2913ZM18.0655 27.4137L18.2263 27.5109C17.9034 28.0455 17.5938 28.5893 17.2981 29.1417L17.1324 29.053C17.4297 28.4977 17.7408 27.9511 18.0655 27.4137ZM16.2859 30.7384L16.456 30.8183C16.1905 31.3831 15.9391 31.956 15.7023 32.5365L15.5283 32.4655C15.7664 31.882 16.0191 31.3061 16.2859 30.7384ZM14.8616 34.2297L15.0391 34.2916C14.8339 34.8805 14.6435 35.4763 14.4682 36.0788L14.2877 36.0263C14.464 35.4207 14.6554 34.8217 14.8616 34.2297ZM13.8081 37.8502L13.991 37.8933C13.8482 38.4998 13.7207 39.1122 13.6087 39.7302L13.4238 39.6967C13.5363 39.0755 13.6646 38.4599 13.8081 37.8502ZM13.1355 41.5605L13.3219 41.5844C13.2427 42.2019 13.1789 42.8242 13.131 43.451L12.9436 43.4367C12.9918 42.8067 13.0559 42.1811 13.1355 41.5605ZM12.8479 45.3203C12.8399 45.6346 12.8359 45.9498 12.8359 46.266C12.8359 46.5823 12.8399 46.8975 12.8479 47.2118L13.0358 47.207C13.0278 46.8944 13.0239 46.5807 13.0239 46.266C13.0239 45.9514 13.0278 45.6377 13.0358 45.325L12.8479 45.3203ZM12.9436 49.0954L13.131 49.081C13.1789 49.7079 13.2427 50.3302 13.3219 50.9477L13.1355 50.9716C13.0559 50.351 12.9918 49.7254 12.9436 49.0954ZM13.4238 52.8354L13.6087 52.8019C13.7207 53.4199 13.8483 54.0323 13.991 54.6388L13.8081 54.6818C13.6646 54.0722 13.5363 53.4566 13.4238 52.8354ZM14.2877 56.5058L14.4682 56.4533C14.6435 57.0557 14.8339 57.6516 15.0391 58.2405L14.8616 58.3023C14.6554 57.7104 14.464 57.1114 14.2877 56.5058ZM15.5283 60.0666L15.7023 59.9956C15.9391 60.5761 16.1905 61.1489 16.456 61.7137L16.2859 61.7937C16.0191 61.2259 15.7664 60.6501 15.5283 60.0666ZM17.1324 63.4791L17.2981 63.3904C17.5938 63.9428 17.9034 64.4866 18.2263 65.0212L18.0655 65.1184C17.7409 64.581 17.4297 64.0344 17.1324 63.4791ZM19.0825 66.7071C19.4356 67.2283 19.8018 67.7397 20.1807 68.2408L20.3306 68.1274C19.9537 67.6289 19.5894 67.1202 19.2381 66.6017L19.0825 66.7071ZM21.3569 69.7154L21.5007 69.5944C21.9036 70.0734 22.3186 70.5416 22.7454 70.9986L22.608 71.1269C22.1791 70.6675 21.7618 70.1969 21.3569 69.7154ZM23.9308 72.4714L24.0613 72.3362C24.5115 72.7706 24.9729 73.1931 25.4451 73.6034L25.3218 73.7453C24.8472 73.3328 24.3834 72.9081 23.9308 72.4714ZM26.7774 74.9448L26.8931 74.7967C27.3858 75.1816 27.8888 75.5537 28.4016 75.9126L28.2938 76.0666C27.7784 75.7058 27.2727 75.3317 26.7774 74.9448ZM29.867 77.1072L29.9666 76.9478C30.4966 77.2786 31.0359 77.5959 31.584 77.899L31.493 78.0634C30.9421 77.7587 30.3999 77.4398 29.867 77.1072ZM33.1673 78.9323L33.2494 78.7632C33.811 79.036 34.3807 79.2943 34.9581 79.5377L34.8851 79.7109C34.3046 79.4662 33.7318 79.2065 33.1673 78.9323ZM36.6419 80.3968L36.7055 80.22C37.2924 80.4313 37.8863 80.6275 38.4869 80.808L38.4328 80.988C37.829 80.8064 37.2319 80.6092 36.6419 80.3968ZM40.2527 81.4826L40.2971 81.3C40.9025 81.4472 41.514 81.5788 42.1311 81.6944L42.0965 81.8791C41.4761 81.7629 40.8614 81.6306 40.2527 81.4826ZM43.9588 82.1767L43.9835 81.9904C44.6005 82.0722 45.2225 82.1381 45.8491 82.1876L45.8343 82.3749C45.2044 82.3252 44.5791 82.259 43.9588 82.1767ZM47.7177 82.4738L47.7226 82.2859C48.0352 82.2941 48.3488 82.2983 48.6634 82.2983C48.9779 82.2983 49.2916 82.2941 49.6042 82.2859L49.6091 82.4738C49.2948 82.482 48.9796 82.4862 48.6634 82.4862C48.3472 82.4862 48.0319 82.482 47.7177 82.4738ZM51.4925 82.3749L51.4777 82.1876C52.1042 82.1381 52.7262 82.0722 53.3433 81.9904L53.368 82.1767C52.7476 82.259 52.1223 82.3252 51.4925 82.3749ZM55.2303 81.8791L55.1957 81.6944C55.8127 81.5788 56.4242 81.4472 57.0296 81.3L57.074 81.4826C56.4654 81.6306 55.8506 81.7629 55.2303 81.8791ZM58.894 80.988L58.8399 80.808C59.4404 80.6275 60.0344 80.4313 60.6212 80.22L60.6849 80.3968C60.0949 80.6092 59.4978 80.8064 58.894 80.988ZM62.4417 79.7109L62.3687 79.5377C62.9461 79.2943 63.5158 79.036 64.0773 78.7632L64.1594 78.9323C63.5949 79.2065 63.0221 79.4662 62.4417 79.7109ZM65.8337 78.0634L65.7428 77.899C66.2908 77.5959 66.8301 77.2786 67.3602 76.9478L67.4597 77.1072C66.9268 77.4398 66.3847 77.7587 65.8337 78.0634ZM69.0329 76.0666L68.9252 75.9126C69.4379 75.5537 69.9409 75.1816 70.4336 74.7967L70.5493 74.9448C70.054 75.3317 69.5484 75.7058 69.0329 76.0666ZM72.0049 73.7453L71.8816 73.6034C72.3538 73.1931 72.8152 72.7705 73.2654 72.3362L73.3959 72.4714C72.9434 72.9081 72.4795 73.3328 72.0049 73.7453ZM74.7187 71.1269L74.5814 70.9986C75.0081 70.5416 75.4232 70.0734 75.8261 69.5944L75.9699 69.7154C75.5649 70.1969 75.1477 70.6675 74.7187 71.1269ZM77.1461 68.2408L76.9962 68.1274C77.3731 67.6289 77.7374 67.1202 78.0886 66.6017L78.2442 66.7071C77.8911 67.2283 77.5249 67.7397 77.1461 68.2408ZM79.2612 65.1184L79.1004 65.0212C79.4234 64.4866 79.7329 63.9428 80.0286 63.3904L80.1943 63.479C79.8971 64.0344 79.5859 64.581 79.2612 65.1184ZM81.0408 61.7937L80.8707 61.7137C81.1362 61.1489 81.3876 60.5761 81.6244 59.9956L81.7984 60.0665C81.5604 60.6501 81.3077 61.2259 81.0408 61.7937ZM82.4651 58.3023L82.2876 58.2405C82.4928 57.6516 82.6833 57.0557 82.8586 56.4533L83.039 56.5058C82.8628 57.1114 82.6713 57.7104 82.4651 58.3023ZM83.5187 54.6818L83.3357 54.6388C83.4785 54.0323 83.6061 53.4198 83.7181 52.8019L83.903 52.8354C83.7904 53.4566 83.6622 54.0722 83.5187 54.6818ZM84.1912 50.9716L84.0048 50.9477C84.0841 50.3302 84.1478 49.7079 84.1957 49.081L84.3831 49.0954C84.3349 49.7254 84.2709 50.351 84.1912 50.9716Z" fill="#FF743C"/>
<path fill-rule="evenodd" clip-rule="evenodd" d="M160.556 70.7821L160.368 70.779C160.373 70.4717 160.375 70.1638 160.375 69.8553C160.375 69.5468 160.373 69.2388 160.368 68.9315L160.556 68.9284C160.561 69.2368 160.563 69.5457 160.563 69.8553C160.563 70.1648 160.561 70.4738 160.556 70.7821ZM160.495 67.0861L160.307 67.0954C160.276 66.4795 160.236 65.8663 160.185 65.2561L160.372 65.2405C160.423 65.8529 160.464 66.4681 160.495 67.0861ZM160.189 63.4033L160.002 63.4252C159.931 62.8149 159.849 62.2077 159.758 61.6038L159.944 61.5758C160.035 62.1817 160.117 62.791 160.189 63.4033ZM159.637 59.7524L159.452 59.7867C159.34 59.182 159.217 58.5808 159.085 57.9834L159.269 57.9428C159.401 58.5423 159.524 59.1456 159.637 59.7524ZM158.84 56.1485L158.658 56.1953C158.505 55.5993 158.342 55.0074 158.17 54.4196L158.35 54.3667C158.523 54.9565 158.687 55.5505 158.84 56.1485ZM157.801 52.6036L157.622 52.6626C157.429 52.0794 157.227 51.5006 157.015 50.9264L157.192 50.8614C157.404 51.4376 157.607 52.0184 157.801 52.6036ZM156.523 49.1396L156.349 49.2106C156.117 48.6415 155.876 48.0773 155.625 47.5182L155.797 47.4414C156.048 48.0024 156.29 48.5686 156.523 49.1396ZM155.014 45.7697L154.845 45.8523C154.575 45.3007 154.296 44.7544 154.008 44.2137L154.174 44.1254C154.463 44.668 154.743 45.2162 155.014 45.7697ZM153.279 42.5096L153.116 42.6035C152.809 42.0715 152.494 41.5453 152.17 41.0251L152.33 40.9258C152.655 41.4478 152.971 41.9758 153.279 42.5096ZM151.328 39.3754L151.172 39.48C150.83 38.97 150.479 38.4662 150.121 37.9688L150.273 37.8589C150.633 38.3581 150.985 38.8636 151.328 39.3754ZM149.168 36.3794L149.019 36.4944C148.644 36.009 148.26 35.5302 147.869 35.0583L148.014 34.9384C148.406 35.4119 148.791 35.8923 149.168 36.3794ZM146.811 33.537L146.671 33.6618C146.263 33.203 145.848 32.7512 145.425 32.3067L145.562 32.1772C145.986 32.6232 146.402 33.0766 146.811 33.537ZM144.267 30.8606L144.135 30.9946C143.698 30.5646 143.253 30.142 142.801 29.7272L142.928 29.5888C143.382 30.0051 143.828 30.4291 144.267 30.8606ZM141.547 28.3631L141.425 28.5057C140.959 28.1065 140.487 27.7152 140.008 27.332L140.125 27.1852C140.606 27.5698 141.08 27.9625 141.547 28.3631ZM138.663 26.0565L138.551 26.2071C138.059 25.8407 137.561 25.4825 137.057 25.1328L137.164 24.9784C137.67 25.3293 138.17 25.6887 138.663 26.0565ZM135.629 23.9525L135.527 24.1105C135.012 23.7786 134.49 23.4555 133.963 23.1411L134.059 22.9797C134.588 23.2951 135.112 23.6195 135.629 23.9525ZM132.457 22.0614L132.366 22.226C131.829 21.9307 131.287 21.6443 130.739 21.3672L130.824 21.1995C131.374 21.4776 131.918 21.765 132.457 22.0614ZM129.163 20.3945L129.084 20.565C128.528 20.3074 127.966 20.0591 127.4 19.8204L127.473 19.6472C128.041 19.8868 128.605 20.1359 129.163 20.3945ZM125.76 18.9595L125.693 19.1351C125.121 18.917 124.544 18.7085 123.963 18.5098L124.024 18.332C124.607 18.5314 125.186 18.7406 125.76 18.9595ZM122.266 17.765L122.211 17.9449C121.625 17.7671 121.035 17.5992 120.441 17.4414L120.489 17.2598C121.086 17.4182 121.678 17.5866 122.266 17.765ZM118.698 16.8173L118.656 17.0005C118.059 16.8641 117.459 16.7378 116.855 16.6218L116.891 16.4372C117.497 16.5537 118.099 16.6804 118.698 16.8173ZM115.07 16.1201L115.041 16.3058C114.437 16.2115 113.83 16.1274 113.22 16.0536L113.243 15.867C113.855 15.9411 114.464 16.0255 115.07 16.1201ZM111.406 15.6772L111.39 15.8644C110.78 15.812 110.167 15.7699 109.551 15.7383L109.561 15.5506C110.179 15.5823 110.794 15.6246 111.406 15.6772ZM107.719 15.4877L107.715 15.6756C107.408 15.6703 107.1 15.6677 106.792 15.6677C106.483 15.6677 106.175 15.6703 105.868 15.6756L105.865 15.4877C106.173 15.4824 106.482 15.4798 106.792 15.4798C107.101 15.4798 107.41 15.4824 107.719 15.4877ZM104.023 15.5506L104.033 15.7383C103.417 15.7699 102.804 15.812 102.194 15.8644L102.178 15.6772C102.79 15.6246 103.405 15.5823 104.023 15.5506ZM100.341 15.8671L100.363 16.0536C99.7535 16.1274 99.1466 16.2115 98.5431 16.3058L98.5141 16.1201C99.1198 16.0255 99.7287 15.9411 100.341 15.8671ZM96.6931 16.4372L96.7285 16.6218C96.1246 16.7378 95.5243 16.8641 94.9277 17.0005L94.8858 16.8173C95.4845 16.6804 96.087 16.5537 96.6931 16.4372ZM93.0945 17.2598L93.1427 17.4414C92.5485 17.5992 91.9583 17.7671 91.3723 17.9449L91.3177 17.765C91.9058 17.5866 92.4981 17.4182 93.0945 17.2598ZM89.5598 18.332L89.6206 18.5098C89.0395 18.7085 88.4628 18.917 87.8908 19.1351L87.8238 18.9595C88.3979 18.7406 88.9766 18.5314 89.5598 18.332ZM86.1104 19.6472L86.1834 19.8204C85.6173 20.0591 85.0561 20.3074 84.5001 20.565L84.4211 20.3945C84.9791 20.1359 85.5423 19.8868 86.1104 19.6472ZM82.7594 21.1995C82.2099 21.4776 81.6657 21.765 81.1271 22.0614L81.2177 22.226C81.7544 21.9307 82.2967 21.6443 82.8443 21.3672L82.7594 21.1995ZM79.5243 22.9797L79.6206 23.1411C79.0933 23.4554 78.5719 23.7786 78.0564 24.1105L77.9547 23.9525C78.472 23.6194 78.9953 23.2951 79.5243 22.9797ZM76.4196 24.9784L76.5267 25.1328C76.0224 25.4825 75.5243 25.8407 75.0326 26.2071L74.9203 26.0565C75.4137 25.6887 75.9136 25.3293 76.4196 24.9784ZM73.4588 27.1852L73.5762 27.332C73.0971 27.7152 72.6247 28.1065 72.159 28.5057L72.0367 28.3631C72.504 27.9625 72.978 27.5698 73.4588 27.1852ZM70.6555 29.5887C70.2021 30.005 69.7558 30.4291 69.3168 30.8606L69.4485 30.9946C69.8861 30.5646 70.3308 30.142 70.7826 29.7272L70.6555 29.5887ZM68.0221 32.1772L68.1583 32.3066C67.7357 32.7512 67.3206 33.2029 66.9131 33.6618L66.7726 33.537C67.1815 33.0766 67.598 32.6232 68.0221 32.1772ZM65.57 34.9383L65.7146 35.0583C65.3233 35.5302 64.9398 36.009 64.5643 36.4944L64.4157 36.3794C64.7925 35.8923 65.1773 35.4119 65.57 34.9383ZM63.3106 37.8589L63.463 37.9688C63.1045 38.4662 62.7541 38.97 62.4121 39.48L62.256 39.3754C62.5992 38.8636 62.9508 38.3581 63.3106 37.8589ZM61.254 40.9258C60.929 41.4478 60.6126 41.9758 60.3048 42.5096L60.4677 42.6035C60.7743 42.0715 61.0897 41.5453 61.4136 41.0251L61.254 40.9258ZM59.4095 44.1254L59.5754 44.2137C59.2877 44.7544 59.0087 45.3007 58.7388 45.8523L58.57 45.7697C58.8409 45.2162 59.1208 44.668 59.4095 44.1254ZM57.7868 47.4414L57.9583 47.5182C57.7078 48.0773 57.4664 48.6415 57.2344 49.2106L57.0604 49.1396C57.2932 48.5686 57.5354 48.0024 57.7868 47.4414ZM56.3921 50.8614L56.5684 50.9265C56.3567 51.5006 56.1544 52.0794 55.9616 52.6626L55.7832 52.6036C55.9766 52.0184 56.1797 51.4376 56.3921 50.8614ZM55.2333 54.3667L55.4137 54.4196C55.2413 55.0074 55.0784 55.5993 54.9254 56.1953L54.7434 56.1485C54.897 55.5505 55.0603 54.9565 55.2333 54.3667ZM54.3148 57.9429L54.4983 57.9834C54.3663 58.5809 54.244 59.182 54.1317 59.7867L53.9469 59.7524C54.0596 59.1456 54.1823 58.5424 54.3148 57.9429ZM53.6399 61.5758L53.8257 61.6039C53.7345 62.2077 53.6531 62.8149 53.5817 63.4252L53.3951 63.4034C53.4667 62.791 53.5483 62.1817 53.6399 61.5758ZM53.2114 65.2405L53.3987 65.2561C53.348 65.8664 53.3073 66.4796 53.2767 67.0954L53.089 67.0861C53.1197 66.4682 53.1605 65.8529 53.2114 65.2405ZM53.0282 68.9285C53.0231 69.2368 53.0205 69.5457 53.0205 69.8553C53.0205 70.1648 53.0231 70.4738 53.0282 70.7821L53.2161 70.779C53.211 70.4717 53.2084 70.1638 53.2084 69.8553C53.2084 69.5468 53.211 69.2389 53.2161 68.9316L53.0282 68.9285ZM53.089 72.6245L53.2767 72.6152C53.3073 73.231 53.348 73.8442 53.3987 74.4545L53.2114 74.4701C53.1605 73.8577 53.1197 73.2425 53.089 72.6245ZM53.3951 76.3072L53.5817 76.2854C53.6531 76.8957 53.7345 77.5029 53.8257 78.1067L53.6399 78.1348C53.5483 77.5289 53.4667 76.9196 53.3951 76.3072ZM53.9469 79.9582L54.1317 79.9239C54.244 80.5286 54.3663 81.1297 54.4983 81.7272L54.3149 81.7677C54.1824 81.1682 54.0596 80.565 53.9469 79.9582ZM54.7434 83.562L54.9254 83.5153C55.0785 84.1112 55.2413 84.7032 55.4137 85.291L55.2334 85.3438C55.0603 84.754 54.897 84.16 54.7434 83.562ZM55.7832 87.107L55.9616 87.048C56.1544 87.6312 56.3567 88.21 56.5684 88.7841L56.3921 88.8491C56.1797 88.273 55.9767 87.6922 55.7832 87.107ZM57.0604 90.5709L57.2344 90.5C57.4664 91.069 57.7078 91.6332 57.9583 92.1924L57.7868 92.2692C57.5354 91.7081 57.2932 91.142 57.0604 90.5709ZM58.57 93.9409L58.7388 93.8583C59.0087 94.4099 59.2877 94.9561 59.5754 95.4969L59.4095 95.5852C59.1208 95.0426 58.8409 94.4944 58.57 93.9409ZM60.3048 97.201L60.4676 97.1071C60.7743 97.6391 61.0897 98.1652 61.4135 98.6855L61.254 98.7848C60.929 98.2628 60.6126 97.7347 60.3048 97.201ZM62.256 100.335L62.4121 100.231C62.7541 100.741 63.1045 101.244 63.463 101.742L63.3106 101.852C62.9508 101.353 62.5992 100.847 62.256 100.335ZM64.4156 103.331L64.5643 103.216C64.9398 103.702 65.3233 104.18 65.7146 104.652L65.57 104.772C65.1773 104.299 64.7925 103.818 64.4156 103.331ZM66.7726 106.174L66.9131 106.049C67.3206 106.508 67.7357 106.959 68.1583 107.404L68.022 107.533C67.598 107.087 67.1815 106.634 66.7726 106.174ZM69.3168 108.85L69.4485 108.716C69.886 109.146 70.3308 109.569 70.7826 109.983L70.6555 110.122C70.2021 109.706 69.7558 109.281 69.3168 108.85ZM72.0367 111.347C72.5039 111.748 72.978 112.141 73.4588 112.525L73.5762 112.379C73.0971 111.995 72.6246 111.604 72.159 111.205L72.0367 111.347ZM74.9203 113.654L75.0326 113.503C75.5243 113.87 76.0224 114.228 76.5267 114.578L76.4196 114.732C75.9135 114.381 75.4137 114.022 74.9203 113.654ZM77.9547 115.758L78.0564 115.6C78.5719 115.932 79.0933 116.255 79.6206 116.569L79.5243 116.731C78.9953 116.415 78.472 116.091 77.9547 115.758ZM81.1271 117.649L81.2177 117.485C81.7544 117.78 82.2967 118.066 82.8443 118.343L82.7594 118.511C82.2099 118.233 81.6657 117.946 81.1271 117.649ZM84.4211 119.316L84.5001 119.146C85.0561 119.403 85.6173 119.651 86.1834 119.89L86.1104 120.063C85.5423 119.824 84.9791 119.575 84.4211 119.316ZM87.8238 120.751L87.8908 120.575C88.4628 120.794 89.0395 121.002 89.6206 121.201L89.5598 121.379C88.9766 121.179 88.3979 120.97 87.8238 120.751ZM91.3177 121.946L91.3723 121.766C91.9583 121.943 92.5485 122.111 93.1427 122.269L93.0945 122.451C92.4981 122.292 91.9058 122.124 91.3177 121.946ZM94.8858 122.893C95.4845 123.03 96.087 123.157 96.6931 123.273L96.7286 123.089C96.1246 122.973 95.5243 122.846 94.9277 122.71L94.8858 122.893ZM98.5141 123.59L98.5431 123.405C99.1466 123.499 99.7535 123.583 100.363 123.657L100.341 123.844C99.7288 123.77 99.1198 123.685 98.5141 123.59ZM102.178 124.033L102.194 123.846C102.804 123.899 103.417 123.941 104.033 123.972L104.023 124.16C103.405 124.128 102.79 124.086 102.178 124.033ZM105.865 124.223C106.173 124.228 106.482 124.231 106.792 124.231C107.101 124.231 107.41 124.228 107.719 124.223L107.715 124.035C107.408 124.04 107.1 124.043 106.792 124.043C106.483 124.043 106.176 124.04 105.868 124.035L105.865 124.223ZM109.561 124.16L109.551 123.972C110.167 123.941 110.78 123.899 111.39 123.846L111.406 124.033C110.794 124.086 110.179 124.128 109.561 124.16ZM113.243 123.844L113.22 123.657C113.83 123.583 114.437 123.499 115.041 123.405L115.07 123.59C114.464 123.685 113.855 123.77 113.243 123.844ZM116.891 123.273L116.855 123.089C117.459 122.973 118.059 122.846 118.656 122.71L118.698 122.893C118.099 123.03 117.497 123.157 116.891 123.273ZM120.489 122.451L120.441 122.269C121.035 122.111 121.625 121.943 122.211 121.766L122.266 121.946C121.678 122.124 121.086 122.292 120.489 122.451ZM124.024 121.379L123.963 121.201C124.544 121.002 125.121 120.794 125.693 120.575L125.76 120.751C125.186 120.97 124.607 121.179 124.024 121.379ZM127.473 120.063L127.4 119.89C127.966 119.651 128.528 119.403 129.084 119.146L129.163 119.316C128.605 119.575 128.041 119.824 127.473 120.063ZM130.824 118.511L130.739 118.343C131.287 118.066 131.829 117.78 132.366 117.485L132.457 117.649C131.918 117.946 131.374 118.233 130.824 118.511ZM134.059 116.731L133.963 116.569C134.49 116.255 135.012 115.932 135.527 115.6L135.629 115.758C135.112 116.091 134.588 116.415 134.059 116.731ZM137.164 114.732C137.67 114.381 138.17 114.022 138.663 113.654L138.551 113.503C138.059 113.87 137.561 114.228 137.057 114.578L137.164 114.732ZM140.125 112.525L140.008 112.379C140.487 111.995 140.959 111.604 141.425 111.205L141.547 111.347C141.08 111.748 140.606 112.141 140.125 112.525ZM142.928 110.122L142.801 109.983C143.253 109.569 143.698 109.146 144.135 108.716L144.267 108.85C143.828 109.281 143.382 109.706 142.928 110.122ZM145.562 107.533L145.425 107.404C145.848 106.959 146.263 106.508 146.671 106.049L146.811 106.174C146.402 106.634 145.986 107.087 145.562 107.533ZM148.014 104.772C148.406 104.299 148.791 103.818 149.168 103.331L149.019 103.216C148.644 103.702 148.26 104.18 147.869 104.652L148.014 104.772ZM150.273 101.852L150.121 101.742C150.479 101.244 150.83 100.741 151.172 100.231L151.328 100.335C150.984 100.847 150.633 101.353 150.273 101.852ZM152.33 98.7848L152.17 98.6855C152.494 98.1652 152.809 97.6391 153.116 97.1071L153.279 97.201C152.971 97.7348 152.655 98.2628 152.33 98.7848ZM154.174 95.5852L154.008 95.4969C154.296 94.9562 154.575 94.4099 154.845 93.8583L155.014 93.9409C154.743 94.4944 154.463 95.0426 154.174 95.5852ZM155.797 92.2692L155.625 92.1924C155.876 91.6332 156.117 91.069 156.349 90.5L156.523 90.5709C156.29 91.142 156.048 91.7081 155.797 92.2692ZM157.192 88.8491L157.015 88.7841C157.227 88.2099 157.429 87.6312 157.622 87.048L157.801 87.1069C157.607 87.6922 157.404 88.273 157.192 88.8491ZM158.35 85.3438L158.17 85.2909C158.342 84.7032 158.505 84.1112 158.658 83.5153L158.84 83.562C158.687 84.16 158.523 84.754 158.35 85.3438ZM159.269 81.7677L159.085 81.7271C159.217 81.1297 159.34 80.5286 159.452 79.9239L159.637 79.9582C159.524 80.565 159.401 81.1682 159.269 81.7677ZM159.944 78.1348L159.758 78.1067C159.849 77.5028 159.931 76.8957 160.002 76.2854L160.189 76.3072C160.117 76.9196 160.035 77.5288 159.944 78.1348ZM160.372 74.4701L160.185 74.4545C160.236 73.8442 160.276 73.231 160.307 72.6151L160.495 72.6244C160.464 73.2424 160.423 73.8577 160.372 74.4701Z" fill="#FF743C"/>
<path fill-rule="evenodd" clip-rule="evenodd" d="M149.393 56.8295L149.205 56.8264C149.21 56.5191 149.213 56.2112 149.213 55.9026C149.213 55.5941 149.21 55.2862 149.205 54.9789L149.393 54.9758C149.398 55.2841 149.401 55.5931 149.401 55.9026C149.401 56.2122 149.398 56.5211 149.393 56.8295ZM149.332 53.1335L149.144 53.1428C149.114 52.5269 149.073 51.9137 149.022 51.3034L149.21 51.2878C149.261 51.9002 149.301 52.5155 149.332 53.1335ZM149.026 49.4507L148.839 49.4725C148.768 48.8623 148.687 48.2551 148.595 47.6512L148.781 47.6231C148.873 48.2291 148.954 48.8383 149.026 49.4507ZM148.474 45.7997L148.289 45.834C148.177 45.2294 148.055 44.6282 147.923 44.0308L148.106 43.9902C148.239 44.5897 148.361 45.1929 148.474 45.7997ZM147.678 42.1959L147.496 42.2426C147.343 41.6467 147.18 41.0547 147.007 40.467L147.188 40.4141C147.361 41.0039 147.524 41.5979 147.678 42.1959ZM146.638 38.651L146.46 38.71C146.267 38.1268 146.064 37.548 145.853 36.9738L146.029 36.9088C146.241 37.485 146.444 38.0658 146.638 38.651ZM145.361 35.187L145.187 35.258C144.955 34.6889 144.713 34.1247 144.463 33.5656L144.634 33.4887C144.886 34.0498 145.128 34.616 145.361 35.187ZM143.851 31.817L143.682 31.8996C143.412 31.348 143.133 30.8018 142.846 30.261L143.012 30.1728C143.3 30.7154 143.58 31.2635 143.851 31.817ZM142.116 28.557L141.953 28.6508C141.647 28.1189 141.331 27.5927 141.008 27.0725L141.167 26.9731C141.492 27.4952 141.809 28.0232 142.116 28.557ZM140.165 25.4227L140.009 25.5274C139.667 25.0174 139.317 24.5136 138.958 24.0162L139.111 23.9063C139.47 24.4054 139.822 24.911 140.165 25.4227ZM138.005 22.4268L137.857 22.5417C137.481 22.0563 137.098 21.5776 136.707 21.1057L136.851 20.9857C137.244 21.4593 137.629 21.9397 138.005 22.4268ZM135.649 19.5844L135.508 19.7092C135.101 19.2503 134.685 18.7985 134.263 18.354L134.399 18.2245C134.823 18.6706 135.24 19.124 135.649 19.5844ZM133.104 16.908L132.973 17.042C132.535 16.612 132.09 16.1894 131.639 15.7745L131.766 15.6361C132.219 16.0524 132.665 16.4764 133.104 16.908ZM130.384 14.4104L130.262 14.5531C129.796 14.1539 129.324 13.7626 128.845 13.3793L128.962 13.2326C129.443 13.6171 129.917 14.0098 130.384 14.4104ZM127.501 12.1038L127.388 12.2545C126.897 11.888 126.399 11.5298 125.894 11.1802L126.002 11.0257C126.508 11.3766 127.007 11.7361 127.501 12.1038ZM124.466 9.99982L124.365 10.1578C123.849 9.82599 123.328 9.50282 122.801 9.18851L122.897 9.0271C123.426 9.3425 123.949 9.66681 124.466 9.99982ZM121.294 8.10876L121.203 8.2734C120.667 7.97804 120.124 7.69169 119.577 7.41455L119.662 7.24688C120.211 7.525 120.755 7.81236 121.294 8.10876ZM118 6.44182L117.921 6.61234C117.365 6.35472 116.804 6.10645 116.238 5.86772L116.311 5.69457C116.879 5.93415 117.442 6.1833 118 6.44182ZM114.597 5.00685L114.53 5.18244C113.958 4.96434 113.382 4.75584 112.8 4.55716L112.861 4.37934C113.445 4.57873 114.023 4.78797 114.597 5.00685ZM111.103 3.81239L111.049 3.99222C110.463 3.81446 109.873 3.64658 109.278 3.48875L109.327 3.30712C109.923 3.46551 110.515 3.634 111.103 3.81239ZM107.535 2.86465L107.493 3.04784C106.897 2.91148 106.297 2.78518 105.693 2.66913L105.728 2.48459C106.334 2.60105 106.937 2.7278 107.535 2.86465ZM103.907 2.16747L103.878 2.35314C103.274 2.25884 102.668 2.17473 102.058 2.10097L102.08 1.91441C102.692 1.98842 103.301 2.07284 103.907 2.16747ZM100.244 1.72454L100.227 1.91177C99.6173 1.85934 99.0043 1.81724 98.3886 1.78565L98.3982 1.59798C99.0161 1.62967 99.6313 1.67192 100.244 1.72454ZM96.556 1.53504L96.5528 1.72294C96.2456 1.71769 95.9377 1.71505 95.6293 1.71505C95.3208 1.71505 95.0129 1.71769 94.7057 1.72294L94.7024 1.53504C95.0108 1.52978 95.3197 1.52713 95.6293 1.52713C95.9388 1.52713 96.2477 1.52978 96.556 1.53504ZM92.8603 1.59798L92.8699 1.78566C92.2542 1.81724 91.6412 1.85934 91.0311 1.91177L91.015 1.72454C91.6272 1.67192 92.2424 1.62968 92.8603 1.59798ZM89.1783 1.91442L89.2009 2.10098C88.5909 2.17473 87.984 2.25885 87.3805 2.35315L87.3515 2.16748C87.9572 2.07284 88.5662 1.98843 89.1783 1.91442ZM85.5305 2.48459L85.5659 2.66914C84.962 2.78518 84.3617 2.91148 83.7651 3.04785L83.7232 2.86465C84.3219 2.7278 84.9244 2.60105 85.5305 2.48459ZM81.9319 3.30713L81.9801 3.48875C81.3859 3.64658 80.7957 3.81447 80.2097 3.99223L80.1551 3.8124C80.7432 3.634 81.3355 3.46552 81.9319 3.30713ZM78.3972 4.37934L78.458 4.55716C77.8769 4.75585 77.3002 4.96434 76.7282 5.18244L76.6612 5.00685C77.2353 4.78797 77.814 4.57874 78.3972 4.37934ZM74.9478 5.69457L75.0208 5.86772C74.4547 6.10645 73.8935 6.35473 73.3375 6.61234L73.2585 6.44183C73.8165 6.1833 74.3797 5.93415 74.9478 5.69457ZM71.5968 7.24688C71.0473 7.525 70.5031 7.81236 69.9645 8.10876L70.0551 8.2734C70.5918 7.97804 71.1341 7.69169 71.6817 7.41456L71.5968 7.24688ZM68.3618 9.02709L68.458 9.18851C67.9307 9.50281 67.4093 9.82598 66.8938 10.1578L66.7921 9.99981C67.3094 9.66681 67.8327 9.3425 68.3618 9.02709ZM65.257 11.0257L65.3641 11.1802C64.8598 11.5298 64.3617 11.888 63.8701 12.2545L63.7577 12.1038C64.2511 11.7361 64.751 11.3766 65.257 11.0257ZM62.2962 13.2326L62.4136 13.3793C61.9345 13.7625 61.4621 14.1539 60.9964 14.5531L60.8741 14.4104C61.3414 14.0098 61.8154 13.6171 62.2962 13.2326ZM59.4929 15.6361C59.0395 16.0524 58.5932 16.4764 58.1542 16.908L58.2859 17.042C58.7235 16.6119 59.1682 16.1894 59.62 15.7745L59.4929 15.6361ZM56.8595 18.2245L56.9957 18.354C56.5731 18.7985 56.158 19.2503 55.7505 19.7092L55.61 19.5844C56.0189 19.1239 56.4354 18.6706 56.8595 18.2245ZM54.4074 20.9857L54.552 21.1057C54.1607 21.5776 53.7772 22.0563 53.4017 22.5417L53.2531 22.4267C53.6299 21.9397 54.0147 21.4593 54.4074 20.9857ZM52.148 23.9063L52.3004 24.0162C51.9419 24.5136 51.5915 25.0174 51.2495 25.5274L51.0934 25.4227C51.4366 24.911 51.7882 24.4054 52.148 23.9063ZM50.0914 26.9731C49.7664 27.4952 49.45 28.0232 49.1422 28.557L49.3051 28.6508C49.6117 28.1189 49.9271 27.5927 50.251 27.0725L50.0914 26.9731ZM48.2469 30.1727L48.4128 30.261C48.1251 30.8018 47.8461 31.348 47.5762 31.8996L47.4074 31.817C47.6783 31.2635 47.9582 30.7154 48.2469 30.1727ZM46.6242 33.4887L46.7957 33.5656C46.5452 34.1247 46.3038 34.6889 46.0718 35.258L45.8978 35.187C46.1306 34.616 46.3728 34.0498 46.6242 33.4887ZM45.2295 36.9088L45.4058 36.9738C45.1941 37.548 44.9918 38.1268 44.799 38.71L44.6206 38.651C44.814 38.0658 45.0171 37.485 45.2295 36.9088ZM44.0707 40.4141L44.2511 40.467C44.0787 41.0548 43.9158 41.6467 43.7628 42.2426L43.5808 42.1959C43.7344 41.5979 43.8977 41.0039 44.0707 40.4141ZM43.1523 43.9902L43.3357 44.0308C43.2037 44.6282 43.0814 45.2294 42.9691 45.8341L42.7843 45.7997C42.897 45.193 43.0198 44.5897 43.1523 43.9902ZM42.4773 47.6231L42.6631 47.6512C42.5719 48.2551 42.4905 48.8623 42.4191 49.4726L42.2325 49.4507C42.3041 48.8384 42.3857 48.2291 42.4773 47.6231ZM42.0488 51.2879L42.2361 51.3034C42.1854 51.9137 42.1447 52.5269 42.1141 53.1428L41.9264 53.1335C41.9571 52.5155 41.9979 51.9003 42.0488 51.2879ZM41.8656 54.9758C41.8605 55.2842 41.8579 55.5931 41.8579 55.9026C41.8579 56.2122 41.8605 56.5212 41.8656 56.8295L42.0535 56.8264C42.0484 56.5191 42.0458 56.2112 42.0458 55.9026C42.0458 55.5941 42.0484 55.2862 42.0535 54.9789L41.8656 54.9758ZM41.9264 58.6718L42.1141 58.6625C42.1447 59.2784 42.1854 59.8916 42.2361 60.5019L42.0488 60.5174C41.9979 59.9051 41.9571 59.2898 41.9264 58.6718ZM42.2325 62.3546L42.4191 62.3328C42.4905 62.943 42.5719 63.5502 42.6631 64.1541L42.4773 64.1822C42.3857 63.5762 42.3041 62.967 42.2325 62.3546ZM42.7843 66.0056L42.9691 65.9712C43.0814 66.5759 43.2037 67.1771 43.3358 67.7745L43.1523 67.8151C43.0198 67.2156 42.897 66.6124 42.7843 66.0056ZM43.5808 69.6094L43.7628 69.5627C43.9159 70.1586 44.0787 70.7505 44.2511 71.3383L44.0708 71.3912C43.8977 70.8014 43.7344 70.2074 43.5808 69.6094ZM44.6206 73.1543L44.799 73.0953C44.9918 73.6785 45.1942 74.2573 45.4058 74.8315L45.2295 74.8965C45.0171 74.3203 44.8141 73.7395 44.6206 73.1543ZM45.8978 76.6183L46.0718 76.5473C46.3038 77.1164 46.5452 77.6806 46.7957 78.2397L46.6242 78.3166C46.3728 77.7555 46.1306 77.1893 45.8978 76.6183ZM47.4074 79.9883L47.5762 79.9057C47.8461 80.4572 48.1251 81.0035 48.4128 81.5443L48.2469 81.6325C47.9582 81.0899 47.6783 80.5418 47.4074 79.9883ZM49.1422 83.2483L49.305 83.1545C49.6117 83.6864 49.9271 84.2126 50.2509 84.7328L50.0914 84.8322C49.7664 84.3101 49.45 83.7821 49.1422 83.2483ZM51.0934 86.3825L51.2495 86.2779C51.5915 86.7879 51.9419 87.2917 52.3004 87.7891L52.148 87.899C51.7882 87.3999 51.4366 86.8943 51.0934 86.3825ZM53.253 89.3785L53.4017 89.2635C53.7772 89.7489 54.1607 90.2277 54.552 90.6996L54.4074 90.8196C54.0147 90.346 53.6299 89.8656 53.253 89.3785ZM55.61 92.2209L55.7505 92.0961C56.158 92.555 56.5731 93.0068 56.9957 93.4513L56.8595 93.5807C56.4354 93.1347 56.0189 92.6813 55.61 92.2209ZM58.1542 94.8973L58.2859 94.7633C58.7234 95.1933 59.1682 95.6159 59.62 96.0308L59.4929 96.1692C59.0395 95.7529 58.5932 95.3288 58.1542 94.8973ZM60.8741 97.3949C61.3413 97.7955 61.8154 98.1881 62.2962 98.5727L62.4136 98.426C61.9345 98.0427 61.462 97.6514 60.9964 97.2522L60.8741 97.3949ZM63.7577 99.7015L63.87 99.5508C64.3617 99.9173 64.8598 100.275 65.3641 100.625L65.257 100.78C64.7509 100.429 64.2511 100.069 63.7577 99.7015ZM66.7921 101.805L66.8938 101.647C67.4093 101.979 67.9307 102.302 68.458 102.617L68.3617 102.778C67.8327 102.463 67.3094 102.138 66.7921 101.805ZM69.9645 103.697L70.0551 103.532C70.5918 103.827 71.1341 104.114 71.6817 104.391L71.5968 104.558C71.0473 104.28 70.5031 103.993 69.9645 103.697ZM73.2585 105.363L73.3375 105.193C73.8935 105.451 74.4547 105.699 75.0208 105.938L74.9478 106.111C74.3797 105.871 73.8165 105.622 73.2585 105.363ZM76.6612 106.798L76.7282 106.623C77.3002 106.841 77.8769 107.049 78.458 107.248L78.3972 107.426C77.814 107.227 77.2353 107.017 76.6612 106.798ZM80.1551 107.993L80.2097 107.813C80.7957 107.991 81.3859 108.159 81.9801 108.317L81.9319 108.498C81.3355 108.34 80.7432 108.171 80.1551 107.993ZM83.7232 108.941C84.3219 109.077 84.9244 109.204 85.5305 109.321L85.566 109.136C84.962 109.02 84.3617 108.894 83.7651 108.757L83.7232 108.941ZM87.3515 109.638L87.3805 109.452C87.984 109.546 88.5909 109.631 89.2009 109.704L89.1783 109.891C88.5662 109.817 87.9572 109.732 87.3515 109.638ZM91.015 110.081L91.0311 109.894C91.6412 109.946 92.2542 109.988 92.87 110.02L92.8603 110.207C92.2424 110.176 91.6272 110.133 91.015 110.081ZM94.7025 110.27C95.0108 110.276 95.3197 110.278 95.6293 110.278C95.9388 110.278 96.2478 110.276 96.5561 110.27L96.5529 110.082C96.2456 110.088 95.9377 110.09 95.6293 110.09C95.3208 110.09 95.0129 110.088 94.7057 110.082L94.7025 110.27ZM98.3982 110.207L98.3886 110.02C99.0044 109.988 99.6174 109.946 100.227 109.894L100.244 110.081C99.6313 110.133 99.0161 110.176 98.3982 110.207ZM102.08 109.891L102.058 109.704C102.668 109.631 103.275 109.546 103.878 109.452L103.907 109.638C103.301 109.732 102.692 109.817 102.08 109.891ZM105.728 109.321L105.693 109.136C106.297 109.02 106.897 108.894 107.493 108.757L107.535 108.941C106.937 109.077 106.334 109.204 105.728 109.321ZM109.327 108.498L109.278 108.317C109.873 108.159 110.463 107.991 111.049 107.813L111.103 107.993C110.515 108.171 109.923 108.34 109.327 108.498ZM112.861 107.426L112.801 107.248C113.382 107.049 113.958 106.841 114.53 106.623L114.597 106.798C114.023 107.017 113.445 107.227 112.861 107.426ZM116.311 106.111L116.238 105.938C116.804 105.699 117.365 105.451 117.921 105.193L118 105.363C117.442 105.622 116.879 105.871 116.311 106.111ZM119.662 104.558L119.577 104.391C120.124 104.114 120.667 103.827 121.203 103.532L121.294 103.697C120.755 103.993 120.211 104.28 119.662 104.558ZM122.897 102.778L122.801 102.617C123.328 102.302 123.849 101.979 124.365 101.647L124.466 101.805C123.949 102.138 123.426 102.463 122.897 102.778ZM126.002 100.78C126.508 100.429 127.007 100.069 127.501 99.7015L127.388 99.5508C126.897 99.9173 126.399 100.275 125.894 100.625L126.002 100.78ZM128.962 98.5727L128.845 98.426C129.324 98.0427 129.796 97.6514 130.262 97.2522L130.384 97.3949C129.917 97.7955 129.443 98.1882 128.962 98.5727ZM131.766 96.1692L131.639 96.0308C132.09 95.6159 132.535 95.1934 132.973 94.7633L133.104 94.8973C132.665 95.3289 132.219 95.7529 131.766 96.1692ZM134.399 93.5808L134.263 93.4513C134.685 93.0068 135.101 92.555 135.508 92.0961L135.649 92.2209C135.24 92.6814 134.823 93.1347 134.399 93.5808ZM136.851 90.8196C137.244 90.346 137.629 89.8656 138.005 89.3785L137.857 89.2636C137.481 89.749 137.098 90.2277 136.706 90.6996L136.851 90.8196ZM139.111 87.899L138.958 87.7891C139.317 87.2917 139.667 86.7879 140.009 86.2779L140.165 86.3826C139.822 86.8943 139.47 87.3999 139.111 87.899ZM141.167 84.8322L141.008 84.7328C141.331 84.2126 141.647 83.6864 141.953 83.1545L142.116 83.2483C141.809 83.7821 141.492 84.3101 141.167 84.8322ZM143.012 81.6326L142.846 81.5443C143.133 81.0035 143.412 80.4572 143.682 79.9057L143.851 79.9883C143.58 80.5418 143.3 81.0899 143.012 81.6326ZM144.634 78.3166L144.463 78.2397C144.713 77.6806 144.955 77.1164 145.187 76.5473L145.361 76.6183C145.128 77.1893 144.886 77.7555 144.634 78.3166ZM146.029 74.8965L145.853 74.8315C146.064 74.2573 146.267 73.6785 146.46 73.0953L146.638 73.1543C146.444 73.7395 146.241 74.3203 146.029 74.8965ZM147.188 71.3912L147.007 71.3383C147.18 70.7505 147.343 70.1586 147.496 69.5626L147.678 69.6094C147.524 70.2074 147.361 70.8014 147.188 71.3912ZM148.106 67.8151L147.923 67.7745C148.055 67.1771 148.177 66.5759 148.289 65.9712L148.474 66.0055C148.361 66.6123 148.239 67.2156 148.106 67.8151ZM148.781 64.1822L148.595 64.1541C148.687 63.5502 148.768 62.943 148.839 62.3327L149.026 62.3546C148.954 62.9669 148.873 63.5762 148.781 64.1822ZM149.21 60.5174L149.022 60.5019C149.073 59.8916 149.114 59.2784 149.144 58.6625L149.332 58.6718C149.301 59.2898 149.261 59.905 149.21 60.5174Z" fill="#FF743C"/>
<path d="M147.613 71.9254C147.613 105.656 120.269 133 86.5385 133C52.8079 133 25.4639 105.656 25.4639 71.9254C25.4639 38.1948 52.8079 10.8507 86.5385 10.8507C120.269 10.8507 147.613 38.1948 147.613 71.9254Z" fill="#FEE2EC"/>
<path fill-rule="evenodd" clip-rule="evenodd" d="M49.9588 15.726C49.7117 19.972 50.1789 25.6045 53.0415 31.136C55.9013 36.662 61.1466 42.0753 65.6669 46.1016C67.9287 48.1162 70.0121 49.7864 71.5301 50.9529C72.2892 51.5362 72.907 51.9937 73.3353 52.3055C73.5494 52.4614 73.7161 52.5808 73.8294 52.6614C73.886 52.7017 73.9293 52.7322 73.9585 52.7528C73.9731 52.763 73.9841 52.7708 73.9915 52.776L74 52.7818L74.0021 52.7833L74.0027 52.7837C74.0028 52.7838 74.0029 52.7839 74.0834 52.6682C74.1639 52.5525 74.1639 52.5525 74.1638 52.5524L74.1633 52.5521L74.1613 52.5507L74.1531 52.545C74.1459 52.5399 74.135 52.5323 74.1206 52.5222C74.0919 52.5019 74.049 52.4717 73.9927 52.4317C73.8803 52.3517 73.7144 52.2329 73.5012 52.0776C73.0747 51.7671 72.4588 51.3111 71.7019 50.7294C70.1879 49.566 68.11 47.9002 65.8544 45.8911C61.3401 41.8701 56.1271 36.4849 53.2919 31.0064C50.4595 25.5335 49.9951 19.9557 50.2402 15.7424C50.3627 13.6362 50.6625 11.8726 50.9315 10.6362C51.0659 10.0181 51.1927 9.53186 51.2857 9.20065C51.3321 9.03506 51.3702 8.90823 51.3965 8.82305C51.4097 8.78046 51.4199 8.74828 51.4268 8.72688C51.4302 8.71619 51.4329 8.70818 51.4346 8.70291L51.4365 8.69707L51.437 8.69571L51.4371 8.69541C51.4371 8.69537 51.4365 8.69518 51.3035 8.65053C51.1699 8.60568 51.1698 8.60577 51.1698 8.60591L51.1696 8.6064L51.169 8.60816L51.1668 8.61478C51.1649 8.62057 51.1622 8.62911 51.1585 8.64035C51.1513 8.66282 51.1407 8.69609 51.1272 8.73981C51.1002 8.82723 51.0614 8.95642 51.0143 9.12448C50.9199 9.46058 50.7918 9.95223 50.656 10.5763C50.3845 11.8243 50.0823 13.6026 49.9588 15.726Z" fill="#420C0C"/>
<path d="M48.9205 18.0944C48.2477 18.4289 47.3946 18.1345 47.015 17.4369C46.6355 16.7393 46.8732 15.9027 47.546 15.5682C48.2187 15.2338 49.0719 15.5281 49.4515 16.2257C49.831 16.9233 49.5933 17.76 48.9205 18.0944Z" fill="#F7528F"/>
<path d="M50.7704 6.6451C51.0801 6.49195 51.4022 5.57628 51.7761 5.68905C52.0974 5.78413 52.4629 6.94296 52.6673 7.3161C53.0504 8.01557 52.8222 8.84898 52.1577 9.17765C51.4931 9.50631 50.6439 9.20611 50.2608 8.50665C49.8777 7.80718 50.1058 6.97377 50.7704 6.6451Z" fill="#F7528F"/>
<path d="M52.9634 13.3398C52.2959 13.6697 51.4427 13.3679 51.0579 12.6658C50.673 11.9637 50.9022 11.1271 51.5697 10.7972C52.2372 10.4674 53.0903 10.7691 53.4752 11.4712C53.86 12.1733 53.6309 13.0099 52.9634 13.3398Z" fill="#F7528F"/>
<path d="M49.6206 13.1586C48.9531 13.4885 48.0999 13.1867 47.7151 12.4846C47.3302 11.7824 47.5594 10.9458 48.2269 10.6159C48.8944 10.286 49.7475 10.5878 50.1324 11.2899C50.5173 11.9921 50.2881 12.8287 49.6206 13.1586Z" fill="#F7528F"/>
<path d="M52.2734 18.2841C51.6059 18.614 50.7528 18.3122 50.3679 17.6101C49.983 16.9079 50.2122 16.0712 50.8797 15.7414C51.5472 15.4115 52.4004 15.7132 52.7852 16.4154C53.1701 17.1176 52.941 17.9542 52.2734 18.2841Z" fill="#F7528F"/>
<path d="M52.6426 23.0615C51.975 23.3914 51.1219 23.0896 50.7371 22.3875C50.3522 21.6854 50.5813 20.8488 51.2489 20.5189C51.9164 20.189 52.7695 20.4908 53.1544 21.1929C53.5392 21.895 53.3101 22.7316 52.6426 23.0615Z" fill="#F7528F"/>
<path d="M49.3003 22.8803C48.6328 23.2102 47.7796 22.9084 47.3948 22.2063C47.0099 21.5042 47.2391 20.6676 47.9066 20.3378C48.5741 20.0079 49.4272 20.3096 49.8121 21.0117C50.1969 21.7139 49.9678 22.5505 49.3003 22.8803Z" fill="#F7528F"/>
<path d="M51.7873 25.1971C52.2562 24.6168 53.137 24.5618 53.7547 25.0743C54.3725 25.5868 54.4931 26.4727 54.0243 27.053C53.5554 27.6333 52.6745 27.6883 52.0568 27.1758C51.4391 26.6633 51.3184 25.7774 51.7873 25.1971Z" fill="#F7528F"/>
<path d="M48.6399 26.3364C49.1087 25.7562 49.9896 25.7012 50.6072 26.2137C51.2249 26.7261 51.3456 27.612 50.8767 28.1922C50.4079 28.7725 49.5271 28.8275 48.9094 28.315C48.2917 27.8025 48.1711 26.9167 48.6399 26.3364Z" fill="#F7528F"/>
<path d="M53.3552 29.4966C53.6823 28.8253 54.5205 28.5911 55.2273 28.9735C55.9342 29.3558 56.2421 30.21 55.915 30.8812C55.5879 31.5525 54.7497 31.7867 54.0429 31.4043C53.336 31.022 53.0281 30.1678 53.3552 29.4966Z" fill="#F7528F"/>
<path d="M50.5124 31.2655C50.8395 30.5943 51.6777 30.3601 52.3846 30.7425C53.0914 31.1248 53.3993 31.9789 53.0722 32.6501C52.7451 33.3213 51.9069 33.5555 51.2001 33.1732C50.4932 32.7908 50.1853 31.9368 50.5124 31.2655Z" fill="#F7528F"/>
<path d="M56.6856 34.6009C56.9744 33.9118 57.7964 33.635 58.5215 33.9827C59.2467 34.3304 59.6004 35.1709 59.3115 35.8599C59.0227 36.549 58.2007 36.8258 57.4756 36.4781C56.7505 36.1304 56.3968 35.2899 56.6856 34.6009Z" fill="#F7528F"/>
<path d="M53.94 36.5161C54.2288 35.827 55.0508 35.5503 55.7759 35.898C56.5011 36.2457 56.8548 37.0861 56.5659 37.7752C56.2771 38.4643 55.4551 38.7411 54.73 38.3934C54.0049 38.0457 53.6512 37.2052 53.94 36.5161Z" fill="#F7528F"/>
<path d="M60.5444 39.1023C60.8333 38.4132 61.6552 38.1365 62.3804 38.4842C63.1055 38.8319 63.4592 39.6723 63.1704 40.3614C62.8816 41.0505 62.0596 41.3273 61.3345 40.9796C60.6093 40.6319 60.2556 39.7914 60.5444 39.1023Z" fill="#F7528F"/>
<path d="M57.7984 41.0173C58.0872 40.3283 58.9092 40.0515 59.6343 40.3992C60.3594 40.7469 60.7131 41.5874 60.4243 42.2765C60.1355 42.9655 59.3135 43.2423 58.5884 42.8946C57.8633 42.5469 57.5096 41.7064 57.7984 41.0173Z" fill="#F7528F"/>
<path fill-rule="evenodd" clip-rule="evenodd" d="M24.5823 42.6713C24.3353 46.9173 24.8024 52.5498 27.665 58.0813C30.5248 63.6073 35.77 69.0206 40.2903 73.047C42.552 75.0616 44.6354 76.7317 46.1535 77.8983C46.9125 78.4816 47.5304 78.9391 47.9586 79.2508C48.1727 79.4067 48.3394 79.5262 48.4527 79.6068C48.5093 79.647 48.5526 79.6776 48.5818 79.6981C48.5964 79.7084 48.6074 79.7161 48.6149 79.7213L48.6233 79.7272L48.6254 79.7287L48.626 79.7291C48.6261 79.7292 48.6262 79.7292 48.7067 79.6135C48.7872 79.4978 48.7872 79.4978 48.7871 79.4978L48.7866 79.4974L48.7846 79.496L48.7765 79.4903C48.7692 79.4853 48.7583 79.4776 48.744 79.4675C48.7152 79.4473 48.6723 79.417 48.6161 79.377C48.5036 79.297 48.3377 79.1782 48.1245 79.023C47.698 78.7125 47.0822 78.2564 46.3252 77.6748C44.8113 76.5113 42.7333 74.8456 40.4778 72.8365C35.9635 68.8154 30.7505 63.4302 27.9153 57.9518C25.083 52.4788 24.6186 46.9009 24.8637 42.6877C24.9862 40.5814 25.286 38.8179 25.555 37.5815C25.6895 36.9633 25.8162 36.4771 25.9092 36.1459C25.9557 35.9803 25.9937 35.8535 26.02 35.7683C26.0332 35.7257 26.0434 35.6935 26.0503 35.6721C26.0538 35.6614 26.0564 35.6534 26.0581 35.6482L26.0601 35.6423L26.0605 35.6409L26.0606 35.6406C26.0606 35.6406 26.06 35.6404 25.927 35.5958C25.7934 35.5509 25.7934 35.551 25.7933 35.5511L25.7932 35.5516L25.7926 35.5534L25.7904 35.56C25.7885 35.5658 25.7857 35.5743 25.7821 35.5856C25.7748 35.6081 25.7642 35.6413 25.7507 35.685C25.7237 35.7725 25.685 35.9017 25.6378 36.0697C25.5435 36.4058 25.4153 36.8975 25.2796 37.5215C25.0081 38.7696 24.7058 40.5479 24.5823 42.6713Z" fill="#420C0C"/>
<path d="M23.5455 45.04C22.8727 45.3745 22.0196 45.0801 21.64 44.3825C21.2604 43.6849 21.4981 42.8482 22.1709 42.5138C22.8437 42.1793 23.6969 42.4737 24.0765 43.1713C24.456 43.8689 24.2183 44.7056 23.5455 45.04Z" fill="#F7528F"/>
<path d="M25.3954 33.5912C25.7051 33.438 26.0272 32.5223 26.4011 32.6351C26.7224 32.7302 27.0879 33.889 27.2923 34.2622C27.6754 34.9616 27.4472 35.795 26.7826 36.1237C26.1181 36.4524 25.2689 36.1522 24.8858 35.4527C24.5026 34.7532 24.7308 33.9198 25.3954 33.5912Z" fill="#F7528F"/>
<path d="M27.5869 40.2854C26.9194 40.6152 26.0662 40.3135 25.6814 39.6114C25.2965 38.9092 25.5257 38.0726 26.1932 37.7428C26.8607 37.4129 27.7138 37.7147 28.0987 38.4168C28.4836 39.1189 28.2544 39.9555 27.5869 40.2854Z" fill="#F7528F"/>
<path d="M24.2446 40.1042C23.5771 40.4341 22.7239 40.1323 22.3391 39.4301C21.9542 38.728 22.1834 37.8913 22.8509 37.5614C23.5184 37.2315 24.3716 37.5333 24.7564 38.2355C25.1413 38.9376 24.9121 39.7743 24.2446 40.1042Z" fill="#F7528F"/>
<path d="M26.8979 45.2296C26.2304 45.5596 25.3772 45.2578 24.9924 44.5556C24.6076 43.8535 24.8367 43.0168 25.5042 42.6869C26.1718 42.357 27.0249 42.6588 27.4097 43.3609C27.7945 44.0631 27.5654 44.8997 26.8979 45.2296Z" fill="#F7528F"/>
<path d="M27.268 50.007C26.6005 50.3369 25.7474 50.0352 25.3625 49.3331C24.9777 48.6309 25.2068 47.7944 25.8744 47.4645C26.5419 47.1346 27.395 47.4363 27.7798 48.1385C28.1647 48.8406 27.9355 49.6772 27.268 50.007Z" fill="#F7528F"/>
<path d="M23.9237 49.8259C23.2562 50.1558 22.4031 49.854 22.0183 49.1519C21.6334 48.4498 21.8626 47.6132 22.5301 47.2833C23.1976 46.9534 24.0507 47.2552 24.4356 47.9573C24.8204 48.6594 24.5913 49.496 23.9237 49.8259Z" fill="#F7528F"/>
<path d="M26.4114 52.1427C26.8803 51.5623 27.7612 51.5074 28.3789 52.0198C28.9966 52.5323 29.1172 53.4182 28.6483 53.9985C28.1794 54.5789 27.2986 54.6339 26.6809 54.1214C26.0631 53.6089 25.9425 52.723 26.4114 52.1427Z" fill="#F7528F"/>
<path d="M23.2635 53.2818C23.7323 52.7015 24.6132 52.6465 25.2309 53.159C25.8486 53.6715 25.9693 54.5574 25.5004 55.1377C25.0315 55.718 24.1506 55.773 23.5329 55.2605C22.9152 54.748 22.7946 53.8622 23.2635 53.2818Z" fill="#F7528F"/>
<path d="M27.9798 56.4417C28.3069 55.7704 29.145 55.5362 29.8519 55.9186C30.5587 56.301 30.8666 57.1552 30.5395 57.8265C30.2124 58.4978 29.3743 58.732 28.6674 58.3496C27.9606 57.9672 27.6527 57.113 27.9798 56.4417Z" fill="#F7528F"/>
<path d="M25.1371 58.2107C25.4641 57.5394 26.3023 57.3052 27.0091 57.6876C27.7159 58.07 28.0238 58.9242 27.6967 59.5955C27.3696 60.2668 26.5315 60.501 25.8247 60.1186C25.1179 59.7362 24.81 58.8821 25.1371 58.2107Z" fill="#F7528F"/>
<path d="M31.3102 61.5463C31.599 60.8571 32.421 60.5803 33.1461 60.928C33.8712 61.2757 34.2249 62.1163 33.9361 62.8054C33.6472 63.4945 32.8253 63.7713 32.1001 63.4236C31.375 63.0759 31.0213 62.2354 31.3102 61.5463Z" fill="#F7528F"/>
<path d="M28.5641 63.4617C28.853 62.7726 29.6749 62.4958 30.4001 62.8435C31.1252 63.1912 31.4788 64.0316 31.19 64.7208C30.9012 65.4099 30.0792 65.6866 29.354 65.339C28.6289 64.9913 28.2753 64.1508 28.5641 63.4617Z" fill="#F7528F"/>
<path d="M35.1676 66.0475C35.4564 65.3583 36.2784 65.0815 37.0035 65.4293C37.7286 65.777 38.0823 66.6175 37.7935 67.3066C37.5047 67.9958 36.6827 68.2726 35.9576 67.9248C35.2324 67.5771 34.8788 66.7366 35.1676 66.0475Z" fill="#F7528F"/>
<path d="M32.422 67.9628C32.7108 67.2736 33.5328 66.9968 34.2579 67.3445C34.983 67.6922 35.3367 68.5328 35.0479 69.2219C34.759 69.9111 33.9371 70.1878 33.212 69.8401C32.4868 69.4924 32.1332 68.6519 32.422 67.9628Z" fill="#F7528F"/>
<path fill-rule="evenodd" clip-rule="evenodd" d="M119.513 15.9071C119.76 20.1531 119.293 25.7856 116.43 31.3171C113.57 36.8431 108.325 42.2564 103.805 46.2828C101.543 48.2974 99.4597 49.9675 97.9416 51.1341C97.1826 51.7174 96.5648 52.1749 96.1365 52.4866C95.9224 52.6425 95.7557 52.762 95.6424 52.8425C95.5858 52.8828 95.5425 52.9134 95.5133 52.9339C95.4987 52.9441 95.4877 52.9519 95.4802 52.9571L95.4718 52.963L95.4697 52.9645L95.4691 52.9649C95.469 52.965 95.4689 52.965 95.3884 52.8493C95.3079 52.7336 95.3079 52.7336 95.308 52.7335L95.3085 52.7332L95.3105 52.7318L95.3187 52.7261C95.3259 52.7211 95.3368 52.7134 95.3512 52.7033C95.3799 52.6831 95.4228 52.6528 95.4791 52.6128C95.5915 52.5328 95.7574 52.414 95.9706 52.2587C96.3971 51.9483 97.0129 51.4922 97.7699 50.9105C99.2839 49.7471 101.362 48.0813 103.617 46.0723C108.132 42.0512 113.345 36.666 116.18 31.1876C119.012 25.7146 119.477 20.1368 119.232 15.9235C119.109 13.8173 118.809 12.0537 118.54 10.8173C118.406 10.1992 118.279 9.71294 118.186 9.38173C118.14 9.21613 118.102 9.0893 118.075 9.00412C118.062 8.96153 118.052 8.92936 118.045 8.90796C118.041 8.89726 118.039 8.88926 118.037 8.88399L118.035 8.87815L118.035 8.87678L118.035 8.87649C118.035 8.87645 118.035 8.87625 118.168 8.83161C118.302 8.78676 118.302 8.78685 118.302 8.78699L118.302 8.78747L118.303 8.78923L118.305 8.79586C118.307 8.80165 118.31 8.81019 118.313 8.82142C118.32 8.8439 118.331 8.87717 118.344 8.92088C118.372 9.00831 118.41 9.1375 118.457 9.30555C118.552 9.64166 118.68 10.1333 118.816 10.7574C119.087 12.0054 119.389 13.7837 119.513 15.9071Z" fill="#420C0C"/>
<path d="M120.551 18.2756C121.223 18.6101 122.077 18.3157 122.456 17.6181C122.836 16.9205 122.598 16.0839 121.925 15.7494C121.252 15.4149 120.399 15.7093 120.02 16.4069C119.64 17.1045 119.878 17.9411 120.551 18.2756Z" fill="#F7528F"/>
<path d="M118.701 6.82627C118.391 6.67312 118.069 5.75744 117.695 5.87022C117.374 5.9653 117.008 7.12412 116.804 7.49727C116.421 8.19673 116.649 9.03015 117.314 9.35882C117.978 9.68748 118.827 9.38729 119.21 8.68782C119.594 7.98836 119.365 7.15494 118.701 6.82627Z" fill="#F7528F"/>
<path d="M116.507 13.521C117.174 13.8508 118.028 13.5491 118.412 12.847C118.797 12.1449 118.568 11.3083 117.901 10.9784C117.233 10.6485 116.38 10.9503 115.995 11.6524C115.61 12.3545 115.839 13.1911 116.507 13.521Z" fill="#F7528F"/>
<path d="M119.85 13.3398C120.518 13.6697 121.371 13.3679 121.756 12.6657C122.14 11.9636 121.911 11.1269 121.244 10.797C120.576 10.4671 119.723 10.7689 119.338 11.4711C118.953 12.1732 119.183 13.0099 119.85 13.3398Z" fill="#F7528F"/>
<path d="M117.197 18.4653C117.864 18.7952 118.717 18.4934 119.102 17.7912C119.487 17.0891 119.258 16.2524 118.59 15.9225C117.923 15.5926 117.07 15.8944 116.685 16.5966C116.3 17.2987 116.529 18.1354 117.197 18.4653Z" fill="#F7528F"/>
<path d="M116.828 23.2427C117.495 23.5725 118.348 23.2708 118.733 22.5687C119.118 21.8665 118.889 21.0299 118.221 20.7001C117.554 20.3702 116.701 20.672 116.316 21.3741C115.931 22.0762 116.16 22.9128 116.828 23.2427Z" fill="#F7528F"/>
<path d="M120.171 23.0615C120.838 23.3914 121.692 23.0896 122.076 22.3875C122.461 21.6854 122.232 20.8488 121.565 20.5189C120.897 20.189 120.044 20.4908 119.659 21.1929C119.274 21.895 119.503 22.7316 120.171 23.0615Z" fill="#F7528F"/>
<path d="M117.683 25.3781C117.214 24.7977 116.334 24.7428 115.716 25.2553C115.098 25.7678 114.978 26.6538 115.447 27.2341C115.915 27.8145 116.796 27.8694 117.414 27.3569C118.031 26.8444 118.152 25.9584 117.683 25.3781Z" fill="#F7528F"/>
<path d="M120.831 26.5174C120.362 25.9371 119.482 25.8821 118.864 26.3946C118.246 26.9071 118.126 27.793 118.594 28.3733C119.063 28.9536 119.944 29.0086 120.562 28.4961C121.179 27.9836 121.3 27.0977 120.831 26.5174Z" fill="#F7528F"/>
<path d="M116.115 29.6775C115.788 29.0062 114.95 28.772 114.243 29.1544C113.536 29.5367 113.228 30.3909 113.555 31.0622C113.882 31.7334 114.721 31.9676 115.427 31.5853C116.134 31.2029 116.442 30.3488 116.115 29.6775Z" fill="#F7528F"/>
<path d="M118.958 31.4465C118.631 30.7753 117.793 30.5411 117.086 30.9234C116.379 31.3058 116.071 32.1599 116.398 32.8312C116.725 33.5025 117.563 33.7367 118.27 33.3543C118.977 32.9719 119.285 32.1178 118.958 31.4465Z" fill="#F7528F"/>
<path d="M112.786 34.7818C112.497 34.0927 111.675 33.816 110.95 34.1637C110.225 34.5114 109.871 35.352 110.16 36.0411C110.449 36.7302 111.27 37.0069 111.996 36.6592C112.721 36.3114 113.074 35.4709 112.786 34.7818Z" fill="#F7528F"/>
<path d="M115.531 36.6971C115.242 36.008 114.42 35.7312 113.695 36.079C112.97 36.4267 112.616 37.2672 112.905 37.9563C113.194 38.6455 114.016 38.9222 114.741 38.5745C115.466 38.2268 115.82 37.3862 115.531 36.6971Z" fill="#F7528F"/>
<path d="M108.927 39.2832C108.638 38.5941 107.816 38.3174 107.091 38.6651C106.366 39.0128 106.012 39.8533 106.301 40.5423C106.59 41.2314 107.412 41.5082 108.137 41.1605C108.862 40.8128 109.216 39.9723 108.927 39.2832Z" fill="#F7528F"/>
<path d="M111.673 41.1985C111.384 40.5094 110.562 40.2327 109.837 40.5804C109.112 40.9281 108.758 41.7685 109.047 42.4576C109.336 43.1467 110.158 43.4235 110.883 43.0758C111.608 42.7281 111.962 41.8876 111.673 41.1985Z" fill="#F7528F"/>
<path d="M67.4378 92.1894C55.2065 89.1111 44.5683 90.741 29.337 79.0287C21.6309 73.1018 14.9195 70.3053 8.45491 61.9721C1.99036 53.6389 0.802538 48.2036 2.07716 45.2654C3.35178 42.3273 9.42537 39.9391 16.8323 41.6162C24.2393 43.2932 33.1047 52.3996 33.1047 52.3996C33.1047 52.3996 42.9351 62.5108 52.2297 70.0862C61.5243 77.6615 63.5273 77.5068 70.0354 82.8212C76.5434 88.1355 78.2629 91.3434 78.2629 91.3434C78.2629 91.3434 79.6685 95.2662 67.4378 92.1894Z" fill="#075088"/>
<path fill-rule="evenodd" clip-rule="evenodd" d="M16.9498 54.0335C17.0066 53.9803 17.0958 53.9832 17.149 54.04L17.0461 54.1364L16.9433 54.2327C16.8901 54.176 16.893 54.0868 16.9498 54.0335ZM17.0461 54.1364C16.9433 54.2327 16.9434 54.2328 16.9434 54.2329L16.9451 54.2347L16.9503 54.2402C16.9549 54.2451 16.9617 54.2523 16.9708 54.2618C16.9889 54.281 17.0159 54.3094 17.0517 54.3468C17.1234 54.4216 17.2303 54.5324 17.3717 54.6767C17.6545 54.9653 18.0751 55.3879 18.627 55.9244C19.7308 56.9975 21.3601 58.5264 23.4629 60.3515C27.6684 64.0014 33.7689 68.8362 41.3498 73.5762C48.9311 78.3165 57.9006 82.6878 65.0156 86.0087C66.7549 86.8206 68.3819 87.569 69.8512 88.2448C71.3896 88.9524 72.7551 89.5805 73.8952 90.1184C75.0091 90.644 75.9033 91.0814 76.5296 91.4209C76.8431 91.5909 77.0861 91.7345 77.2549 91.8509C77.3395 91.9092 77.4022 91.9586 77.445 91.999C77.4916 92.043 77.5006 92.0637 77.5003 92.0627C77.5246 92.1367 77.6043 92.1769 77.6782 92.1526C77.7522 92.1282 77.7924 92.0486 77.7681 91.9746C77.7454 91.9057 77.6922 91.8447 77.6386 91.7941C77.5811 91.7398 77.5054 91.6812 77.415 91.6189C77.2337 91.4939 76.9804 91.3447 76.6639 91.1731C76.0302 90.8296 75.1298 90.3893 74.0155 89.8635C72.8759 89.3258 71.5077 88.6964 69.9671 87.9878C68.497 87.3116 66.87 86.5632 65.1348 85.7533C58.0212 82.4331 49.065 78.0677 41.4993 73.3372C33.9333 68.6065 27.8446 63.7811 23.6476 60.1386C21.5492 58.3174 19.9239 56.792 18.8235 55.7223C18.2733 55.1874 17.8543 54.7665 17.5731 54.4795C17.4324 54.3359 17.3263 54.2259 17.2553 54.1518C17.2198 54.1148 17.1932 54.0867 17.1754 54.068C17.1665 54.0586 17.1599 54.0516 17.1555 54.0469L17.1505 54.0416L17.1491 54.0401C17.149 54.04 17.149 54.04 17.0461 54.1364Z" fill="#FFFDD9"/>
<path d="M77.1483 93.1187C68.1698 87.6977 59.315 86.4074 50.0516 73.3918C45.3651 66.8058 40.7081 62.951 37.5936 54.7537C34.4791 46.5564 34.8563 41.9478 36.5837 39.9193C38.3112 37.8908 43.7209 37.4703 49.2032 40.6031C54.6854 43.7359 59.5203 53.1332 59.5203 53.1332C59.5203 53.1332 64.8784 63.5633 70.4279 71.8467C75.9773 80.13 77.607 80.4934 81.4903 86.3009C85.3736 92.1085 85.9596 95.0767 85.9596 95.0767C85.9596 95.0767 86.1257 98.5402 77.1483 93.1187Z" fill="#3B72AA"/>
<path fill-rule="evenodd" clip-rule="evenodd" d="M46.2698 50.4837C46.3397 50.4494 46.4241 50.4782 46.4584 50.5481L46.3319 50.6102L46.2054 50.6723C46.1711 50.6024 46.1999 50.518 46.2698 50.4837ZM46.3319 50.6102C46.2054 50.6723 46.2054 50.6724 46.2054 50.6725L46.2063 50.6743L46.2091 50.68C46.2116 50.685 46.2153 50.6924 46.2202 50.7022C46.2299 50.7219 46.2445 50.7511 46.264 50.7896C46.3028 50.8666 46.3609 50.9808 46.4383 51.13C46.593 51.4285 46.8248 51.8669 47.1333 52.428C47.7502 53.5501 48.6741 55.1625 49.9027 57.1255C52.3597 61.0513 56.0357 66.3801 60.9125 71.993C65.7895 77.6061 71.8596 83.263 76.7097 87.6332C77.8955 88.7018 79.0072 89.6923 80.0111 90.5868C81.0622 91.5233 81.9951 92.3545 82.7709 93.0595C83.5288 93.7481 84.133 94.3129 84.548 94.7346C84.7558 94.9457 84.9134 95.1183 85.0185 95.2509C85.0712 95.3174 85.1083 95.3708 85.1317 95.4119C85.1536 95.4504 85.1567 95.4666 85.1571 95.4665C85.1571 95.4665 85.1571 95.4659 85.1571 95.4648C85.1587 95.5426 85.2232 95.6044 85.301 95.6027C85.3788 95.601 85.4406 95.5366 85.4389 95.4588C85.4375 95.3922 85.4074 95.3265 85.3767 95.2725C85.3433 95.2139 85.2965 95.1479 85.2394 95.0758C85.1249 94.9314 84.9591 94.7504 84.7489 94.5369C84.328 94.1092 83.7187 93.5398 82.9605 92.8509C82.185 92.1462 81.2498 91.3129 80.1969 90.3747C79.1924 89.4797 78.0807 88.4892 76.8983 87.4238C72.0495 83.0547 65.9902 77.4074 61.1253 71.8081C56.2601 66.2086 52.5927 60.8922 50.1416 56.976C48.9162 55.0179 47.995 53.4101 47.3803 52.2922C47.0729 51.7332 46.8423 51.2968 46.6885 51.0003C46.6117 50.852 46.554 50.7388 46.5157 50.6627C46.4965 50.6246 46.4821 50.5959 46.4726 50.5767C46.4678 50.5671 46.4642 50.5599 46.4619 50.5551L46.4592 50.5498L46.4584 50.5481C46.4584 50.5481 46.4584 50.5481 46.3319 50.6102Z" fill="#FFFDD9"/>
<path d="M103.816 91.645C116.047 88.5667 126.686 90.1966 141.917 78.4843C149.623 72.5574 156.334 69.7609 162.799 61.4277C169.264 53.0945 170.451 47.6591 169.177 44.721C167.902 41.7829 161.829 39.3947 154.422 41.0717C147.015 42.7488 138.149 51.8552 138.149 51.8552C138.149 51.8552 128.319 61.9664 119.024 69.5418C109.73 77.1171 107.727 76.9623 101.219 82.2767C94.7105 87.5911 92.9911 90.799 92.9911 90.799C92.9911 90.799 91.5854 94.7218 103.816 91.645Z" fill="#075088"/>
<path fill-rule="evenodd" clip-rule="evenodd" d="M154.304 53.4891C154.247 53.4359 154.158 53.4388 154.105 53.4956L154.208 53.5919L154.311 53.6883C154.364 53.6315 154.361 53.5423 154.304 53.4891ZM154.208 53.5919C154.311 53.6883 154.311 53.6884 154.31 53.6885L154.309 53.6903L154.304 53.6958C154.299 53.7006 154.292 53.7079 154.283 53.7174C154.265 53.7365 154.238 53.7649 154.202 53.8024C154.131 53.8772 154.024 53.988 153.882 54.1323C153.599 54.4209 153.179 54.8435 152.627 55.38C151.523 56.453 149.894 57.982 147.791 59.807C143.586 63.457 137.485 68.2917 129.904 73.0318C122.323 77.772 113.353 82.1434 106.238 85.4643C104.499 86.2761 102.872 87.0245 101.403 87.7003C99.8643 88.408 98.4988 89.036 97.3587 89.574C96.2448 90.0996 95.3506 90.537 94.7243 90.8765C94.4108 91.0464 94.1678 91.19 93.999 91.3065C93.9144 91.3648 93.8517 91.4141 93.8089 91.4546C93.7623 91.4986 93.7533 91.5192 93.7536 91.5183C93.7293 91.5922 93.6496 91.6325 93.5757 91.6081C93.5017 91.5838 93.4615 91.5041 93.4858 91.4302C93.5085 91.3612 93.5617 91.3003 93.6153 91.2496C93.6728 91.1954 93.7485 91.1368 93.839 91.0744C94.0202 90.9494 94.2735 90.8002 94.59 90.6287C95.2237 90.2851 96.1241 89.8448 97.2384 89.3191C98.378 88.7813 99.7462 88.152 101.287 87.4434C102.757 86.7672 104.384 86.0188 106.119 85.2089C113.233 81.8886 122.189 77.5233 129.755 72.7928C137.321 68.0621 143.409 63.2367 147.606 59.5941C149.705 57.7729 151.33 56.2476 152.43 55.1779C152.981 54.643 153.4 54.2221 153.681 53.935C153.821 53.7915 153.928 53.6814 153.999 53.6074C154.034 53.5703 154.061 53.5423 154.078 53.5235C154.087 53.5142 154.094 53.5071 154.098 53.5025L154.103 53.4972L154.105 53.4956C154.105 53.4956 154.105 53.4956 154.208 53.5919Z" fill="#FFFDD9"/>
<path d="M94.1056 92.5742C103.084 87.1533 111.939 85.863 121.202 72.8474C125.889 66.2614 130.546 62.4066 133.66 54.2093C136.775 46.012 136.398 41.4033 134.67 39.3748C132.943 37.3464 127.533 36.9259 122.051 40.0587C116.568 43.1915 111.734 52.5888 111.734 52.5888C111.734 52.5888 106.375 63.0189 100.826 71.3022C95.2766 79.5855 93.6469 79.949 89.7636 85.7565C85.8803 91.564 85.2943 94.5323 85.2943 94.5323C85.2943 94.5323 85.1282 97.9957 94.1056 92.5742Z" fill="#3B72AA"/>
<path fill-rule="evenodd" clip-rule="evenodd" d="M124.984 49.939C124.914 49.9047 124.83 49.9336 124.795 50.0034L124.922 50.0655L125.049 50.1276C125.083 50.0577 125.054 49.9733 124.984 49.939ZM124.922 50.0655C125.049 50.1276 125.049 50.1277 125.048 50.1278L125.048 50.1296L125.045 50.1353C125.042 50.1403 125.039 50.1477 125.034 50.1575C125.024 50.1772 125.009 50.2064 124.99 50.2449C124.951 50.3219 124.893 50.4361 124.816 50.5853C124.661 50.8838 124.429 51.3223 124.121 51.8833C123.504 53.0054 122.58 54.6179 121.351 56.5808C118.894 60.5067 115.218 65.8354 110.341 71.4483C105.464 77.0614 99.3943 82.7184 94.5443 87.0886C93.3584 88.1571 92.2467 89.1477 91.2428 90.0421C90.1917 90.9786 89.2588 91.8098 88.483 92.5148C87.7251 93.2034 87.1209 93.7683 86.7059 94.1899C86.4981 94.4011 86.3405 94.5736 86.2354 94.7062C86.1827 94.7727 86.1456 94.8261 86.1222 94.8672C86.1003 94.9057 86.0972 94.9219 86.0968 94.9218C86.0968 94.9218 86.0968 94.9212 86.0968 94.9201C86.0952 94.998 86.0307 95.0597 85.9529 95.058C85.8751 95.0564 85.8133 94.9919 85.815 94.9141C85.8164 94.8475 85.8465 94.7819 85.8772 94.7278C85.9106 94.6692 85.9574 94.6032 86.0145 94.5311C86.129 94.3867 86.2949 94.2058 86.505 93.9922C86.9259 93.5645 87.5352 92.9951 88.2934 92.3062C89.0689 91.6015 90.0041 90.7682 91.057 89.8301C92.0615 88.9351 93.1732 87.9446 94.3556 86.8792C99.2045 82.51 105.264 76.8627 110.129 71.2634C114.994 65.6639 118.661 60.3476 121.112 56.4313C122.338 54.4732 123.259 52.8654 123.874 51.7475C124.181 51.1886 124.412 50.7521 124.565 50.4556C124.642 50.3073 124.7 50.1941 124.738 50.118C124.757 50.08 124.772 50.0512 124.781 50.032C124.786 50.0224 124.79 50.0152 124.792 50.0105L124.795 50.0051L124.795 50.0034C124.796 50.0034 124.795 50.0034 124.922 50.0655Z" fill="#FFFDD9"/>
<path fill-rule="evenodd" clip-rule="evenodd" d="M147.19 19.3082C147.19 19.3082 147.19 19.3082 147.102 19.2765C147.013 19.2449 147.013 19.2448 147.013 19.2448L147.014 19.2437L147.015 19.2405C147.016 19.2377 147.017 19.2336 147.019 19.2284C147.023 19.2181 147.029 19.2032 147.035 19.185C147.049 19.1487 147.068 19.0989 147.091 19.045C147.134 18.9413 147.193 18.8095 147.246 18.737C147.259 18.7187 147.277 18.6972 147.3 18.6815C147.321 18.6665 147.37 18.6424 147.424 18.6705C147.468 18.6935 147.483 18.7373 147.489 18.7596C147.497 18.787 147.501 18.8198 147.502 18.8557C147.508 18.9978 147.482 19.2719 147.405 19.7445C147.1 21.6436 145.972 26.878 142.688 40.2206C139.401 53.5706 134.176 67.7247 129.773 78.5398C127.571 83.9477 125.575 88.5214 124.129 91.7433C123.406 93.3542 122.821 94.6272 122.416 95.4975C122.214 95.9327 122.056 96.2672 121.95 96.4929C121.897 96.6058 121.856 96.6914 121.829 96.7489C121.815 96.7777 121.805 96.7994 121.798 96.8139L121.787 96.8354C121.787 96.8357 121.787 96.8358 121.702 96.7952C121.618 96.7546 121.618 96.7545 121.618 96.7543L121.628 96.7329C121.635 96.7185 121.645 96.6969 121.659 96.6682C121.686 96.6109 121.727 96.5254 121.78 96.4127C121.886 96.1872 122.043 95.8531 122.246 95.4183C122.65 94.5486 123.235 93.2764 123.958 91.6663C125.403 88.4461 127.398 83.8744 129.599 78.4689C134.001 67.6573 139.222 53.5129 142.505 40.1756C145.79 26.8309 146.916 21.6046 147.22 19.7147C147.274 19.3814 147.301 19.1559 147.311 19.0094C147.295 19.0439 147.279 19.0805 147.264 19.1168C147.243 19.1685 147.224 19.2165 147.211 19.2516C147.205 19.2691 147.199 19.2834 147.196 19.2932C147.194 19.2981 147.192 19.3019 147.192 19.3045L147.19 19.3073L147.19 19.3082ZM147.307 18.8071C147.307 18.807 147.308 18.8077 147.308 18.8093C147.308 18.8079 147.307 18.8072 147.307 18.8071Z" fill="#252B05"/>
<path d="M146.989 11.0688C147.818 11.027 147.341 18.0577 147.341 18.0577C147.341 18.0577 151.304 12.1044 152.105 12.7625C152.766 13.3061 147.778 18.9726 147.778 18.9726C147.778 18.9726 154.732 16.8796 154.795 18.125C154.837 18.9558 148.193 19.8473 148.193 19.8473C148.193 19.8473 151.991 23.3561 151.084 23.3667C149.281 23.3878 146.807 19.9169 146.807 19.9169C146.807 19.9169 145.424 25.6078 144.788 25.6398C141.513 25.8048 146.319 19.0471 146.319 19.0471C146.319 19.0471 139.974 19.7029 139.933 18.8739C139.832 16.8754 146.272 18.1118 146.272 18.1118C146.272 18.1118 144.884 11.1749 146.989 11.0688Z" fill="#DD6E42"/>
<path d="M151.841 31.0205C152.15 31.7908 145.346 33.6257 145.346 33.6257C145.346 33.6257 152.264 35.4379 151.902 36.409C151.603 37.2108 144.623 34.336 144.623 34.336C144.623 34.336 148.863 40.2323 147.706 40.6965C146.933 41.0062 143.93 35.0129 143.93 35.0129C143.93 35.0129 141.847 39.7458 141.542 38.8913C140.936 37.1931 143.414 33.7251 143.414 33.7251C143.414 33.7251 137.583 34.2674 137.346 33.6762C136.125 30.633 144.078 32.9807 144.078 32.9807C144.078 32.9807 141.395 27.194 142.165 26.885C144.023 26.14 144.947 32.6321 144.947 32.6321C144.947 32.6321 151.056 29.0641 151.841 31.0205Z" fill="#DD6E42"/>
<path d="M145.759 44.1495C146.384 44.6957 141.155 49.4194 141.155 49.4194C141.155 49.4194 148.142 47.8932 148.26 48.9228C148.358 49.7731 140.833 50.3807 140.833 50.3807C140.833 50.3807 147.288 53.7092 146.468 54.6482C145.92 55.2747 140.524 51.2981 140.524 51.2981C140.524 51.2981 140.816 56.461 140.157 55.838C138.846 54.6001 139.479 50.3851 139.479 50.3851C139.479 50.3851 134.529 53.5157 134.05 53.0966C131.58 50.9393 139.733 49.4204 139.733 49.4204C139.733 49.4204 134.715 45.4825 135.261 44.8574C136.578 43.3504 140.349 48.7152 140.349 48.7152C140.349 48.7152 144.172 42.7627 145.759 44.1495Z" fill="#DD6E42"/>
<path d="M141.521 58.4107C142.147 58.9568 136.917 63.6806 136.917 63.6806C136.917 63.6806 143.904 62.1544 144.023 63.184C144.12 64.0343 136.595 64.6419 136.595 64.6419C136.595 64.6419 143.05 67.9704 142.23 68.9094C141.683 69.5359 136.286 65.5593 136.286 65.5593C136.286 65.5593 136.578 70.7222 135.919 70.0992C134.608 68.8613 135.241 64.6463 135.241 64.6463C135.241 64.6463 130.292 67.7769 129.812 67.3578C127.343 65.2004 135.495 63.6816 135.495 63.6816C135.495 63.6816 130.477 59.7437 131.023 59.1186C132.34 57.6116 136.111 62.9764 136.111 62.9764C136.111 62.9764 139.934 57.0239 141.521 58.4107Z" fill="#DD6E42"/>
<path d="M133.504 75.2157C133.938 75.5955 130.303 78.8794 130.303 78.8794C130.303 78.8794 135.16 77.8182 135.242 78.5342C135.31 79.1253 130.078 79.5481 130.078 79.5481C130.078 79.5481 134.566 81.8612 133.996 82.5137C133.615 82.9492 129.863 80.1847 129.863 80.1847C129.863 80.1847 130.068 83.7736 129.608 83.3416C128.697 82.4808 129.138 79.5506 129.138 79.5506C129.138 79.5506 125.697 81.7268 125.363 81.4356C123.647 79.9358 129.314 78.8799 129.314 78.8799C129.314 78.8799 125.826 76.1423 126.205 75.7078C127.121 74.6602 129.742 78.3897 129.742 78.3897C129.742 78.3897 132.4 74.2516 133.504 75.2157Z" fill="#DD6E42"/>
<path fill-rule="evenodd" clip-rule="evenodd" d="M34.4581 24.0061C34.4581 24.0061 34.4581 24.0061 34.5465 23.9744C34.635 23.9428 34.635 23.9427 34.6349 23.9427L34.6346 23.9417L34.6335 23.9387C34.6326 23.9362 34.6312 23.9325 34.6295 23.9277C34.626 23.9183 34.621 23.9047 34.6147 23.8881C34.6021 23.8549 34.5845 23.8093 34.5641 23.7601C34.5251 23.6656 34.4709 23.5444 34.4216 23.4773C34.4092 23.4604 34.3921 23.4399 34.3705 23.4249C34.3498 23.4104 34.3019 23.3865 34.249 23.4142C34.2057 23.4369 34.1907 23.4798 34.1849 23.5006C34.1776 23.5265 34.1742 23.5571 34.1728 23.5901C34.1673 23.7207 34.1918 23.9716 34.2612 24.4027C34.5403 26.1357 35.5689 30.9116 38.5655 43.0843C41.5639 55.2646 46.3314 68.1783 50.3485 78.0454C52.3572 82.9793 54.1785 87.1522 55.4977 90.0917C56.1574 91.5614 56.6914 92.7228 57.0607 93.5169C57.2453 93.9139 57.3887 94.2191 57.4859 94.4251C57.5345 94.528 57.5716 94.6062 57.5966 94.6587C57.6045 94.6753 57.6112 94.6894 57.6166 94.7008L57.6338 94.7366L57.6342 94.7376C57.6343 94.7378 57.6344 94.7379 57.7191 94.6973C57.8039 94.6568 57.8038 94.6567 57.8037 94.6565L57.8015 94.6518L57.7663 94.578C57.7414 94.5257 57.7044 94.4476 57.6558 94.3448C57.5587 94.1392 57.4155 93.8343 57.2311 93.4376C56.8622 92.6443 56.3284 91.4836 55.6692 90.0147C54.3507 87.0769 52.5303 82.9061 50.5226 77.9746C46.5069 68.1109 41.7432 55.2069 38.748 43.0394C35.7509 30.8645 34.7244 26.0967 34.4468 24.3728C34.4033 24.1027 34.3787 23.9105 34.3675 23.7777C34.3753 23.7955 34.383 23.8137 34.3905 23.8319C34.4099 23.8789 34.4269 23.9226 34.439 23.9546C34.445 23.9705 34.4498 23.9835 34.4531 23.9925L34.4568 24.0027L34.4578 24.0053L34.4581 24.0061ZM34.3667 23.5489C34.3666 23.5488 34.3664 23.5494 34.3659 23.551C34.3665 23.5497 34.3667 23.5489 34.3667 23.5489Z" fill="#252B05"/>
<path d="M34.6504 16.4861C33.8941 16.448 34.3291 22.8623 34.3291 22.8623C34.3291 22.8623 30.7136 17.4309 29.9832 18.0312C29.3801 18.5272 33.9308 23.697 33.9308 23.697C33.9308 23.697 27.586 21.7875 27.5287 22.9236C27.4905 23.6816 33.5521 24.495 33.5521 24.495C33.5521 24.495 30.0866 27.6962 30.9143 27.7059C32.5592 27.7251 34.8163 24.5585 34.8163 24.5585C34.8163 24.5585 36.078 29.7504 36.6584 29.7797C39.6461 29.9302 35.2616 23.7649 35.2616 23.7649C35.2616 23.7649 41.0499 24.3633 41.0881 23.6069C41.1799 21.7836 35.3046 22.9117 35.3046 22.9117C35.3046 22.9117 36.5711 16.5829 34.6504 16.4861Z" fill="#DD6E42"/>
<path d="M30.2249 34.6887C29.943 35.3915 36.1504 37.0655 36.1504 37.0655C36.1504 37.0655 29.8386 38.7188 30.1688 39.6048C30.4418 40.3364 36.8102 37.7136 36.8102 37.7136C36.8102 37.7136 32.9417 43.0929 33.9975 43.5165C34.7019 43.799 37.4418 38.3311 37.4418 38.3311C37.4418 38.3311 39.3424 42.6491 39.6207 41.8695C40.1736 40.3202 37.9128 37.1562 37.9128 37.1562C37.9128 37.1562 43.2329 37.6509 43.4493 37.1116C44.563 34.3352 37.3071 36.4771 37.3071 36.4771C37.3071 36.4771 39.7547 31.1977 39.0519 30.9158C37.3575 30.2361 36.5142 36.1591 36.5142 36.1591C36.5142 36.1591 30.9409 32.9038 30.2249 34.6887Z" fill="#DD6E42"/>
<path d="M35.7701 46.6668C35.1998 47.165 39.9706 51.4747 39.9706 51.4747C39.9706 51.4747 33.5961 50.0823 33.4882 51.0216C33.3992 51.7974 40.2643 52.3517 40.2643 52.3517C40.2643 52.3517 34.3752 55.3884 35.1237 56.2451C35.623 56.8167 40.5466 53.1887 40.5466 53.1887C40.5466 53.1887 40.2797 57.8989 40.8816 57.3306C42.0777 56.2012 41.4997 52.3557 41.4997 52.3557C41.4997 52.3557 46.0154 55.2118 46.453 54.8295C48.7058 52.8613 41.2683 51.4756 41.2683 51.4756C41.2683 51.4756 45.8461 47.8829 45.3478 47.3126C44.1467 45.9378 40.7062 50.8322 40.7062 50.8322C40.7062 50.8322 37.2183 45.4015 35.7701 46.6668Z" fill="#DD6E42"/>
<path d="M39.6377 59.6779C39.0675 60.1761 43.8382 64.4857 43.8382 64.4857C43.8382 64.4857 37.4638 63.0933 37.3558 64.0327C37.2669 64.8084 44.132 65.3628 44.132 65.3628C44.132 65.3628 38.2429 68.3995 38.9913 69.2562C39.4907 69.8277 44.4143 66.1997 44.4143 66.1997C44.4143 66.1997 44.1474 70.91 44.7493 70.3417C45.9454 69.2122 45.3674 65.3668 45.3674 65.3668C45.3674 65.3668 49.8831 68.2229 50.3207 67.8405C52.5735 65.8723 45.136 64.4867 45.136 64.4867C45.136 64.4867 49.7138 60.8939 49.2155 60.3236C48.0144 58.9488 44.5739 63.8433 44.5739 63.8433C44.5739 63.8433 41.086 58.4126 39.6377 59.6779Z" fill="#DD6E42"/>
<path d="M46.9521 75.0096C46.5556 75.356 49.8723 78.3521 49.8723 78.3521C49.8723 78.3521 45.4408 77.3839 45.3659 78.0371C45.3041 78.5764 50.077 78.9621 50.077 78.9621C50.077 78.9621 45.9831 81.0725 46.5032 81.6678C46.8503 82.0651 50.2733 79.5429 50.2733 79.5429C50.2733 79.5429 50.0866 82.8172 50.5059 82.4231C51.3374 81.6378 50.9354 78.9644 50.9354 78.9644C50.9354 78.9644 54.0748 80.9498 54.3788 80.6842C55.9451 79.3158 50.7744 78.3525 50.7744 78.3525C50.7744 78.3525 53.9569 75.8549 53.6106 75.4585C52.7756 74.5027 50.3837 77.9053 50.3837 77.9053C50.3837 77.9053 47.9589 74.13 46.9521 75.0096Z" fill="#DD6E42"/>
<mask id="mask0" mask-type="alpha" maskUnits="userSpaceOnUse" x="18" y="0" width="134" height="133">
<path d="M151.806 66.4146C151.806 103.094 122.071 132.829 85.3912 132.829C48.7114 132.829 18.9766 103.094 18.9766 66.4146C18.9766 29.7348 48.7114 0 85.3912 0C122.071 0 151.806 29.7348 151.806 66.4146Z" fill="#C4C4C4"/>
</mask>
<g mask="url(#mask0)">
<path fill-rule="evenodd" clip-rule="evenodd" d="M57.0679 40.36L57.6259 40.7436V40.4592L58.6681 41.3303V41.0031L58.9745 40.654L59.2498 42.7764L59.6235 43.627L58.8573 44.3747L58.062 43.0303L57.2866 42.255L57.0679 40.36ZM57.1849 40.5545L57.3762 42.2117L58.1368 42.9722L58.8772 44.2239L59.5113 43.6052L59.1583 42.8019L58.9081 40.8721L58.762 41.0385V41.5312L57.7198 40.6602V40.9223L57.1849 40.5545Z" fill="#707070"/>
<path fill-rule="evenodd" clip-rule="evenodd" d="M65.1238 54.2315L65.779 55.0739L64.3789 56.2654L63.1923 56.5028L62.826 56.2363L63.387 55.1142H62.7148L63.9409 54.3853H64.7244L65.1238 54.2315ZM65.0925 54.3443L64.7419 54.4793H63.9667L63.0568 55.0203H63.539L62.9456 56.2072L63.2142 56.4026L64.3366 56.1781L65.6496 55.0606L65.0925 54.3443Z" fill="#707070"/>
<path d="M26.0996 93.3704H134.896C134.896 93.3704 135.047 94.9253 134.473 96.0867C133.9 97.2481 132.605 98.016 132.605 98.016H29.2494C29.2494 98.016 27.7547 97.3211 26.9679 96.1591C26.1812 94.997 26.0996 93.3704 26.0996 93.3704Z" fill="#4F305F"/>
<path d="M120.31 36.1921H40.7734V89.6736H120.31V36.1921Z" fill="#4F305F"/>
<path d="M117.84 39.4832H43.1035V86.5194H117.84V39.4832Z" fill="#BDCFF7"/>
<path d="M54.6895 58.5642L70.0511 60.4698L70.7 86.6582H54.6895V58.5642Z" fill="white"/>
<path d="M49.9165 59.0265L56.9115 57.7293L62.5825 56.6914C62.5825 56.6914 63.7521 66.6031 63.7521 74.0949C63.7521 81.5867 62.5825 86.6583 62.5825 86.6583H51.8082L49.9165 59.0265Z" fill="#5E8386"/>
<path d="M64.2057 56.6914L75.4128 59.4309V70.4127L73.2378 86.7792H62.3929C62.3929 86.7792 61.1049 81.0478 61.8112 75.0419C62.1782 71.9222 63.9888 68.5964 64.206 65.888C64.8042 58.4275 64.2057 56.6914 64.2057 56.6914Z" fill="#5E8386"/>
<path d="M111.077 57.6224L87.9696 43.5299L85.6118 49.1883L110.237 60.9498L111.077 57.6224Z" fill="white"/>
<path d="M109.701 65.6695L92.8005 57.2446L92.1371 58.5455L109.259 66.9782L109.701 65.6695Z" fill="white"/>
<path d="M38.8182 63.1354L38.5506 62.2736L38.2025 55.6487C38.2025 55.6487 37.3595 55.0226 37.0786 55.6487C36.7978 56.2749 37.0786 58.1533 37.0786 58.1533L33.8688 55.0834C33.8688 55.0834 31.9757 54.5006 31.3871 55.7595C30.7984 57.0184 31.0006 57.9547 31.9221 60.122C32.8435 62.2893 35.0729 64.428 35.0729 64.428L37.0796 66.8509L39.9964 64.858L38.8182 63.1354Z" fill="#EEBAA1"/>
<path d="M66.1684 84.6449C65.074 84.5517 63.9718 84.6667 62.92 84.9841C61.245 85.5099 59.9762 86.1031 59.4683 86.7474C58.9604 87.3917 61.1099 87.2296 61.0777 87.5321C61.0455 87.8345 59.9524 88.5501 59.8169 89.432C59.7733 90.0321 59.9638 90.6258 60.3482 91.088C60.3482 91.088 62.7507 91.2743 64.6794 90.2739C66.6082 89.2735 68.0654 87.0864 68.0654 87.0864L66.1684 84.6449Z" fill="#EEBAA1"/>
<path d="M34.9219 65.8997C34.9219 65.8997 35.6147 64.2679 36.8125 63.2194C38.0104 62.1708 39.7135 61.707 39.7135 61.707L45.4044 68.7949C45.4044 68.7949 46.8697 63.7397 48.2537 61.1841C49.6378 58.6285 50.9415 58.5732 50.9415 58.5732C50.9415 58.5732 52.2199 61.9964 52.6442 66.7634C53.0684 71.5303 51.8932 77.5796 51.8932 77.5796C51.8932 77.5796 49.3974 81.223 47.5008 82.0716C45.6043 82.9202 44.3057 80.9735 44.3057 80.9735C44.3057 80.9735 40.5174 76.4981 38.1717 72.7295C35.8259 68.9608 34.9219 65.8997 34.9219 65.8997Z" fill="#5E8386"/>
<path d="M73.6426 58.0791C73.6426 58.0791 76.1952 58.9336 77.9232 61.1508C79.6512 63.3681 80.5541 66.9474 80.5541 66.9474C80.5541 66.9474 83.0113 72.899 83.7025 76.2392C84.3936 79.5795 84.2589 78.9222 83.7025 80.8803C83.146 82.8384 81.1127 84.0699 81.1127 84.0699L68.6511 89.4475C68.6511 89.4475 66.7141 88.2048 65.7545 86.6692C64.7948 85.1336 64.8115 83.3041 64.8115 83.3041C64.8115 83.3041 75.4584 78.5096 76.1001 77.7749C76.7419 77.0403 75.052 74.7386 74.438 70.9566C73.8239 67.1747 73.6426 62.6471 73.6426 62.6471V58.0791Z" fill="#5E8386"/>
<path d="M49.8652 59.2015C49.8652 59.2015 51.8169 57.5251 52.9958 52.7627C54.1748 48.0004 53.8358 44.4329 54.8494 41.9809C55.8629 39.5288 56.0503 37.5153 58.6075 36.3996C61.1648 35.2839 62.2213 34.5309 64.602 34.8385C66.9826 35.1461 68.3649 36.6049 69.6673 37.6974C70.9698 38.79 71.2944 41.6021 71.5899 45.2057C71.8854 48.8092 73.0139 56.882 73.0139 56.882L74.2564 58.7284C74.2564 58.7284 69.9455 62.3865 65.3107 62.9539C60.6759 63.5214 59.8891 62.255 56.0086 61.0913C52.128 59.9276 49.8652 59.2015 49.8652 59.2015Z" fill="#E86856"/>
<path d="M63.1756 40.7622C66.4108 40.7622 69.0333 43.2551 69.0333 47.6822C69.0333 52.1092 67.6316 56.2118 64.3965 56.2118C61.1614 56.2118 57.3179 52.1093 57.3179 47.6823C57.3179 43.2553 59.9405 40.7622 63.1756 40.7622Z" fill="#EEBAA1"/>
<path d="M105.909 74.7032C105.909 74.7032 101.646 73.2769 100.504 73.2939C99.3634 73.3109 101.346 74.7707 101.346 74.7707C101.346 74.7707 98.689 76.0693 97.8539 76.9764C97.0189 77.8835 98.0054 78.399 98.0054 78.399C98.0054 78.399 99.8477 79.5158 101.705 79.4941C103.561 79.4723 105.433 78.3113 105.433 78.3113L108.473 76.58L107.285 74.4947L105.909 74.7032Z" fill="#EEBAA1"/>
<path d="M65.7333 50.6591L64.1021 48.182V50.6591H65.7333Z" fill="#E3A181"/>
<path d="M127.42 106.303C127.42 108.272 108.174 109.868 84.4332 109.868C60.6922 109.868 41.4463 108.272 41.4463 106.303C41.4463 104.335 60.6922 102.739 84.4332 102.739C108.174 102.739 127.42 104.335 127.42 106.303Z" fill="#C4C4C4"/>
<path d="M129.088 45.4523V56.7628H138.723L136.129 38.8365L129.088 45.4523Z" fill="#F7C0A2"/>
<path d="M123.156 87.8751L146.256 88.7395L157.745 161.993L147.368 165.329L134.891 95.7809L136.003 163.352L124.144 163.969L123.156 87.8751Z" fill="#1A2F34"/>
<path d="M128.179 48.4058C128.179 48.4058 129.736 52.1498 132.787 52.1498C135.837 52.1498 140.382 48.4058 140.382 48.4058V91.7647H124.941L126.917 64.0939L128.179 48.4058Z" fill="white"/>
<path d="M129.445 44.3132C128.622 44.3132 128.999 49.1462 129.925 48.6959C130.507 48.4125 134.066 48.051 135.959 46.5045C137.073 45.5938 136.82 44.7473 137.57 44.013C134.644 44.1731 130.103 44.3132 129.445 44.3132Z" fill="#E3A181"/>
<path d="M137.4 47.3602L135.665 71.2012V96.2779C137.942 96.9998 140.315 97.3721 142.704 97.3822C146.595 97.3822 151.23 96.2779 151.23 96.2779L146.042 73.6718L147.153 51.4361C147.153 51.4361 145.084 49.4595 142.83 48.3477C140.576 47.236 137.4 47.3602 137.4 47.3602Z" fill="#375A64"/>
<path d="M122.759 50.6851L126.085 48.4995L129.031 47.549L129.411 66.8389L127.795 96.0113C127.795 96.0113 125.725 97.5 123.919 97.31C122.114 97.12 120.574 95.2511 120.574 95.2511L122.759 74.5045V56.0062V50.6851Z" fill="#375A64"/>
<path d="M128.624 74.2801C128.624 74.2801 124.361 72.8537 123.22 72.8707C122.079 72.8877 124.061 74.3475 124.061 74.3475C124.061 74.3475 121.404 75.6462 120.569 76.5532C119.734 77.4603 120.721 77.9758 120.721 77.9758C120.721 77.9758 122.563 79.0927 124.42 79.0709C126.277 79.0491 128.148 77.8882 128.148 77.8882L131.188 76.1568L130 74.0716L128.624 74.2801Z" fill="#EEBAA1"/>
<path d="M128.18 73.3766L139.963 67.01L143.974 62.4925C143.974 62.4925 143.709 55.0838 144.524 53.0463C145.339 51.0089 147.135 51.3708 147.135 51.3708C147.135 51.3708 148.586 53.768 149.18 58.0442C149.774 62.3204 149.508 64.9787 149.18 67.0099C148.852 69.041 147.513 71.4405 144.524 73.7567C141.535 76.0728 130.65 79.7432 130.65 79.7432C130.65 79.7432 128.797 78.2518 128.18 76.6602C127.562 75.0686 128.18 73.3766 128.18 73.3766Z" fill="#375A64"/>
<path d="M104.703 73.9635L116.486 67.597L122.777 50.67L125.704 67.5971L121.048 74.3438L107.174 80.3304L104.703 73.9635Z" fill="#375A64"/>
<path d="M131.773 26.2417C134.029 26.2417 137.645 26.7622 139.108 28.9255C140.06 30.3248 139.108 33.1013 139.108 35.3232C139.108 40.3388 135.824 46.4562 131.773 46.4562C130.063 46.4562 127.55 46.2303 126.173 44.4205C124.595 42.3527 124.438 38.2222 124.438 35.3232C124.438 30.3075 127.722 26.2417 131.773 26.2417Z" fill="#F7C0A2"/>
<path d="M134.812 33.0056C131.969 31.9076 127.531 33.3262 125.498 32.17C123.466 31.0138 122.611 30.8473 122.427 28.2419C122.242 25.6365 122.515 23.0401 124.765 21.7461C127.016 20.4521 131.348 23.3914 131.348 23.3914C131.348 23.3914 137.324 23.911 138.56 26.3145C139.795 28.7179 140.962 27.8952 141.655 30.9265C142.347 33.9578 141.308 34.0439 141.222 36.5603C141.135 39.0767 141.538 39.0121 140.356 41.3188C139.174 43.6255 136.487 46.1629 135.616 44.9733C134.744 43.7837 136.404 37.4436 136.404 37.4436C136.404 37.4436 137.655 34.1031 134.812 33.0056Z" fill="#1A2F34"/>
<path d="M127.963 39.8744H126.573L127.807 36.7901L127.963 39.8744Z" fill="#E3A181"/>
<path fill-rule="evenodd" clip-rule="evenodd" d="M73.512 68.1275C73.0989 65.6976 73.9466 63.0493 74.4219 62.0278L74.5071 62.0675C74.0359 63.0801 73.196 65.7082 73.6046 68.1117L73.512 68.1275ZM51.4455 65.606C51.1713 64.1734 50.7912 62.8463 50.525 62.0628L50.614 62.0325C50.8815 62.8199 51.2627 64.1511 51.5378 65.5883C51.8127 67.0246 51.9825 68.5712 51.8244 69.7871L51.7313 69.775C51.8874 68.5742 51.7199 67.0395 51.4455 65.606ZM46.0292 69.3966C45.5605 68.859 44.9974 68.4086 44.6226 68.1587L44.6747 68.0805C45.0551 68.3341 45.6248 68.7899 46.1001 69.3348C46.5738 69.878 46.9612 70.5185 46.9612 71.1404H46.8673C46.8673 70.5541 46.4995 69.9358 46.0292 69.3966ZM62.8792 80.9994C61.8373 76.6624 62.8477 73.273 63.4879 72.1146L63.5701 72.1601C62.9415 73.2975 61.934 76.6628 62.9705 80.9775L62.8792 80.9994ZM53.569 76.0906C52.4282 77.7896 50.1044 79.6867 49.0866 80.4224L49.0316 80.3462C50.0478 79.6117 52.36 77.7226 53.491 76.0383L53.569 76.0906ZM75.7416 78.0399C74.9365 78.6114 74.1071 79.2975 73.5894 79.7549L73.5272 79.6845C74.0466 79.2256 74.8787 78.5372 75.6872 77.9633C76.0914 77.6764 76.4907 77.4174 76.8426 77.2299C77.1922 77.0437 77.5028 76.9237 77.7271 76.9237V77.0177C77.5284 77.0177 77.2361 77.1268 76.8868 77.3128C76.5398 77.4977 76.1442 77.7541 75.7416 78.0399ZM64.9397 84.3137C64.8988 84.3426 64.8732 84.3629 64.8612 84.3748L64.7948 84.3084C64.813 84.2901 64.8447 84.2658 64.8855 84.2369C64.9271 84.2075 64.9808 84.1717 65.0451 84.1304C65.1737 84.0476 65.3459 83.9417 65.551 83.8185C65.9612 83.572 66.5043 83.2556 67.0966 82.9151C68.2813 82.234 69.6635 81.456 70.5749 80.9474L70.6207 81.0295C69.7095 81.5379 68.3277 82.3157 67.1435 82.9965C66.5513 83.337 66.0088 83.653 65.5994 83.899C65.3946 84.022 65.2234 84.1274 65.096 84.2094C65.0322 84.2504 64.9798 84.2854 64.9397 84.3137Z" fill="white"/>
<path fill-rule="evenodd" clip-rule="evenodd" d="M60.8487 38.7915C59.7424 39.3831 58.6444 40.2384 57.9716 40.846L57.9086 40.7762C58.5852 40.1653 59.6894 39.3049 60.8044 38.7087C61.3618 38.4106 61.9241 38.1775 62.4385 38.0754C62.9524 37.9735 63.4246 38.0013 63.7953 38.2338L63.7454 38.3134C63.4032 38.0988 62.9589 38.068 62.4568 38.1676C61.9551 38.2671 61.402 38.4957 60.8487 38.7915ZM70.6789 54.9419C70.6815 53.1734 70.4101 51.1949 70.1587 49.9129L70.2509 49.8949C70.503 51.1806 70.7754 53.1655 70.7729 54.942C70.7716 55.83 70.7017 56.6685 70.525 57.3423C70.3488 58.0142 70.0635 58.5333 69.6226 58.7663L69.5787 58.6833C69.9837 58.4692 70.2598 57.9832 70.4341 57.3185C70.6079 56.6558 70.6777 55.8263 70.6789 54.9419ZM57.6761 60.2551C56.1072 59.6748 54.7526 58.8248 53.9839 58.2179L54.0421 58.1442C54.804 58.7456 56.15 59.5904 57.7087 60.167C59.268 60.7438 61.0341 61.0501 62.6395 60.5828L62.6658 60.6731C61.0329 61.1483 59.2444 60.8353 57.6761 60.2551ZM64.7211 69.3195C64.842 68.6668 65.4764 65.3818 65.7784 63.8212L65.8707 63.839C65.5686 65.3999 64.9343 68.6844 64.8135 69.3366L64.7211 69.3195ZM61.6033 66.97C61.2673 66.1529 60.8286 65.2815 60.527 64.7286L60.6095 64.6837C60.9122 65.2385 61.3525 66.1131 61.6902 66.9343C61.859 67.3448 62.0026 67.7431 62.0904 68.0821C62.1343 68.2515 62.1645 68.4072 62.1767 68.5427C62.1889 68.6776 62.1836 68.7961 62.1536 68.8893L62.0642 68.8606C62.0886 68.7846 62.0948 68.6806 62.0831 68.5512C62.0715 68.4225 62.0426 68.2722 61.9994 68.1056C61.9132 67.7726 61.7713 67.3787 61.6033 66.97ZM68.1258 77.9096C66.9317 77.8158 65.8109 77.4943 65.1425 77.2259L65.1775 77.1387C65.8383 77.404 66.9498 77.7229 68.1332 77.8159C69.3175 77.909 70.5661 77.7751 71.5078 77.1433L71.5602 77.2213C70.5928 77.8704 69.3189 78.0033 68.1258 77.9096Z" fill="white"/>
<path fill-rule="evenodd" clip-rule="evenodd" d="M142.746 55.2014C142.838 53.9229 143.153 52.7358 143.417 52.0323L143.505 52.0652C143.244 52.7613 142.931 53.9396 142.84 55.2082C142.748 56.4776 142.88 57.8308 143.501 58.8822L143.42 58.93C142.785 57.8547 142.654 56.479 142.746 55.2014ZM124.783 59.7018C124.529 57.636 124.036 55.3013 123.658 53.7819L123.75 53.7593C124.128 55.2809 124.622 57.6195 124.877 59.6903C125.004 60.7255 125.072 61.6956 125.035 62.4639C125.016 62.848 124.971 63.1835 124.894 63.4523C124.817 63.7202 124.705 63.9278 124.548 64.0486L124.491 63.9741C124.624 63.8713 124.729 63.6863 124.804 63.4263C124.878 63.1672 124.923 62.8397 124.941 62.4594C124.978 61.6989 124.911 60.7349 124.783 59.7018ZM142.054 63.4676V61.1113H142.148V63.4676H142.054ZM139.351 66.8995C138.212 67.6378 137.02 68.5594 136.271 69.1829L136.211 69.1107C136.962 68.4856 138.157 67.5615 139.3 66.8206C139.872 66.4502 140.432 66.1248 140.918 65.9055C141.161 65.7958 141.387 65.7122 141.587 65.6628C141.787 65.6136 141.965 65.5976 142.11 65.6268L142.092 65.7189C141.966 65.6936 141.803 65.7064 141.61 65.7541C141.417 65.8016 141.197 65.8828 140.957 65.9911C140.477 66.2077 139.921 66.5302 139.351 66.8995ZM146.591 71.022C145.036 71.9799 143.03 72.6158 141.658 72.9084L141.638 72.8165C143.005 72.5252 144.999 71.8923 146.541 70.942C147.313 70.4668 147.968 69.9142 148.376 69.2882C148.784 68.6637 148.945 67.9663 148.732 67.1958L148.823 67.1707C149.044 67.971 148.875 68.696 148.455 69.3396C148.036 69.9817 147.368 70.5431 146.591 71.022ZM125.681 67.504C124.735 69.6859 123.146 71.6038 122.469 72.2913L122.402 72.2253C123.074 71.5434 124.655 69.6349 125.594 67.4667L125.681 67.504ZM141.335 75.1711L136.26 77.4066L136.222 77.3206L141.297 75.0851L141.335 75.1711ZM137.734 90.4439V82.6803H137.828V90.4439H137.734Z" fill="white"/>
<path fill-rule="evenodd" clip-rule="evenodd" d="M132.701 56.8189C131.818 56.4949 130.883 55.8937 130.292 55.439L130.349 55.3645C130.936 55.8161 131.863 56.4112 132.733 56.7307C133.169 56.8905 133.586 56.9798 133.939 56.9505C134.289 56.9215 134.573 56.7761 134.751 56.4659L134.832 56.5127C134.636 56.855 134.321 57.0132 133.946 57.0442C133.574 57.075 133.142 56.9808 132.701 56.8189ZM132.275 64.5288C132.397 63.5591 132.601 62.5965 132.752 62.0058L132.843 62.0291C132.693 62.6166 132.489 63.5753 132.369 64.5404C132.248 65.508 132.212 66.4733 132.39 67.0793L132.3 67.1058C132.115 66.4792 132.155 65.4961 132.275 64.5288ZM132.679 89.7324C131.684 89.5334 130.571 89.1334 129.849 88.8255L129.886 88.7391C130.604 89.0455 131.711 89.443 132.697 89.6402C133.191 89.7389 133.651 89.7868 134.016 89.7497C134.383 89.7125 134.639 89.5912 134.749 89.3659L134.834 89.4071C134.702 89.6772 134.402 89.8049 134.026 89.8432C133.647 89.8817 133.176 89.8318 132.679 89.7324Z" fill="black"/>
</g>
</svg>
