<svg width="182" height="133" viewBox="0 0 182 133" fill="none" xmlns="http://www.w3.org/2000/svg">
<path fill-rule="evenodd" clip-rule="evenodd" d="M181.622 61.804L181.433 61.8006C181.438 61.4864 181.441 61.1715 181.441 60.856C181.441 60.5404 181.438 60.2255 181.433 59.9114L181.622 59.9079C181.627 60.2232 181.63 60.5393 181.63 60.856C181.63 61.1727 181.627 61.4887 181.622 61.804ZM181.553 58.0223C181.519 57.3907 181.473 56.7623 181.416 56.1371L181.228 56.1542C181.285 56.7771 181.33 57.4033 181.365 58.0325L181.553 58.0223ZM181.21 54.2582L181.023 54.2822C180.943 53.6581 180.851 53.0375 180.749 52.4207L180.935 52.3897C181.038 53.0088 181.13 53.6317 181.21 54.2582ZM180.592 50.5338L180.407 50.5716C180.281 49.9548 180.144 49.342 179.996 48.7336L180.179 48.6889C180.328 49.2996 180.465 49.9146 180.592 50.5338ZM179.699 46.8613L179.517 46.9128C179.346 46.3078 179.164 45.7075 178.971 45.112L179.151 45.0538C179.344 45.6515 179.527 46.2541 179.699 46.8613ZM178.536 43.2685L178.359 43.3334C178.143 42.7427 177.917 42.1572 177.68 41.5771L177.855 41.5057C178.093 42.088 178.32 42.6756 178.536 43.2685ZM177.109 39.7697L176.937 39.8476C176.678 39.275 176.409 38.7082 176.13 38.1474L176.299 38.0632C176.579 38.6261 176.849 39.195 177.109 39.7697ZM175.426 36.3882C175.125 35.8346 174.813 35.2872 174.492 34.7464L174.329 34.8429C174.649 35.3817 174.96 35.9271 175.26 36.4787L175.426 36.3882ZM173.497 33.14L173.338 33.2425C172.997 32.7149 172.647 32.1941 172.288 31.6804L172.443 31.572C172.804 32.0877 173.155 32.6104 173.497 33.14ZM171.332 30.0444L171.181 30.1584C170.803 29.6576 170.415 29.1643 170.019 28.6785L170.165 28.559C170.563 29.0465 170.952 29.5418 171.332 30.0444ZM168.943 27.1175C168.527 26.6445 168.103 26.1794 167.669 25.7225L167.532 25.8525C167.964 26.3077 168.387 26.7711 168.802 27.2423L168.943 27.1175ZM166.345 24.3758L166.212 24.5109C165.764 24.0718 165.308 23.6412 164.843 23.2192L164.971 23.0793C165.437 23.5029 165.895 23.9351 166.345 24.3758ZM163.549 21.8348L163.427 21.9794C162.948 21.575 162.46 21.1796 161.966 20.7933L162.082 20.6443C162.579 21.0321 163.068 21.429 163.549 21.8348ZM160.572 19.5095L160.461 19.6628C159.953 19.2955 159.438 18.9376 158.915 18.5893L159.02 18.432C159.544 18.7816 160.062 19.1409 160.572 19.5095ZM157.429 17.4134L157.33 17.5746C156.796 17.2467 156.255 16.9286 155.708 16.6206L155.801 16.4559C156.35 16.7651 156.893 17.0843 157.429 17.4134ZM154.137 15.5606C153.578 15.2729 153.013 14.9955 152.441 14.7287L152.361 14.9C152.93 15.1658 153.494 15.4421 154.051 15.7287L154.137 15.5606ZM150.714 13.9617L150.641 14.1359C150.064 13.8926 149.481 13.6599 148.893 13.438L148.96 13.2612C149.55 13.4839 150.135 13.7174 150.714 13.9617ZM147.181 12.6283L147.121 12.8076C146.527 12.6091 145.928 12.4215 145.325 12.2451L145.378 12.0637C145.984 12.2407 146.585 12.429 147.181 12.6283ZM143.554 11.5681L143.508 11.7514C142.901 11.5989 142.29 11.4575 141.674 11.3276L141.713 11.1426C142.331 11.273 142.945 11.4149 143.554 11.5681ZM139.859 10.7881L139.827 10.9744C139.211 10.8687 138.591 10.7744 137.967 10.6916L137.992 10.5042C138.618 10.5873 139.24 10.6819 139.859 10.7881ZM136.113 10.2914L136.096 10.4796C135.473 10.421 134.847 10.3739 134.218 10.3385L134.229 10.1498C134.86 10.1852 135.489 10.2325 136.113 10.2914ZM132.343 10.0792L132.34 10.2682C132.026 10.2623 131.711 10.2594 131.395 10.2594C131.08 10.2594 130.765 10.2623 130.451 10.2682L130.447 10.0792C130.762 10.0733 131.078 10.0703 131.395 10.0703C131.712 10.0703 132.028 10.0733 132.343 10.0792ZM128.561 10.1498L128.572 10.3385C127.943 10.3739 127.317 10.421 126.695 10.4796L126.677 10.2914C127.302 10.2325 127.93 10.1852 128.561 10.1498ZM124.799 10.5042L124.824 10.6916C124.2 10.7744 123.58 10.8687 122.963 10.9744L122.931 10.7881C123.55 10.6819 124.173 10.5873 124.799 10.5042ZM121.077 11.1426L121.116 11.3276C120.501 11.4575 119.889 11.5988 119.282 11.7514L119.236 11.5681C119.845 11.4149 120.459 11.273 121.077 11.1426ZM117.412 12.0636L117.465 12.2451C116.862 12.4215 116.263 12.6091 115.67 12.8076L115.61 12.6283C116.206 12.429 116.807 12.2407 117.412 12.0636ZM113.831 13.2612L113.897 13.438C113.309 13.6599 112.727 13.8926 112.15 14.1359L112.076 13.9617C112.656 13.7174 113.24 13.4838 113.831 13.2612ZM110.349 14.7287L110.429 14.9C109.86 15.1658 109.297 15.4421 108.739 15.7287L108.653 15.5605C109.212 15.2729 109.778 14.9955 110.349 14.7287ZM106.99 16.4559L107.082 16.6206C106.535 16.9286 105.995 17.2467 105.461 17.5746L105.362 17.4134C105.898 17.0843 106.441 16.7651 106.99 16.4559ZM103.77 18.432L103.875 18.5893C103.353 18.9376 102.837 19.2955 102.329 19.6628L102.218 19.5095C102.729 19.1409 103.246 18.7816 103.77 18.432ZM100.708 20.6443L100.824 20.7933C100.33 21.1796 99.8427 21.575 99.3631 21.9794L99.2413 21.8348C99.7226 21.429 100.212 21.0321 100.708 20.6443ZM97.8198 23.0793L97.947 23.2192C97.4827 23.6412 97.0264 24.0718 96.5781 24.5109L96.4458 24.3758C96.8958 23.9351 97.3539 23.5029 97.8198 23.0793ZM95.1209 25.7224L95.2581 25.8525C94.8266 26.3077 94.4034 26.7711 93.9888 27.2423L93.8469 27.1175C94.263 26.6445 94.6878 26.1794 95.1209 25.7224ZM92.6254 28.559L92.7718 28.6785C92.3754 29.1642 91.9878 29.6576 91.6093 30.1584L91.4585 30.0443C91.8385 29.5417 92.2275 29.0465 92.6254 28.559ZM90.3474 31.572L90.5024 31.6804C90.1431 32.1941 89.7931 32.7149 89.4525 33.2425L89.2937 33.14C89.6355 32.6104 89.9868 32.0877 90.3474 31.572ZM88.2986 34.7464L88.4612 34.8429C88.1411 35.3817 87.8307 35.9271 87.5301 36.4787L87.3641 36.3882C87.6658 35.8345 87.9774 35.2872 88.2986 34.7464ZM86.4914 38.0631L86.6607 38.1474C86.3816 38.7082 86.1125 39.275 85.8537 39.8476L85.6814 39.7697C85.9412 39.195 86.2113 38.6261 86.4914 38.0631ZM84.9352 41.5057L85.1103 41.5771C84.8736 42.1572 84.6474 42.7427 84.4317 43.3334L84.2541 43.2685C84.4706 42.6756 84.6977 42.088 84.9352 41.5057ZM83.6396 45.0538L83.8194 45.112C83.6267 45.7075 83.4447 46.3078 83.2735 46.9128L83.0916 46.8613C83.2634 46.2541 83.4462 45.6515 83.6396 45.0538ZM82.611 48.6889L82.7947 48.7336C82.6467 49.342 82.5097 49.9548 82.3837 50.5716L82.1985 50.5338C82.3249 49.9146 82.4625 49.2996 82.611 48.6889ZM81.8551 52.3897L82.0415 52.4207C81.9392 53.0375 81.8478 53.658 81.7677 54.2822L81.5802 54.2581C81.6606 53.6317 81.7523 53.0088 81.8551 52.3897ZM81.3741 56.1371L81.5624 56.1542C81.5056 56.7771 81.46 57.4033 81.4258 58.0325L81.237 58.0223C81.2714 57.3907 81.3172 56.7622 81.3741 56.1371ZM81.1687 59.9079C81.163 60.2232 81.1602 60.5393 81.1602 60.856C81.1602 61.1727 81.163 61.4887 81.1687 61.804L81.3577 61.8006C81.3521 61.4864 81.3492 61.1715 81.3492 60.856C81.3492 60.5404 81.3521 60.2255 81.3577 59.9113L81.1687 59.9079ZM81.237 63.6897L81.4258 63.6794C81.46 64.3086 81.5056 64.9348 81.5624 65.5577L81.3741 65.5749C81.3172 64.9497 81.2714 64.3212 81.237 63.6897ZM81.5802 67.4538L81.7677 67.4297C81.8478 68.0539 81.9392 68.6745 82.0415 69.2913L81.8551 69.3222C81.7523 68.7031 81.6606 68.0803 81.5802 67.4538ZM82.1985 71.1781L82.3837 71.1403C82.5097 71.7572 82.6467 72.3699 82.7947 72.9784L82.611 73.023C82.4625 72.4123 82.3249 71.7973 82.1985 71.1781ZM83.0916 74.8506L83.2735 74.7991C83.4447 75.4041 83.6267 76.0044 83.8194 76.5999L83.6395 76.6581C83.4462 76.0604 83.2634 75.4578 83.0916 74.8506ZM84.2541 78.4434L84.4317 78.3786C84.6474 78.9693 84.8736 79.5547 85.1103 80.1348L84.9352 80.2062C84.6977 79.624 84.4706 79.0363 84.2541 78.4434ZM85.6814 81.9423C85.9412 82.5169 86.2113 83.0859 86.4914 83.6488L86.6607 83.5646C86.3816 83.0037 86.1125 82.4369 85.8537 81.8644L85.6814 81.9423ZM87.3641 85.3237C87.6658 85.8774 87.9774 86.4248 88.2986 86.9656L88.4612 86.869C88.1411 86.3302 87.8307 85.7849 87.5301 85.2333L87.3641 85.3237ZM89.2937 88.5719L89.4525 88.4694C89.7931 88.997 90.1431 89.5178 90.5024 90.0316L90.3474 90.1399C89.9868 89.6243 89.6355 89.1015 89.2937 88.5719ZM91.4585 91.6676L91.6093 91.5536C91.9878 92.0543 92.3754 92.5477 92.7718 93.0335L92.6254 93.153C92.2275 92.6654 91.8384 92.1702 91.4585 91.6676ZM93.8469 94.5945L93.9888 94.4696C94.4034 94.9409 94.8266 95.4042 95.2581 95.8594L95.1209 95.9895C94.6878 95.5326 94.263 95.0675 93.8469 94.5945ZM96.4458 97.3361L96.5781 97.2011C97.0264 97.6401 97.4827 98.0708 97.947 98.4927L97.8198 98.6326C97.3539 98.2091 96.8958 97.7768 96.4458 97.3361ZM99.2413 99.8771L99.3631 99.7326C99.8427 100.137 100.33 100.532 100.824 100.919L100.708 101.068C100.212 100.68 99.7226 100.283 99.2413 99.8771ZM102.218 102.202L102.329 102.049C102.837 102.416 103.353 102.774 103.875 103.123L103.77 103.28C103.246 102.93 102.729 102.571 102.218 102.202ZM105.362 104.299L105.461 104.137C105.995 104.465 106.535 104.783 107.082 105.091L106.99 105.256C106.441 104.947 105.898 104.628 105.362 104.299ZM108.653 106.151L108.739 105.983C109.297 106.27 109.86 106.546 110.429 106.812L110.349 106.983C109.778 106.716 109.212 106.439 108.653 106.151ZM112.076 107.75L112.15 107.576C112.727 107.819 113.309 108.052 113.897 108.274L113.831 108.451C113.24 108.228 112.655 107.995 112.076 107.75ZM115.61 109.084L115.67 108.904C116.263 109.103 116.862 109.29 117.465 109.467L117.412 109.648C116.807 109.471 116.206 109.283 115.61 109.084ZM119.236 110.144L119.282 109.961C119.889 110.113 120.501 110.254 121.116 110.384L121.077 110.569C120.459 110.439 119.845 110.297 119.236 110.144ZM122.931 110.924L122.963 110.738C123.58 110.843 124.2 110.938 124.824 111.02L124.799 111.208C124.173 111.125 123.55 111.03 122.931 110.924ZM126.677 111.421L126.695 111.232C127.317 111.291 127.943 111.338 128.572 111.373L128.561 111.562C127.93 111.527 127.302 111.479 126.677 111.421ZM130.447 111.633L130.451 111.444C130.765 111.45 131.08 111.453 131.395 111.453C131.711 111.453 132.026 111.45 132.34 111.444L132.343 111.633C132.028 111.639 131.712 111.642 131.395 111.642C131.078 111.642 130.762 111.639 130.447 111.633ZM134.229 111.562L134.218 111.373C134.847 111.338 135.473 111.291 136.096 111.232L136.113 111.421C135.489 111.479 134.86 111.527 134.229 111.562ZM137.992 111.208L137.967 111.02C138.591 110.938 139.211 110.843 139.827 110.738L139.859 110.924C139.24 111.03 138.618 111.125 137.992 111.208ZM141.713 110.569L141.674 110.384C142.29 110.254 142.901 110.113 143.508 109.961L143.554 110.144C142.945 110.297 142.331 110.439 141.713 110.569ZM145.378 109.648L145.325 109.467C145.928 109.29 146.527 109.103 147.121 108.904L147.181 109.084C146.585 109.283 145.984 109.471 145.378 109.648ZM148.96 108.451L148.893 108.274C149.481 108.052 150.064 107.819 150.641 107.576L150.714 107.75C150.135 107.995 149.55 108.228 148.96 108.451ZM152.441 106.983L152.361 106.812C152.93 106.546 153.494 106.27 154.051 105.983L154.137 106.151C153.578 106.439 153.013 106.716 152.441 106.983ZM155.801 105.256L155.708 105.091C156.255 104.783 156.796 104.465 157.33 104.137L157.429 104.299C156.893 104.628 156.35 104.947 155.801 105.256ZM159.02 103.28L158.915 103.123C159.438 102.774 159.953 102.416 160.461 102.049L160.572 102.202C160.062 102.571 159.544 102.93 159.02 103.28ZM162.082 101.068L161.966 100.919C162.46 100.532 162.948 100.137 163.427 99.7326L163.549 99.8771C163.068 100.283 162.579 100.68 162.082 101.068ZM164.971 98.6326L164.843 98.4927C165.308 98.0708 165.764 97.6401 166.212 97.2011L166.345 97.3362C165.895 97.7768 165.437 98.2091 164.971 98.6326ZM167.669 95.9895L167.532 95.8595C167.964 95.4042 168.387 94.9409 168.802 94.4696L168.943 94.5945C168.527 95.0675 168.103 95.5326 167.669 95.9895ZM170.165 93.153L170.019 93.0335C170.415 92.5477 170.803 92.0543 171.181 91.5536L171.332 91.6676C170.952 92.1702 170.563 92.6654 170.165 93.153ZM172.443 90.1399L172.288 90.0316C172.647 89.5179 172.997 88.997 173.338 88.4694L173.497 88.5719C173.155 89.1015 172.804 89.6243 172.443 90.1399ZM174.492 86.9656L174.329 86.869C174.649 86.3302 174.96 85.7849 175.26 85.2333L175.426 85.3237C175.125 85.8774 174.813 86.4248 174.492 86.9656ZM176.299 83.6488L176.13 83.5646C176.409 83.0037 176.678 82.4369 176.937 81.8644L177.109 81.9423C176.849 82.5169 176.579 83.0859 176.299 83.6488ZM177.855 80.2062L177.68 80.1348C177.917 79.5547 178.143 78.9693 178.359 78.3786L178.536 78.4434C178.32 79.0363 178.093 79.624 177.855 80.2062ZM179.151 76.6581L178.971 76.5999C179.164 76.0045 179.346 75.4041 179.517 74.7991L179.699 74.8506C179.527 75.4579 179.344 76.0604 179.151 76.6581ZM180.179 73.023L179.996 72.9784C180.144 72.3699 180.281 71.7572 180.407 71.1403L180.592 71.1782C180.465 71.7973 180.328 72.4123 180.179 73.023ZM180.935 69.3222L180.749 69.2913C180.851 68.6745 180.943 68.0539 181.023 67.4297L181.21 67.4538C181.13 68.0803 181.038 68.7032 180.935 69.3222ZM181.416 65.5749L181.228 65.5577C181.285 64.9348 181.33 64.3087 181.365 63.6794L181.553 63.6897C181.519 64.3212 181.473 64.9497 181.416 65.5749Z" fill="#FF743C"/>
<path fill-rule="evenodd" clip-rule="evenodd" d="M107.551 83.0671L107.362 83.0637C107.368 82.7495 107.371 82.4346 107.371 82.1191C107.371 81.8035 107.368 81.4886 107.362 81.1744L107.551 81.171C107.557 81.4863 107.56 81.8024 107.56 82.1191C107.56 82.4358 107.557 82.7518 107.551 83.0671ZM107.483 79.2854C107.449 78.6538 107.403 78.0254 107.346 77.4002L107.158 77.4173C107.214 78.0402 107.26 78.6664 107.294 79.2956L107.483 79.2854ZM107.14 75.5212L106.952 75.5453C106.872 74.9212 106.781 74.3006 106.679 73.6838L106.865 73.6528C106.968 74.2719 107.059 74.8948 107.14 75.5212ZM106.522 71.7969L106.336 71.8347C106.21 71.2179 106.073 70.6051 105.925 69.9967L106.109 69.952C106.258 70.5627 106.395 71.1777 106.522 71.7969ZM105.628 68.1244L105.447 68.1759C105.275 67.5709 105.093 66.9706 104.901 66.3751L105.08 66.3169C105.274 66.9146 105.457 67.5172 105.628 68.1244ZM104.466 64.5316L104.288 64.5965C104.073 64.0058 103.846 63.4203 103.61 62.8402L103.785 62.7688C104.022 63.3511 104.249 63.9387 104.466 64.5316ZM103.039 61.0328L102.866 61.1107C102.608 60.5381 102.338 59.9713 102.059 59.4105L102.229 59.3262C102.509 59.8892 102.779 60.4581 103.039 61.0328ZM101.356 57.6513C101.054 57.0976 100.743 56.5503 100.421 56.0095L100.259 56.106C100.579 56.6448 100.889 57.1902 101.19 57.7418L101.356 57.6513ZM99.4264 54.4031L99.2675 54.5056C98.927 53.978 98.577 53.4572 98.2177 52.9435L98.3726 52.8351C98.7332 53.3508 99.0845 53.8735 99.4264 54.4031ZM97.2616 51.3074L97.1108 51.4214C96.7322 50.9207 96.3446 50.4273 95.9482 49.9416L96.0947 49.8221C96.4926 50.3096 96.8816 50.8048 97.2616 51.3074ZM94.8732 48.3806C94.457 47.9075 94.0323 47.4425 93.5991 46.9855L93.4619 47.1156C93.8934 47.5708 94.3166 48.0342 94.7312 48.5054L94.8732 48.3806ZM92.2743 45.6389L92.142 45.774C91.6937 45.3349 91.2373 44.9043 90.7731 44.4823L90.9002 44.3424C91.3662 44.766 91.8243 45.1982 92.2743 45.6389ZM89.4788 43.0979L89.3569 43.2425C88.8774 42.8381 88.3902 42.4427 87.8956 42.0564L88.012 41.9074C88.5084 42.2952 88.9974 42.6921 89.4788 43.0979ZM86.5018 40.7726L86.3911 40.9259C85.8827 40.5586 85.3673 40.2007 84.8451 39.8524L84.9499 39.6951C85.4742 40.0447 85.9915 40.404 86.5018 40.7726ZM83.3584 38.6765L83.2596 38.8376C82.7254 38.5098 82.1846 38.1917 81.6376 37.8837L81.7303 37.719C82.2794 38.0282 82.8222 38.3474 83.3584 38.6765ZM80.0671 36.8236C79.5077 36.536 78.9423 36.2586 78.371 35.9918L78.291 36.1631C78.8601 36.4289 79.4234 36.7052 79.9807 36.9918L80.0671 36.8236ZM76.644 35.2248L76.5705 35.399C75.9933 35.1557 75.4107 34.923 74.8228 34.7011L74.8895 34.5243C75.4797 34.7469 76.0646 34.9805 76.644 35.2248ZM73.1103 33.8914L73.0504 34.0707C72.4566 33.8722 71.858 33.6846 71.2547 33.5082L71.3077 33.3267C71.9134 33.5038 72.5143 33.6921 73.1103 33.8914ZM69.484 32.8312L69.4379 33.0145C68.8308 32.8619 68.2194 32.7206 67.6037 32.5907L67.6428 32.4057C68.2608 32.5361 68.8746 32.678 69.484 32.8312ZM65.7886 32.0512L65.7567 32.2375C65.1404 32.1318 64.5203 32.0374 63.8965 31.9547L63.9214 31.7673C64.5475 31.8504 65.17 31.945 65.7886 32.0512ZM62.0432 31.5545L62.0254 31.7427C61.4029 31.6841 60.777 31.637 60.148 31.6016L60.1586 31.4128C60.79 31.4483 61.4182 31.4956 62.0432 31.5545ZM58.2729 31.3423L58.2694 31.5313C57.9552 31.5254 57.6404 31.5224 57.3249 31.5224C57.0094 31.5224 56.6945 31.5254 56.3804 31.5313L56.3769 31.3423C56.6922 31.3364 57.0082 31.3334 57.3249 31.3334C57.6416 31.3334 57.9576 31.3364 58.2729 31.3423ZM54.4912 31.4128L54.5018 31.6016C53.8728 31.637 53.2469 31.6841 52.6243 31.7427L52.6066 31.5545C53.2315 31.4956 53.8598 31.4483 54.4912 31.4128ZM50.7284 31.7673L50.7532 31.9547C50.1295 32.0374 49.5094 32.1318 48.8931 32.2375L48.8611 32.0512C49.4798 31.945 50.1023 31.8504 50.7284 31.7673ZM47.007 32.4057L47.046 32.5906C46.4304 32.7206 45.8189 32.8619 45.2118 33.0145L45.1658 32.8312C45.7752 32.678 46.389 32.5361 47.007 32.4057ZM43.342 33.3267L43.3951 33.5082C42.7918 33.6846 42.1931 33.8722 41.5994 34.0707L41.5395 33.8914C42.1355 33.6921 42.7364 33.5038 43.342 33.3267ZM39.7603 34.5242L39.827 34.7011C39.2391 34.923 38.6564 35.1557 38.0792 35.399L38.0058 35.2248C38.5852 34.9805 39.1701 34.7469 39.7603 34.5242ZM36.2788 35.9918L36.3588 36.1631C35.7897 36.4289 35.2264 36.7052 34.669 36.9918L34.5826 36.8236C35.142 36.536 35.7075 36.2586 36.2788 35.9918ZM32.9194 37.719L33.0122 37.8837C32.4651 38.1917 31.9244 38.5098 31.3902 38.8376L31.2913 38.6765C31.8275 38.3474 32.3703 38.0281 32.9194 37.719ZM29.6998 39.6951L29.8047 39.8524C29.2824 40.2007 28.767 40.5586 28.2587 40.9258L28.148 40.7726C28.6582 40.404 29.1756 40.0447 29.6998 39.6951ZM26.6377 41.9074L26.7541 42.0564C26.2596 42.4427 25.7724 42.8381 25.2928 43.2425L25.171 43.0979C25.6523 42.6921 26.1413 42.2952 26.6377 41.9074ZM23.7495 44.3424L23.8767 44.4823C23.4124 44.9043 22.956 45.3349 22.5077 45.774L22.3755 45.6389C22.8254 45.1982 23.2835 44.766 23.7495 44.3424ZM21.0506 46.9855L21.1878 47.1156C20.7563 47.5708 20.3331 48.0342 19.9185 48.5054L19.7766 48.3805C20.1927 47.9075 20.6175 47.4425 21.0506 46.9855ZM18.5551 49.8221L18.7015 49.9416C18.3051 50.4273 17.9175 50.9207 17.539 51.4214L17.3882 51.3074C17.7681 50.8048 18.1572 50.3096 18.5551 49.8221ZM16.2771 52.8351L16.432 52.9434C16.0728 53.4572 15.7228 53.978 15.3822 54.5056L15.2234 54.4031C15.5652 53.8735 15.9165 53.3508 16.2771 52.8351ZM14.2283 56.0095L14.3909 56.106C14.0708 56.6448 13.7603 57.1901 13.4598 57.7418L13.2938 57.6513C13.5955 57.0976 13.9071 56.5503 14.2283 56.0095ZM12.4211 59.3262L12.5904 59.4105C12.3113 59.9713 12.0422 60.5381 11.7834 61.1106L11.6111 61.0328C11.8709 60.4581 12.141 59.8892 12.4211 59.3262ZM10.8649 62.7688L11.04 62.8402C10.8033 63.4203 10.5771 64.0058 10.3614 64.5965L10.1838 64.5316C10.4003 63.9387 10.6274 63.3511 10.8649 62.7688ZM9.56924 66.3169L9.7491 66.3751C9.55644 66.9706 9.3744 67.5709 9.20323 68.1759L9.02132 68.1244C9.19314 67.5172 9.37585 66.9146 9.56924 66.3169ZM8.54072 69.952L8.72441 69.9967C8.57644 70.6051 8.43935 71.2179 8.31337 71.8347L8.12815 71.7969C8.2546 71.1777 8.39219 70.5627 8.54072 69.952ZM7.78474 73.6528L7.97124 73.6838C7.86885 74.3006 7.77751 74.9211 7.69742 75.5453L7.50991 75.5212C7.5903 74.8948 7.68198 74.2719 7.78474 73.6528ZM7.30383 77.4001L7.4921 77.4173C7.43533 78.0402 7.38972 78.6664 7.35549 79.2956L7.16672 79.2853C7.20108 78.6538 7.24685 78.0253 7.30383 77.4001ZM7.09842 81.171C7.09271 81.4863 7.08984 81.8024 7.08984 82.1191C7.08984 82.4358 7.09271 82.7518 7.09842 83.0671L7.28743 83.0637C7.28175 82.7495 7.27889 82.4346 7.27889 82.1191C7.27889 81.8035 7.28175 81.4886 7.28744 81.1744L7.09842 81.171ZM7.16672 84.9528L7.35549 84.9425C7.38972 85.5717 7.43532 86.1979 7.49209 86.8208L7.30383 86.838C7.24685 86.2128 7.20108 85.5843 7.16672 84.9528ZM7.50991 88.7169L7.69741 88.6928C7.77751 89.317 7.86885 89.9376 7.97123 90.5544L7.78474 90.5853C7.68198 89.9662 7.5903 89.3434 7.50991 88.7169ZM8.12815 92.4412L8.31337 92.4034C8.43935 93.0203 8.57643 93.633 8.7244 94.2414L8.54071 94.2861C8.39219 93.6754 8.25459 93.0604 8.12815 92.4412ZM9.02132 96.1137L9.20322 96.0622C9.3744 96.6672 9.55643 97.2675 9.7491 97.863L9.56924 97.9212C9.37585 97.3235 9.19313 96.7209 9.02132 96.1137ZM10.1838 99.7065L10.3614 99.6417C10.577 100.232 10.8033 100.818 11.04 101.398L10.8649 101.469C10.6274 100.887 10.4003 100.299 10.1838 99.7065ZM11.6111 103.205C11.8709 103.78 12.141 104.349 12.4211 104.912L12.5904 104.828C12.3113 104.267 12.0422 103.7 11.7834 103.127L11.6111 103.205ZM13.2938 106.587C13.5955 107.14 13.9071 107.688 14.2283 108.229L14.3909 108.132C14.0708 107.593 13.7603 107.048 13.4598 106.496L13.2938 106.587ZM15.2234 109.835L15.3822 109.732C15.7228 110.26 16.0728 110.781 16.432 111.295L16.2771 111.403C15.9165 110.887 15.5652 110.365 15.2234 109.835ZM17.3882 112.931L17.539 112.817C17.9175 113.317 18.3051 113.811 18.7015 114.297L18.555 114.416C18.1572 113.928 17.7681 113.433 17.3882 112.931ZM19.7766 115.858L19.9185 115.733C20.3331 116.204 20.7563 116.667 21.1878 117.123L21.0506 117.253C20.6175 116.796 20.1927 116.331 19.7766 115.858ZM22.3755 118.599L22.5077 118.464C22.956 118.903 23.4124 119.334 23.8767 119.756L23.7495 119.896C23.2835 119.472 22.8254 119.04 22.3755 118.599ZM25.1709 121.14L25.2928 120.996C25.7724 121.4 26.2596 121.795 26.7541 122.182L26.6377 122.331C26.1413 121.943 25.6523 121.546 25.1709 121.14ZM28.148 123.466L28.2587 123.312C28.767 123.68 29.2824 124.037 29.8047 124.386L29.6998 124.543C29.1756 124.193 28.6582 123.834 28.148 123.466ZM31.2913 125.562L31.3902 125.4C31.9244 125.728 32.4651 126.046 33.0122 126.354L32.9194 126.519C32.3703 126.21 31.8275 125.891 31.2913 125.562ZM34.5826 127.414L34.669 127.246C35.2263 127.533 35.7897 127.809 36.3588 128.075L36.2788 128.246C35.7075 127.979 35.142 127.702 34.5826 127.414ZM38.0058 129.013L38.0792 128.839C38.6564 129.082 39.2391 129.315 39.827 129.537L39.7602 129.714C39.1701 129.491 38.5852 129.258 38.0058 129.013ZM41.5394 130.347L41.5994 130.167C42.1931 130.366 42.7917 130.554 43.3951 130.73L43.342 130.911C42.7364 130.734 42.1354 130.546 41.5394 130.347ZM45.1657 131.407L45.2118 131.224C45.8189 131.376 46.4304 131.518 47.046 131.647L47.007 131.832C46.389 131.702 45.7752 131.56 45.1657 131.407ZM48.8611 132.187L48.8931 132.001C49.5093 132.106 50.1295 132.201 50.7532 132.283L50.7284 132.471C50.1022 132.388 49.4797 132.293 48.8611 132.187ZM52.6066 132.684L52.6243 132.495C53.2469 132.554 53.8728 132.601 54.5017 132.637L54.4911 132.825C53.8598 132.79 53.2315 132.743 52.6066 132.684ZM56.3768 132.896L56.3804 132.707C56.6945 132.713 57.0093 132.716 57.3249 132.716C57.6404 132.716 57.9552 132.713 58.2693 132.707L58.2729 132.896C57.9576 132.902 57.6416 132.905 57.3249 132.905C57.0082 132.905 56.6921 132.902 56.3768 132.896ZM60.1586 132.825L60.148 132.637C60.777 132.601 61.4028 132.554 62.0254 132.495L62.0431 132.684C61.4182 132.743 60.79 132.79 60.1586 132.825ZM63.9214 132.471L63.8965 132.283C64.5203 132.201 65.1404 132.106 65.7567 132.001L65.7886 132.187C65.17 132.293 64.5475 132.388 63.9214 132.471ZM67.6428 131.832L67.6037 131.647C68.2193 131.518 68.8308 131.376 69.4379 131.224L69.484 131.407C68.8746 131.56 68.2607 131.702 67.6428 131.832ZM71.3077 130.911L71.2546 130.73C71.858 130.554 72.4566 130.366 73.0503 130.167L73.1103 130.347C72.5143 130.546 71.9133 130.734 71.3077 130.911ZM74.8895 129.714L74.8227 129.537C75.4107 129.315 75.9933 129.082 76.5705 128.839L76.644 129.013C76.0645 129.258 75.4796 129.491 74.8895 129.714ZM78.371 128.246L78.291 128.075C78.8601 127.809 79.4234 127.533 79.9807 127.246L80.0671 127.414C79.5077 127.702 78.9422 127.98 78.371 128.246ZM81.7303 126.519L81.6376 126.354C82.1846 126.046 82.7254 125.728 83.2595 125.4L83.3584 125.562C82.8222 125.891 82.2794 126.21 81.7303 126.519ZM84.9499 124.543L84.845 124.386C85.3673 124.037 85.8827 123.68 86.3911 123.312L86.5018 123.466C85.9915 123.834 85.4742 124.193 84.9499 124.543ZM88.012 122.331L87.8956 122.182C88.3902 121.795 88.8774 121.4 89.3569 120.996L89.4788 121.14C88.9974 121.546 88.5084 121.943 88.012 122.331ZM90.9002 119.896L90.7731 119.756C91.2373 119.334 91.6937 118.903 92.142 118.464L92.2743 118.599C91.8243 119.04 91.3662 119.472 90.9002 119.896ZM93.5991 117.253L93.4619 117.123C93.8934 116.667 94.3166 116.204 94.7312 115.733L94.8732 115.858C94.457 116.331 94.0323 116.796 93.5991 117.253ZM96.0947 114.416L95.9482 114.297C96.3446 113.811 96.7322 113.317 97.1108 112.817L97.2616 112.931C96.8816 113.433 96.4926 113.929 96.0947 114.416ZM98.3726 111.403L98.2177 111.295C98.577 110.781 98.927 110.26 99.2675 109.733L99.4264 109.835C99.0845 110.365 98.7332 110.887 98.3726 111.403ZM100.421 108.229L100.259 108.132C100.579 107.593 100.889 107.048 101.19 106.496L101.356 106.587C101.054 107.14 100.743 107.688 100.421 108.229ZM102.229 104.912L102.059 104.828C102.338 104.267 102.608 103.7 102.866 103.127L103.039 103.205C102.779 103.78 102.509 104.349 102.229 104.912ZM103.785 101.469L103.61 101.398C103.846 100.818 104.073 100.232 104.288 99.6417L104.466 99.7065C104.249 100.299 104.022 100.887 103.785 101.469ZM105.08 97.9212L104.901 97.863C105.093 97.2676 105.275 96.6672 105.447 96.0622L105.628 96.1137C105.457 96.7209 105.274 97.3235 105.08 97.9212ZM106.109 94.2861L105.925 94.2415C106.073 93.633 106.21 93.0203 106.336 92.4034L106.522 92.4412C106.395 93.0604 106.258 93.6754 106.109 94.2861ZM106.865 90.5853L106.679 90.5544C106.781 89.9376 106.872 89.317 106.952 88.6928L107.14 88.7169C107.059 89.3434 106.968 89.9663 106.865 90.5853ZM107.346 86.838L107.158 86.8208C107.214 86.1979 107.26 85.5718 107.294 84.9425L107.483 84.9528C107.449 85.5843 107.403 86.2128 107.346 86.838Z" fill="#FF743C"/>
<path fill-rule="evenodd" clip-rule="evenodd" d="M138.672 51.7337L138.483 51.7303C138.489 51.4161 138.491 51.1012 138.491 50.7857C138.491 50.4701 138.489 50.1552 138.483 49.841L138.672 49.8376C138.678 50.1529 138.681 50.469 138.681 50.7857C138.681 51.1024 138.678 51.4184 138.672 51.7337ZM138.604 47.952C138.569 47.3204 138.523 46.6919 138.467 46.0668L138.278 46.0839C138.335 46.7068 138.381 47.333 138.415 47.9622L138.604 47.952ZM138.26 44.1878L138.073 44.2119C137.993 43.5877 137.901 42.9672 137.799 42.3504L137.986 42.3194C138.088 42.9385 138.18 43.5614 138.26 44.1878ZM137.642 40.4635L137.457 40.5013C137.331 39.8845 137.194 39.2717 137.046 38.6633L137.23 38.6186C137.378 39.2293 137.516 39.8443 137.642 40.4635ZM136.749 36.791L136.567 36.8425C136.396 36.2375 136.214 35.6372 136.021 35.0417L136.201 34.9835C136.394 35.5812 136.577 36.1838 136.749 36.791ZM135.587 33.1982L135.409 33.2631C135.193 32.6724 134.967 32.0869 134.73 31.5068L134.905 31.4354C135.143 32.0177 135.37 32.6053 135.587 33.1982ZM134.159 29.6994L133.987 29.7773C133.728 29.2047 133.459 28.6379 133.18 28.0771L133.349 27.9928C133.629 28.5558 133.899 29.1247 134.159 29.6994ZM132.477 26.3179C132.175 25.7642 131.863 25.2169 131.542 24.6761L131.379 24.7726C131.7 25.3114 132.01 25.8568 132.311 26.4084L132.477 26.3179ZM130.547 23.0697L130.388 23.1722C130.048 22.6446 129.698 22.1238 129.338 21.61L129.493 21.5017C129.854 22.0174 130.205 22.5401 130.547 23.0697ZM128.382 19.974L128.231 20.088C127.853 19.5873 127.465 19.0939 127.069 18.6082L127.215 18.4887C127.613 18.9762 128.002 19.4714 128.382 19.974ZM125.994 17.0471C125.578 16.5741 125.153 16.1091 124.72 15.6521L124.583 15.7822C125.014 16.2374 125.437 16.7008 125.852 17.172L125.994 17.0471ZM123.395 14.3055L123.263 14.4406C122.814 14.0015 122.358 13.5709 121.894 13.1489L122.021 13.009C122.487 13.4326 122.945 13.8648 123.395 14.3055ZM120.599 11.7645L120.478 11.9091C119.998 11.5047 119.511 11.1093 119.016 10.723L119.133 10.574C119.629 10.9618 120.118 11.3587 120.599 11.7645ZM117.622 9.43922L117.512 9.59245C117.003 9.22517 116.488 8.86727 115.966 8.519L116.071 8.36172C116.595 8.7113 117.112 9.07055 117.622 9.43922ZM114.479 7.34313L114.38 7.50424C113.846 7.17637 113.305 6.85831 112.758 6.55033L112.851 6.3856C113.4 6.69475 113.943 7.01401 114.479 7.34313ZM111.188 5.49024C110.628 5.20259 110.063 4.92523 109.492 4.65839L109.412 4.82968C109.981 5.0955 110.544 5.37181 111.101 5.65836L111.188 5.49024ZM107.765 3.89136L107.691 4.06556C107.114 3.82225 106.531 3.58956 105.943 3.36772L106.01 3.19085C106.6 3.41354 107.185 3.64712 107.765 3.89136ZM104.231 2.55798L104.171 2.73727C103.577 2.53876 102.979 2.35119 102.375 2.17479L102.428 1.99334C103.034 2.17042 103.635 2.35871 104.231 2.55798ZM100.605 1.49777L100.559 1.68111C99.9514 1.52854 99.34 1.38718 98.7243 1.25725L98.7634 1.07228C99.3814 1.2027 99.9952 1.34461 100.605 1.49777ZM96.9092 0.71775L96.8773 0.904073C96.261 0.798363 95.6409 0.704043 95.0171 0.621334L95.042 0.43393C95.6681 0.516954 96.2906 0.611635 96.9092 0.71775ZM93.1638 0.221067L93.146 0.409278C92.5235 0.350649 91.8976 0.303548 91.2686 0.268189L91.2792 0.0794424C91.9106 0.114935 92.5388 0.162215 93.1638 0.221067ZM89.3935 0.0088627L89.39 0.197874C89.0758 0.191996 88.761 0.189045 88.4455 0.189045C88.13 0.189045 87.8151 0.191996 87.501 0.197874L87.4975 0.00886226C87.8128 0.00296273 88.1288 0 88.4455 0C88.7622 0 89.0782 0.00296287 89.3935 0.0088627ZM85.6118 0.0794409L85.6224 0.268187C84.9934 0.303546 84.3675 0.350647 83.7449 0.409276L83.7272 0.221064C84.3521 0.162213 84.9804 0.114933 85.6118 0.0794409ZM81.849 0.433927L81.8738 0.621331C81.2501 0.704039 80.63 0.798359 80.0137 0.904069L79.9817 0.717746C80.6004 0.611631 81.2229 0.516951 81.849 0.433927ZM78.1276 1.07227L78.1666 1.25724C77.551 1.38717 76.9395 1.52854 76.3324 1.68111L76.2864 1.49776C76.8958 1.34461 77.5096 1.2027 78.1276 1.07227ZM74.4627 1.99334L74.5157 2.17478C73.9124 2.35119 73.3137 2.53876 72.72 2.73726L72.6601 2.55798C73.2561 2.35871 73.857 2.17041 74.4627 1.99334ZM70.8809 3.19084L70.9476 3.36772C70.3597 3.58955 69.777 3.82225 69.1998 4.06556L69.1264 3.89136C69.7058 3.64712 70.2907 3.41353 70.8809 3.19084ZM67.3994 4.65839L67.4794 4.82967C66.9103 5.09549 66.347 5.3718 65.7897 5.65835L65.7032 5.49023C66.2626 5.20259 66.8281 4.92523 67.3994 4.65839ZM64.04 6.3856L64.1328 6.55033C63.5857 6.85831 63.045 7.17636 62.5108 7.50424L62.4119 7.34312C62.9481 7.014 63.4909 6.69475 64.04 6.3856ZM60.8204 8.36171L60.9253 8.51899C60.403 8.86726 59.8876 9.22516 59.3793 9.59245L59.2686 9.43921C59.7788 9.07055 60.2962 8.7113 60.8204 8.36171ZM57.7583 10.574L57.8747 10.723C57.3802 11.1093 56.893 11.5047 56.4134 11.9091L56.2916 11.7645C56.7729 11.3587 57.2619 10.9618 57.7583 10.574ZM54.8701 13.009L54.9973 13.1489C54.533 13.5709 54.0767 14.0015 53.6284 14.4405L53.4961 14.3055C53.9461 13.8648 54.4041 13.4326 54.8701 13.009ZM52.1712 15.6521L52.3084 15.7822C51.8769 16.2374 51.4537 16.7008 51.0391 17.172L50.8972 17.0471C51.3133 16.5741 51.7381 16.1091 52.1712 15.6521ZM49.6757 18.4886L49.8221 18.6082C49.4257 19.0939 49.0381 19.5873 48.6596 20.088L48.5088 19.974C48.8887 19.4714 49.2778 18.9762 49.6757 18.4886ZM47.3977 21.5017L47.5527 21.61C47.1934 22.1238 46.8434 22.6446 46.5028 23.1722L46.344 23.0697C46.6858 22.5401 47.0371 22.0174 47.3977 21.5017ZM45.3489 24.6761L45.5115 24.7726C45.1914 25.3114 44.8809 25.8567 44.5804 26.4084L44.4144 26.3179C44.7161 25.7642 45.0277 25.2169 45.3489 24.6761ZM43.5417 27.9928L43.711 28.0771C43.4319 28.6379 43.1628 29.2047 42.904 29.7772L42.7317 29.6994C42.9915 29.1247 43.2616 28.5558 43.5417 27.9928ZM41.9855 31.4354L42.1606 31.5068C41.9239 32.0869 41.6977 32.6724 41.482 33.2631L41.3044 33.1982C41.5209 32.6053 41.748 32.0176 41.9855 31.4354ZM40.6898 34.9835L40.8697 35.0417C40.677 35.6372 40.495 36.2375 40.3238 36.8425L40.1419 36.791C40.3137 36.1838 40.4965 35.5812 40.6898 34.9835ZM39.6613 38.6186L39.845 38.6633C39.697 39.2717 39.56 39.8844 39.434 40.5013L39.2488 40.4635C39.3752 39.8443 39.5128 39.2293 39.6613 38.6186ZM38.9053 42.3194L39.0918 42.3504C38.9895 42.9672 38.8981 43.5877 38.818 44.2119L38.6305 44.1878C38.7109 43.5614 38.8026 42.9385 38.9053 42.3194ZM38.4244 46.0667L38.6127 46.0839C38.5559 46.7068 38.5103 47.333 38.4761 47.9622L38.2873 47.9519C38.3217 47.3204 38.3675 46.6919 38.4244 46.0667ZM38.219 49.8376C38.2133 50.1529 38.2104 50.469 38.2104 50.7857C38.2104 51.1024 38.2133 51.4184 38.219 51.7337L38.408 51.7303C38.4024 51.4161 38.3995 51.1012 38.3995 50.7857C38.3995 50.4701 38.4024 50.1552 38.408 49.841L38.219 49.8376ZM38.2873 53.6194L38.4761 53.6091C38.5103 54.2383 38.5559 54.8645 38.6127 55.4874L38.4244 55.5046C38.3675 54.8794 38.3217 54.2509 38.2873 53.6194ZM38.6305 57.3835L38.818 57.3594C38.8981 57.9836 38.9895 58.6042 39.0918 59.221L38.9053 59.2519C38.8026 58.6328 38.7109 58.0099 38.6305 57.3835ZM39.2488 61.1078L39.434 61.07C39.56 61.6869 39.697 62.2996 39.845 62.908L39.6613 62.9527C39.5128 62.342 39.3752 61.727 39.2488 61.1078ZM40.1419 64.7803L40.3238 64.7288C40.495 65.3338 40.677 65.9341 40.8697 66.5296L40.6898 66.5878C40.4965 65.9901 40.3137 65.3875 40.1419 64.7803ZM41.3044 68.3731L41.482 68.3083C41.6977 68.8989 41.9239 69.4844 42.1606 70.0645L41.9855 70.1359C41.748 69.5537 41.5209 68.966 41.3044 68.3731ZM42.7317 71.8719C42.9915 72.4466 43.2616 73.0155 43.5417 73.5785L43.711 73.4943C43.4319 72.9334 43.1628 72.3666 42.904 71.7941L42.7317 71.8719ZM44.4144 75.2534C44.7161 75.8071 45.0277 76.3544 45.3489 76.8953L45.5115 76.7987C45.1914 76.2599 44.8809 75.7146 44.5804 75.163L44.4144 75.2534ZM46.344 78.5016L46.5028 78.3991C46.8434 78.9267 47.1934 79.4475 47.5526 79.9613L47.3977 80.0696C47.0371 79.554 46.6858 79.0312 46.344 78.5016ZM48.5088 81.5973L48.6596 81.4833C49.0381 81.984 49.4257 82.4774 49.8221 82.9632L49.6757 83.0827C49.2778 82.5951 48.8887 82.0999 48.5088 81.5973ZM50.8972 84.5242L51.0391 84.3993C51.4537 84.8706 51.8769 85.3339 52.3084 85.7891L52.1712 85.9192C51.7381 85.4623 51.3133 84.9972 50.8972 84.5242ZM53.4961 87.2658L53.6283 87.1308C54.0766 87.5698 54.533 88.0005 54.9973 88.4224L54.8701 88.5623C54.4041 88.1388 53.946 87.7065 53.4961 87.2658ZM56.2916 89.8068L56.4134 89.6623C56.893 90.0666 57.3802 90.462 57.8747 90.8483L57.7583 90.9973C57.2619 90.6096 56.7729 90.2126 56.2916 89.8068ZM59.2686 92.1321L59.3793 91.9789C59.8876 92.3462 60.403 92.7041 60.9253 93.0523L60.8204 93.2096C60.2962 92.86 59.7788 92.5008 59.2686 92.1321ZM62.4119 94.2282L62.5108 94.0671C63.045 94.395 63.5857 94.713 64.1328 95.021L64.04 95.1857C63.4909 94.8766 62.9481 94.5573 62.4119 94.2282ZM65.7032 96.0811L65.7896 95.913C66.347 96.1995 66.9103 96.4758 67.4794 96.7416L67.3994 96.9129C66.8281 96.6461 66.2626 96.3687 65.7032 96.0811ZM69.1264 97.68L69.1998 97.5058C69.777 97.7491 70.3597 97.9818 70.9476 98.2036L70.8808 98.3805C70.2907 98.1578 69.7058 97.9242 69.1264 97.68ZM72.66 99.0133L72.72 98.8341C73.3137 99.0326 73.9123 99.2201 74.5157 99.3965L74.4626 99.578C73.857 99.4009 73.256 99.2126 72.66 99.0133ZM76.2863 100.074L76.3324 99.8902C76.9395 100.043 77.551 100.184 78.1666 100.314L78.1276 100.499C77.5096 100.369 76.8958 100.227 76.2863 100.074ZM79.9817 100.854L80.0137 100.667C80.63 100.773 81.2501 100.867 81.8738 100.95L81.849 101.137C81.2228 101.054 80.6004 100.96 79.9817 100.854ZM83.7272 101.35L83.7449 101.162C84.3675 101.221 84.9934 101.268 85.6223 101.303L85.6117 101.492C84.9804 101.456 84.3521 101.409 83.7272 101.35ZM87.4974 101.562L87.501 101.373C87.8151 101.379 88.1299 101.382 88.4455 101.382C88.761 101.382 89.0758 101.379 89.3899 101.373L89.3935 101.562C89.0782 101.568 88.7622 101.571 88.4455 101.571C88.1288 101.571 87.8127 101.568 87.4974 101.562ZM91.2792 101.492L91.2686 101.303C91.8976 101.268 92.5235 101.221 93.146 101.162L93.1637 101.35C92.5388 101.409 91.9106 101.456 91.2792 101.492ZM95.042 101.137L95.0171 100.95C95.6409 100.867 96.261 100.773 96.8773 100.667L96.9092 100.854C96.2906 100.96 95.6681 101.054 95.042 101.137ZM98.7634 100.499L98.7243 100.314C99.34 100.184 99.9514 100.043 100.559 99.8902L100.605 100.074C99.9952 100.227 99.3813 100.369 98.7634 100.499ZM102.428 99.578L102.375 99.3965C102.979 99.2201 103.577 99.0326 104.171 98.8341L104.231 99.0134C103.635 99.2126 103.034 99.4009 102.428 99.578ZM106.01 98.3805L105.943 98.2036C106.531 97.9818 107.114 97.7491 107.691 97.5058L107.765 97.68C107.185 97.9242 106.6 98.1578 106.01 98.3805ZM109.492 96.9129L109.412 96.7417C109.981 96.4758 110.544 96.1995 111.101 95.913L111.188 96.0811C110.628 96.3687 110.063 96.6461 109.492 96.9129ZM112.851 95.1857L112.758 95.021C113.305 94.713 113.846 94.395 114.38 94.0671L114.479 94.2282C113.943 94.5573 113.4 94.8766 112.851 95.1857ZM116.071 93.2096L115.966 93.0523C116.488 92.7041 117.003 92.3462 117.512 91.9789L117.622 92.1321C117.112 92.5008 116.595 92.86 116.071 93.2096ZM119.133 90.9973L119.016 90.8483C119.511 90.462 119.998 90.0666 120.478 89.6623L120.599 89.8068C120.118 90.2126 119.629 90.6096 119.133 90.9973ZM122.021 88.5623L121.894 88.4224C122.358 88.0005 122.814 87.5698 123.263 87.1308L123.395 87.2658C122.945 87.7065 122.487 88.1388 122.021 88.5623ZM124.72 85.9192L124.583 85.7891C125.014 85.3339 125.437 84.8706 125.852 84.3993L125.994 84.5242C125.578 84.9972 125.153 85.4623 124.72 85.9192ZM127.215 83.0827L127.069 82.9632C127.465 82.4774 127.853 81.984 128.231 81.4833L128.382 81.5973C128.002 82.0999 127.613 82.5951 127.215 83.0827ZM129.493 80.0696L129.338 79.9613C129.698 79.4475 130.048 78.9267 130.388 78.3991L130.547 78.5016C130.205 79.0312 129.854 79.554 129.493 80.0696ZM131.542 76.8953L131.379 76.7987C131.7 76.2599 132.01 75.7146 132.311 75.163L132.477 75.2534C132.175 75.8071 131.863 76.3545 131.542 76.8953ZM133.349 73.5785L133.18 73.4943C133.459 72.9334 133.728 72.3666 133.987 71.7941L134.159 71.8719C133.899 72.4466 133.629 73.0156 133.349 73.5785ZM134.905 70.1359L134.73 70.0645C134.967 69.4844 135.193 68.8989 135.409 68.3083L135.587 68.3731C135.37 68.966 135.143 69.5537 134.905 70.1359ZM136.201 66.5878L136.021 66.5296C136.214 65.9342 136.396 65.3338 136.567 64.7288L136.749 64.7803C136.577 65.3875 136.394 65.9901 136.201 66.5878ZM137.23 62.9527L137.046 62.9081C137.194 62.2996 137.331 61.6869 137.457 61.07L137.642 61.1078C137.516 61.727 137.378 62.342 137.23 62.9527ZM137.986 59.2519L137.799 59.221C137.901 58.6042 137.993 57.9836 138.073 57.3594L138.26 57.3835C138.18 58.01 138.088 58.6328 137.986 59.2519ZM138.467 55.5046L138.278 55.4874C138.335 54.8645 138.381 54.2384 138.415 53.6091L138.604 53.6194C138.569 54.2509 138.523 54.8794 138.467 55.5046Z" fill="#FF743C"/>
<path fill-rule="evenodd" clip-rule="evenodd" d="M154.259 83.1624L154.07 83.159C154.076 82.8448 154.079 82.5299 154.079 82.2143C154.079 81.8988 154.076 81.5839 154.07 81.2697L154.259 81.2663C154.265 81.5816 154.268 81.8976 154.268 82.2143C154.268 82.531 154.265 82.8471 154.259 83.1624ZM154.191 79.3806C154.157 78.7491 154.111 78.1206 154.054 77.4954L153.866 77.5126C153.922 78.1355 153.968 78.7617 154.002 79.3909L154.191 79.3806ZM153.848 75.6165L153.66 75.6406C153.58 75.0164 153.489 74.3959 153.387 73.7791L153.573 73.7481C153.676 74.3672 153.767 74.9901 153.848 75.6165ZM153.23 71.8922L153.044 71.93C152.918 71.3131 152.781 70.7004 152.633 70.092L152.817 70.0473C152.966 70.658 153.103 71.273 153.23 71.8922ZM152.336 68.2197L152.155 68.2712C151.983 67.6662 151.801 67.0659 151.609 66.4704L151.789 66.4122C151.982 67.0099 152.165 67.6125 152.336 68.2197ZM151.174 64.6269L150.996 64.6917C150.781 64.1011 150.554 63.5156 150.318 62.9355L150.493 62.8641C150.73 63.4463 150.957 64.034 151.174 64.6269ZM149.747 61.1281L149.574 61.2059C149.316 60.6334 149.046 60.0666 148.767 59.5057L148.937 59.4215C149.217 59.9845 149.487 60.5534 149.747 61.1281ZM148.064 57.7466C147.762 57.1929 147.451 56.6456 147.129 56.1047L146.967 56.2013C147.287 56.7401 147.597 57.2854 147.898 57.837L148.064 57.7466ZM146.134 54.4984L145.976 54.6009C145.635 54.0733 145.285 53.5525 144.926 53.0387L145.081 52.9304C145.441 53.446 145.793 53.9688 146.134 54.4984ZM143.97 51.4027L143.819 51.5167C143.44 51.016 143.053 50.5226 142.656 50.0369L142.803 49.9173C143.201 50.4049 143.59 50.9001 143.97 51.4027ZM141.581 48.4758C141.165 48.0028 140.74 47.5377 140.307 47.0808L140.17 47.2109C140.601 47.6661 141.025 48.1295 141.439 48.6007L141.581 48.4758ZM138.982 45.7342L138.85 45.8692C138.402 45.4302 137.945 44.9996 137.481 44.5776L137.608 44.4377C138.074 44.8612 138.532 45.2935 138.982 45.7342ZM136.187 43.1932L136.065 43.3377C135.585 42.9334 135.098 42.538 134.604 42.1517L134.72 42.0027C135.216 42.3904 135.705 42.7874 136.187 43.1932ZM133.21 40.8679L133.099 41.0211C132.591 40.6539 132.075 40.2959 131.553 39.9477L131.658 39.7904C132.182 40.14 132.7 40.4992 133.21 40.8679ZM130.066 38.7718L129.968 38.9329C129.433 38.605 128.893 38.287 128.346 37.979L128.438 37.8143C128.987 38.1234 129.53 38.4427 130.066 38.7718ZM126.775 36.9189C126.216 36.6313 125.65 36.3539 125.079 36.0871L124.999 36.2584C125.568 36.5242 126.131 36.8005 126.689 37.087L126.775 36.9189ZM123.352 35.32L123.279 35.4942C122.701 35.2509 122.119 35.0182 121.531 34.7964L121.598 34.6195C122.188 34.8422 122.773 35.0758 123.352 35.32ZM119.818 33.9867L119.758 34.166C119.165 33.9674 118.566 33.7799 117.963 33.6035L118.016 33.422C118.621 33.5991 119.222 33.7874 119.818 33.9867ZM116.192 32.9264L116.146 33.1098C115.539 32.9572 114.927 32.8159 114.312 32.6859L114.351 32.501C114.969 32.6314 115.583 32.7733 116.192 32.9264ZM112.497 32.1464L112.465 32.3328C111.848 32.227 111.228 32.1327 110.605 32.05L110.629 31.8626C111.256 31.9456 111.878 32.0403 112.497 32.1464ZM108.751 31.6497L108.733 31.838C108.111 31.7793 107.485 31.7322 106.856 31.6969L106.867 31.5081C107.498 31.5436 108.126 31.5909 108.751 31.6497ZM104.981 31.4375L104.977 31.6266C104.663 31.6207 104.348 31.6177 104.033 31.6177C103.717 31.6177 103.403 31.6207 103.088 31.6266L103.085 31.4375C103.4 31.4316 103.716 31.4287 104.033 31.4287C104.35 31.4287 104.666 31.4316 104.981 31.4375ZM101.199 31.5081L101.21 31.6969C100.581 31.7322 99.9549 31.7793 99.3323 31.838L99.3146 31.6497C99.9395 31.5909 100.568 31.5436 101.199 31.5081ZM97.4364 31.8626L97.4612 32.05C96.8375 32.1327 96.2174 32.227 95.6011 32.3327L95.5691 32.1464C96.1878 32.0403 96.8103 31.9456 97.4364 31.8626ZM93.715 32.501L93.754 32.6859C93.1384 32.8159 92.5269 32.9572 91.9198 33.1098L91.8738 32.9264C92.4832 32.7733 93.097 32.6314 93.715 32.501ZM90.0501 33.422L90.1031 33.6035C89.4998 33.7799 88.9011 33.9674 88.3074 34.1659L88.2475 33.9867C88.8435 33.7874 89.4444 33.5991 90.0501 33.422ZM86.4683 34.6195L86.535 34.7964C85.9471 35.0182 85.3644 35.2509 84.7872 35.4942L84.7138 35.32C85.2932 35.0758 85.8781 34.8422 86.4683 34.6195ZM82.9868 36.0871L83.0668 36.2584C82.4977 36.5242 81.9344 36.8005 81.3771 37.087L81.2906 36.9189C81.85 36.6313 82.4155 36.3539 82.9868 36.0871ZM79.6274 37.8143L79.7202 37.979C79.1731 38.287 78.6324 38.605 78.0982 38.9329L77.9993 38.7718C78.5355 38.4427 79.0783 38.1234 79.6274 37.8143ZM76.4078 39.7904L76.5127 39.9477C75.9904 40.2959 75.475 40.6538 74.9667 41.0211L74.856 40.8679C75.3662 40.4992 75.8836 40.14 76.4078 39.7904ZM73.3457 42.0027L73.4621 42.1517C72.9676 42.538 72.4804 42.9334 72.0008 43.3377L71.879 43.1932C72.3603 42.7874 72.8493 42.3904 73.3457 42.0027ZM70.4575 44.4377L70.5847 44.5776C70.1204 44.9996 69.6641 45.4302 69.2158 45.8692L69.0835 45.7342C69.5335 45.2935 69.9916 44.8612 70.4575 44.4377ZM67.7586 47.0808L67.8958 47.2109C67.4643 47.6661 67.0411 48.1294 66.6265 48.6007L66.4846 48.4758C66.9007 48.0028 67.3255 47.5377 67.7586 47.0808ZM65.2631 49.9173L65.4095 50.0369C65.0131 50.5226 64.6255 51.016 64.247 51.5167L64.0962 51.4027C64.4761 50.9001 64.8652 50.4049 65.2631 49.9173ZM62.9851 52.9304L63.1401 53.0387C62.7808 53.5525 62.4308 54.0733 62.0902 54.6009L61.9314 54.4984C62.2732 53.9688 62.6245 53.446 62.9851 52.9304ZM60.9363 56.1047L61.0989 56.2013C60.7788 56.7401 60.4683 57.2854 60.1678 57.837L60.0018 57.7466C60.3035 57.1929 60.6151 56.6456 60.9363 56.1047ZM59.1291 59.4215L59.2984 59.5057C59.0193 60.0666 58.7502 60.6334 58.4914 61.2059L58.3191 61.1281C58.5789 60.5534 58.849 59.9845 59.1291 59.4215ZM57.5729 62.8641L57.748 62.9355C57.5113 63.5156 57.2851 64.1011 57.0694 64.6917L56.8918 64.6269C57.1083 64.034 57.3354 63.4463 57.5729 62.8641ZM56.2772 66.4122L56.4571 66.4704C56.2644 67.0659 56.0824 67.6662 55.9112 68.2712L55.7293 68.2197C55.9011 67.6125 56.0839 67.0099 56.2772 66.4122ZM55.2487 70.0473L55.4324 70.0919C55.2844 70.7004 55.1474 71.3131 55.0214 71.93L54.8362 71.8922C54.9626 71.273 55.1002 70.658 55.2487 70.0473ZM54.4928 73.7481L54.6792 73.779C54.5769 74.3958 54.4855 75.0164 54.4054 75.6406L54.2179 75.6165C54.2983 74.99 54.39 74.3672 54.4928 73.7481ZM54.0118 77.4954L54.2001 77.5126C54.1433 78.1355 54.0977 78.7617 54.0635 79.3909L53.8747 79.3806C53.9091 78.7491 53.9549 78.1206 54.0118 77.4954ZM53.8064 81.2663C53.8007 81.5816 53.7979 81.8976 53.7979 82.2143C53.7979 82.531 53.8007 82.8471 53.8064 83.1624L53.9954 83.159C53.9898 82.8448 53.9869 82.5299 53.9869 82.2143C53.9869 81.8988 53.9898 81.5839 53.9954 81.2697L53.8064 81.2663ZM53.8747 85.048L54.0635 85.0378C54.0977 85.667 54.1433 86.2932 54.2001 86.9161L54.0118 86.9333C53.9549 86.3081 53.9091 85.6796 53.8747 85.048ZM54.2179 88.8122L54.4054 88.7881C54.4855 89.4123 54.5769 90.0328 54.6792 90.6496L54.4927 90.6806C54.39 90.0615 54.2983 89.4386 54.2179 88.8122ZM54.8362 92.5365L55.0214 92.4987C55.1474 93.1155 55.2844 93.7283 55.4324 94.3367L55.2487 94.3814C55.1002 93.7707 54.9626 93.1557 54.8362 92.5365ZM55.7293 96.209L55.9112 96.1575C56.0824 96.7625 56.2644 97.3628 56.4571 97.9583L56.2772 98.0165C56.0839 97.4188 55.9011 96.8162 55.7293 96.209ZM56.8918 99.8018L57.0694 99.7369C57.2851 100.328 57.5113 100.913 57.748 101.493L57.5729 101.565C57.3354 100.982 57.1083 100.395 56.8918 99.8018ZM58.3191 103.301C58.5789 103.875 58.849 104.444 59.1291 105.007L59.2984 104.923C59.0193 104.362 58.7502 103.795 58.4914 103.223L58.3191 103.301ZM60.0018 106.682C60.3035 107.236 60.6151 107.783 60.9363 108.324L61.0989 108.227C60.7788 107.689 60.4683 107.143 60.1678 106.592L60.0018 106.682ZM61.9314 109.93L62.0902 109.828C62.4308 110.355 62.7808 110.876 63.1401 111.39L62.9851 111.498C62.6245 110.983 62.2732 110.46 61.9314 109.93ZM64.0962 113.026L64.247 112.912C64.6255 113.413 65.0131 113.906 65.4095 114.392L65.2631 114.511C64.8652 114.024 64.4761 113.529 64.0962 113.026ZM66.4846 115.953L66.6265 115.828C67.0411 116.299 67.4643 116.763 67.8958 117.218L67.7586 117.348C67.3255 116.891 66.9007 116.426 66.4846 115.953ZM69.0835 118.695L69.2158 118.559C69.664 118.998 70.1204 119.429 70.5847 119.851L70.4575 119.991C69.9915 119.567 69.5334 119.135 69.0835 118.695ZM71.879 121.235L72.0008 121.091C72.4804 121.495 72.9676 121.891 73.4621 122.277L73.3457 122.426C72.8493 122.038 72.3603 121.641 71.879 121.235ZM74.856 123.561L74.9667 123.408C75.475 123.775 75.9904 124.133 76.5127 124.481L76.4078 124.638C75.8836 124.289 75.3662 123.929 74.856 123.561ZM77.9993 125.657L78.0982 125.496C78.6324 125.824 79.1731 126.142 79.7202 126.45L79.6274 126.614C79.0783 126.305 78.5355 125.986 77.9993 125.657ZM81.2906 127.51L81.377 127.342C81.9344 127.628 82.4977 127.905 83.0668 128.17L82.9868 128.342C82.4155 128.075 81.85 127.797 81.2906 127.51ZM84.7138 129.109L84.7872 128.934C85.3644 129.178 85.9471 129.41 86.535 129.632L86.4682 129.809C85.8781 129.586 85.2932 129.353 84.7138 129.109ZM88.2475 130.442L88.3074 130.263C88.9011 130.461 89.4998 130.649 90.1031 130.825L90.05 131.007C89.4444 130.83 88.8434 130.641 88.2475 130.442ZM91.8737 131.502L91.9198 131.319C92.5269 131.471 93.1384 131.613 93.754 131.743L93.715 131.928C93.097 131.797 92.4832 131.655 91.8737 131.502ZM95.5691 132.282L95.6011 132.096C96.2174 132.202 96.8375 132.296 97.4612 132.379L97.4364 132.566C96.8102 132.483 96.1878 132.388 95.5691 132.282ZM99.3146 132.779L99.3323 132.591C99.9549 132.649 100.581 132.696 101.21 132.732L101.199 132.921C100.568 132.885 99.9395 132.838 99.3146 132.779ZM103.085 132.991L103.088 132.802C103.403 132.808 103.717 132.811 104.033 132.811C104.348 132.811 104.663 132.808 104.977 132.802L104.981 132.991C104.666 132.997 104.35 133 104.033 133C103.716 133 103.4 132.997 103.085 132.991ZM106.867 132.921L106.856 132.732C107.485 132.696 108.111 132.649 108.733 132.591L108.751 132.779C108.126 132.838 107.498 132.885 106.867 132.921ZM110.629 132.566L110.605 132.379C111.228 132.296 111.848 132.202 112.465 132.096L112.497 132.282C111.878 132.388 111.255 132.483 110.629 132.566ZM114.351 131.928L114.312 131.743C114.927 131.613 115.539 131.471 116.146 131.319L116.192 131.502C115.583 131.655 114.969 131.797 114.351 131.928ZM118.016 131.007L117.963 130.825C118.566 130.649 119.165 130.461 119.758 130.263L119.818 130.442C119.222 130.641 118.621 130.83 118.016 131.007ZM121.597 129.809L121.531 129.632C122.119 129.41 122.701 129.178 123.279 128.934L123.352 129.109C122.773 129.353 122.188 129.586 121.597 129.809ZM125.079 128.342L124.999 128.17C125.568 127.905 126.131 127.628 126.689 127.342L126.775 127.51C126.216 127.797 125.65 128.075 125.079 128.342ZM128.438 126.614L128.346 126.45C128.893 126.142 129.433 125.824 129.968 125.496L130.066 125.657C129.53 125.986 128.987 126.305 128.438 126.614ZM131.658 124.638L131.553 124.481C132.075 124.133 132.591 123.775 133.099 123.408L133.21 123.561C132.7 123.929 132.182 124.289 131.658 124.638ZM134.72 122.426L134.604 122.277C135.098 121.891 135.585 121.495 136.065 121.091L136.187 121.235C135.705 121.641 135.216 122.038 134.72 122.426ZM137.608 119.991L137.481 119.851C137.945 119.429 138.402 118.999 138.85 118.559L138.982 118.695C138.532 119.135 138.074 119.567 137.608 119.991ZM140.307 117.348L140.17 117.218C140.601 116.763 141.025 116.299 141.439 115.828L141.581 115.953C141.165 116.426 140.74 116.891 140.307 117.348ZM142.803 114.511L142.656 114.392C143.053 113.906 143.44 113.413 143.819 112.912L143.97 113.026C143.59 113.529 143.201 114.024 142.803 114.511ZM145.081 111.498L144.926 111.39C145.285 110.876 145.635 110.355 145.976 109.828L146.134 109.93C145.793 110.46 145.441 110.983 145.081 111.498ZM147.129 108.324L146.967 108.227C147.287 107.689 147.597 107.143 147.898 106.592L148.064 106.682C147.762 107.236 147.451 107.783 147.129 108.324ZM148.937 105.007L148.767 104.923C149.046 104.362 149.316 103.795 149.574 103.223L149.747 103.301C149.487 103.875 149.217 104.444 148.937 105.007ZM150.493 101.565L150.318 101.493C150.554 100.913 150.781 100.328 150.996 99.737L151.174 99.8018C150.957 100.395 150.73 100.982 150.493 101.565ZM151.789 98.0165L151.609 97.9583C151.801 97.3628 151.983 96.7625 152.155 96.1575L152.336 96.209C152.165 96.8162 151.982 97.4188 151.789 98.0165ZM152.817 94.3814L152.633 94.3367C152.781 93.7283 152.918 93.1156 153.044 92.4987L153.23 92.5365C153.103 93.1557 152.966 93.7707 152.817 94.3814ZM153.573 90.6806L153.387 90.6497C153.489 90.0329 153.58 89.4123 153.66 88.7881L153.848 88.8122C153.767 89.4386 153.676 90.0615 153.573 90.6806ZM154.054 86.9333L153.866 86.9161C153.922 86.2932 153.968 85.667 154.002 85.0378L154.191 85.0481C154.157 85.6796 154.111 86.3081 154.054 86.9333Z" fill="#FF743C"/>
<path d="M154.692 67.6131C154.692 101.545 127.185 129.053 93.253 129.053C59.3209 129.053 31.8135 101.545 31.8135 67.6131C31.8135 33.681 59.3209 6.17358 93.253 6.17358C127.185 6.17358 154.692 33.681 154.692 67.6131Z" fill="#FEE2EC"/>
<path fill-rule="evenodd" clip-rule="evenodd" d="M23.8698 80.3343C27.9248 84.6982 34.0726 89.6815 42.4373 92.1449C50.7961 94.6065 61.3564 94.5472 69.816 93.8761C74.048 93.5403 77.7585 93.0511 80.411 92.6458C81.7374 92.4431 82.7994 92.2614 83.53 92.1303C83.8953 92.0648 84.1778 92.0119 84.369 91.9754C84.4646 91.9571 84.5375 91.9429 84.5865 91.9333C84.6109 91.9285 84.6295 91.9248 84.6419 91.9224L84.6595 91.9188L84.6604 91.9186C84.6607 91.9186 84.6608 91.9186 84.6328 91.7796C84.6047 91.6406 84.6047 91.6406 84.6045 91.6407L84.5865 91.6442C84.5743 91.6467 84.5561 91.6503 84.5318 91.6551C84.4833 91.6646 84.411 91.6787 84.3158 91.6968C84.1256 91.7332 83.8441 91.7859 83.4799 91.8512C82.7515 91.9819 81.6919 92.1632 80.3682 92.3654C77.7207 92.77 74.0172 93.2583 69.7936 93.5934C61.342 94.2639 50.8246 94.3192 42.5174 91.8729C34.2163 89.4282 28.1101 84.481 24.0775 80.1413C22.0615 77.9717 20.565 75.9552 19.5727 74.4816C19.0766 73.7449 18.7066 73.144 18.461 72.7277C18.3381 72.5196 18.2464 72.3577 18.1854 72.248C18.155 72.1931 18.1322 72.1514 18.1171 72.1234C18.1096 72.1095 18.104 72.0989 18.1003 72.092L18.0961 72.0842L18.0952 72.0824L18.0949 72.0819C18.0949 72.0819 18.0949 72.0819 17.9693 72.1477C17.8438 72.2136 17.8438 72.2137 17.8439 72.2138L17.8442 72.2144L17.8454 72.2166L17.8499 72.2251C17.8539 72.2326 17.8598 72.2436 17.8676 72.2581C17.8832 72.287 17.9065 72.3298 17.9375 72.3857C17.9996 72.4974 18.0926 72.6615 18.2168 72.8719C18.465 73.2925 18.838 73.8982 19.3375 74.64C20.3364 76.1235 21.842 78.1521 23.8698 80.3343Z" fill="#420C0C"/>
<path d="M25.0053 83.6482C24.6356 84.7643 23.5619 85.4644 22.607 85.2119C21.6521 84.9594 21.1777 83.85 21.5474 82.7338C21.9171 81.6177 22.9909 80.9176 23.9457 81.1701C24.9006 81.4226 25.375 82.532 25.0053 83.6482Z" fill="#F7528F"/>
<path d="M15.632 70.833C15.816 70.3026 15.4029 68.9907 15.863 68.6496C16.257 68.3545 17.5448 69.075 18.0453 69.2017C18.9835 69.439 19.4239 70.554 19.0289 71.6922C18.634 72.8304 17.5538 73.561 16.6156 73.3236C15.6774 73.0863 15.2371 71.9712 15.632 70.833Z" fill="#F7528F"/>
<path d="M24.0533 74.9146C23.6608 76.0471 22.587 76.7738 21.655 76.5378C20.723 76.3018 20.2857 75.1924 20.6783 74.0599C21.0709 72.9274 22.1447 72.2006 23.0767 72.4366C24.0087 72.6726 24.4459 73.782 24.0533 74.9146Z" fill="#F7528F"/>
<path d="M20.6276 78.1235C20.235 79.2561 19.1612 79.9828 18.2292 79.7468C17.2972 79.5108 16.8599 78.4014 17.2525 77.2689C17.6451 76.1364 18.7189 75.4096 19.6509 75.6456C20.5829 75.8816 21.0202 76.991 20.6276 78.1235Z" fill="#F7528F"/>
<path d="M28.3907 80.4096C27.9981 81.5421 26.9244 82.2689 25.9924 82.0329C25.0604 81.7969 24.6231 80.6874 25.0157 79.5549C25.4083 78.4223 26.4821 77.6955 27.4141 77.9315C28.346 78.1675 28.7833 79.277 28.3907 80.4096Z" fill="#F7528F"/>
<path d="M33.586 84.6689C33.1935 85.8015 32.1197 86.5282 31.1877 86.2922C30.2557 86.0562 29.8185 84.9468 30.211 83.8143C30.6036 82.6818 31.6774 81.955 32.6094 82.191C33.5414 82.427 33.9786 83.5364 33.586 84.6689Z" fill="#F7528F"/>
<path d="M30.1607 87.8778C29.7682 89.0104 28.6944 89.7372 27.7624 89.5012C26.8304 89.2652 26.3932 88.1557 26.7857 87.0231C27.1783 85.8906 28.2521 85.1638 29.1841 85.3998C30.1161 85.6358 30.5533 86.7453 30.1607 87.8778Z" fill="#F7528F"/>
<path d="M35.1522 87.8114C35.1189 86.7654 36.0163 85.7672 37.1567 85.5819C38.2971 85.3966 39.2486 86.0944 39.2819 87.1404C39.3153 88.1864 38.4178 89.1845 37.2774 89.3698C36.1371 89.5551 35.1856 88.8574 35.1522 87.8114Z" fill="#F7528F"/>
<path d="M33.2509 92.1039C33.2175 91.0578 34.115 90.0595 35.2553 89.8742C36.3957 89.6889 37.3472 90.3867 37.3806 91.4328C37.4139 92.4789 36.5165 93.4772 35.3761 93.6625C34.2357 93.8478 33.2842 93.15 33.2509 92.1039Z" fill="#F7528F"/>
<path d="M41.0567 90.378C40.7807 89.3765 41.4303 88.246 42.5077 87.8527C43.5851 87.4595 44.6823 87.9526 44.9583 88.954C45.2343 89.9554 44.5846 91.086 43.5072 91.4792C42.4298 91.8724 41.3327 91.3794 41.0567 90.378Z" fill="#F7528F"/>
<path d="M40.0918 94.9715C39.8158 93.97 40.4655 92.8395 41.5429 92.4463C42.6203 92.053 43.7174 92.5461 43.9934 93.5475C44.2694 94.5489 43.6198 95.6795 42.5424 96.0727C41.465 96.4659 40.3678 95.9729 40.0918 94.9715Z" fill="#F7528F"/>
<path d="M49.4625 91.9538C49.1293 90.9713 49.7154 89.8151 50.7716 89.3714C51.8278 88.9277 52.9541 89.3646 53.2873 90.3471C53.6205 91.3297 53.0344 92.4859 51.9782 92.9296C50.922 93.3733 49.7957 92.9364 49.4625 91.9538Z" fill="#F7528F"/>
<path d="M48.7389 96.5917C48.4057 95.6091 48.9918 94.4528 50.048 94.0091C51.1042 93.5654 52.2305 94.0023 52.5637 94.9849C52.8969 95.9675 52.3108 97.1238 51.2546 97.5675C50.1984 98.0112 49.0721 97.5743 48.7389 96.5917Z" fill="#F7528F"/>
<path d="M57.7633 92.4132C57.4301 91.4306 58.0163 90.2744 59.0724 89.8307C60.1286 89.3869 61.2549 89.8238 61.5881 90.8064C61.9213 91.789 61.3352 92.9453 60.279 93.389C59.2228 93.8327 58.0965 93.3958 57.7633 92.4132Z" fill="#F7528F"/>
<path d="M57.0382 97.0512C56.705 96.0687 57.2911 94.9125 58.3473 94.4688C59.4035 94.0251 60.5298 94.462 60.863 95.4445C61.1962 96.4271 60.6101 97.5833 59.5539 98.027C58.4977 98.4707 57.3714 98.0338 57.0382 97.0512Z" fill="#F7528F"/>
<path fill-rule="evenodd" clip-rule="evenodd" d="M21.1608 44.264C21.0733 50.2204 22.0694 58.0713 26.4096 65.6344C30.7467 73.1921 38.4172 80.4506 44.9931 85.8147C48.2827 88.4981 51.3017 90.7101 53.4984 92.2512C54.5968 93.0219 55.4897 93.6248 56.1081 94.0353C56.4174 94.2405 56.658 94.3976 56.8214 94.5034C56.9032 94.5564 56.9656 94.5965 57.0076 94.6234C57.0286 94.6368 57.0445 94.647 57.0552 94.6538L57.0704 94.6635L57.0712 94.664C57.0714 94.6641 57.0715 94.6641 57.1473 94.5444C57.2232 94.4246 57.2231 94.4245 57.223 94.4244L57.2075 94.4146C57.197 94.4079 57.1813 94.3979 57.1605 94.3846C57.1189 94.3579 57.0569 94.3181 56.9756 94.2654C56.813 94.1601 56.5732 94.0036 56.2649 93.799C55.6483 93.3898 54.7574 92.7882 53.6612 92.0191C51.4688 90.4809 48.4555 88.2731 45.1723 85.595C38.6027 80.236 30.9658 73.0042 26.6556 65.4933C22.3484 57.9877 21.3573 50.1916 21.4444 44.2682C21.4879 41.3069 21.8009 38.8153 22.1028 37.0647C22.2538 36.1894 22.402 35.4995 22.5123 35.0289C22.5674 34.7936 22.6131 34.6131 22.6449 34.4918C22.6608 34.4311 22.6733 34.3852 22.6817 34.3545C22.6859 34.3392 22.6891 34.3278 22.6912 34.3202L22.6936 34.3117L22.6942 34.3097L22.6943 34.3092C22.6944 34.3092 22.6944 34.3092 22.5581 34.2699C22.4219 34.2307 22.4219 34.2308 22.4218 34.231L22.4216 34.2316L22.4209 34.234L22.4183 34.2433C22.416 34.2514 22.4127 34.2634 22.4083 34.2793C22.3996 34.311 22.3868 34.358 22.3706 34.4199C22.3382 34.5435 22.2919 34.7264 22.2362 34.9642C22.1247 35.4398 21.9754 36.1352 21.8234 37.0165C21.5194 38.7789 21.2046 41.2854 21.1608 44.264Z" fill="#420C0C"/>
<path d="M19.7819 47.6402C18.8573 48.1556 17.6476 47.8016 17.08 46.8494C16.5123 45.8973 16.8017 44.7075 17.7263 44.1921C18.6509 43.6766 19.8606 44.0307 20.4282 44.9828C20.9958 45.935 20.7065 47.1248 19.7819 47.6402Z" fill="#F7528F"/>
<path d="M21.6998 31.4981C22.1267 31.2608 22.5346 29.9528 23.0641 30.0839C23.5193 30.1939 24.0869 31.7932 24.3913 32.3019C24.9619 33.2554 24.6818 34.4412 23.7657 34.9505C22.8496 35.4599 21.6447 35.1003 21.0742 34.1468C20.5036 33.1933 20.7837 32.0075 21.6998 31.4981Z" fill="#F7528F"/>
<path d="M25.1521 40.7312C24.2326 41.2422 23.0229 40.8809 22.4502 39.9242C21.8775 38.9675 22.1586 37.7776 23.0782 37.2666C23.9977 36.7556 25.2074 37.1169 25.7801 38.0736C26.3529 39.0303 26.0717 40.2202 25.1521 40.7312Z" fill="#F7528F"/>
<path d="M20.4573 40.6809C19.5378 41.1919 18.328 40.8306 17.7553 39.8739C17.1826 38.9172 17.4638 37.7274 18.3833 37.2163C19.3029 36.7053 20.5126 37.0666 21.0853 38.0233C21.658 38.98 21.3769 40.1699 20.4573 40.6809Z" fill="#F7528F"/>
<path d="M24.4851 47.6992C23.5656 48.2102 22.3559 47.8489 21.7832 46.8922C21.2104 45.9355 21.4916 44.7457 22.4112 44.2346C23.3307 43.7236 24.5404 44.0849 25.1132 45.0416C25.6859 45.9983 25.4047 47.1882 24.4851 47.6992Z" fill="#F7528F"/>
<path d="M25.2947 54.3692C24.3752 54.8802 23.1654 54.5189 22.5927 53.5622C22.02 52.6056 22.3012 51.4158 23.2208 50.9048C24.1403 50.3937 25.35 50.755 25.9227 51.7117C26.4954 52.6684 26.2143 53.8582 25.2947 54.3692Z" fill="#F7528F"/>
<path d="M20.6004 54.3186C19.6809 54.8296 18.4711 54.4683 17.8984 53.5117C17.3256 52.555 17.6068 51.3652 18.5264 50.8542C19.4459 50.3432 20.6557 50.7045 21.2284 51.6612C21.8012 52.6179 21.52 53.8077 20.6004 54.3186Z" fill="#F7528F"/>
<path d="M24.2564 57.4237C24.8815 56.5756 26.1084 56.4378 26.9967 57.1159C27.885 57.794 28.0983 59.0313 27.4732 59.8794C26.8481 60.7275 25.6212 60.8653 24.7329 60.1872C23.8446 59.5091 23.6312 58.2719 24.2564 57.4237Z" fill="#F7528F"/>
<path d="M19.916 59.2111C20.5412 58.363 21.768 58.2251 22.6563 58.9033C23.5446 59.5814 23.758 60.8186 23.1329 61.6667C22.5077 62.5149 21.2809 62.6527 20.3926 61.9746C19.5043 61.2965 19.2909 60.0592 19.916 59.2111Z" fill="#F7528F"/>
<path d="M26.7133 63.3496C27.1343 62.3828 28.2907 61.9971 29.2962 62.488C30.3017 62.979 30.7756 64.1607 30.3546 65.1275C29.9336 66.0942 28.7772 66.4799 27.7716 65.989C26.7661 65.4981 26.2923 64.3164 26.7133 63.3496Z" fill="#F7528F"/>
<path d="M22.8397 66.0005C23.2607 65.0337 24.4171 64.6479 25.4226 65.1389C26.4281 65.6299 26.902 66.8117 26.481 67.7785C26.06 68.7453 24.9036 69.131 23.8981 68.6401C22.8926 68.1491 22.4187 66.9673 22.8397 66.0005Z" fill="#F7528F"/>
<path d="M31.6899 70.2967C32.0562 69.3073 33.1872 68.863 34.2162 69.3045C35.2452 69.7459 35.7824 70.9059 35.4161 71.8954C35.0499 72.8849 33.9188 73.3291 32.8898 72.8877C31.8608 72.4462 31.3236 71.2862 31.6899 70.2967Z" fill="#F7528F"/>
<path d="M27.9589 73.1468C28.3252 72.1574 29.4563 71.7131 30.4852 72.1545C31.5142 72.596 32.0514 73.756 31.6852 74.7455C31.3189 75.735 30.1878 76.1792 29.1588 75.7378C28.1299 75.2963 27.5926 74.1363 27.9589 73.1468Z" fill="#F7528F"/>
<path d="M37.3691 76.3677C37.7354 75.3783 38.8664 74.934 39.8954 75.3755C40.9244 75.8169 41.4616 76.9768 41.0953 77.9663C40.729 78.9557 39.598 79.4 38.569 78.9585C37.5401 78.5171 37.0029 77.3571 37.3691 76.3677Z" fill="#F7528F"/>
<path d="M33.6381 79.2176C34.0044 78.2282 35.1355 77.7839 36.1644 78.2254C37.1934 78.6668 37.7307 79.8268 37.3644 80.8163C36.9981 81.8058 35.867 82.25 34.838 81.8086C33.809 81.3671 33.2718 80.2071 33.6381 79.2176Z" fill="#F7528F"/>
<path fill-rule="evenodd" clip-rule="evenodd" d="M33.8313 31.6162C33.4853 37.5632 34.1397 45.45 38.1475 53.1943C42.1524 60.9332 49.5006 68.5178 55.8375 74.1622C59.0075 76.9859 61.9276 79.3268 64.0553 80.9618C65.1192 81.7794 65.9851 82.4206 66.5852 82.8575C66.8852 83.0759 67.1188 83.2433 67.2775 83.3561C67.3568 83.4126 67.4174 83.4553 67.4583 83.4841C67.4787 83.4984 67.4941 83.5092 67.5045 83.5165L67.5193 83.5268L67.52 83.5273C67.5202 83.5275 67.5203 83.5275 67.6013 83.4112C67.6823 83.2948 67.6822 83.2947 67.6821 83.2946L67.6671 83.2842C67.6569 83.277 67.6416 83.2663 67.6214 83.2521C67.581 83.2237 67.5208 83.1812 67.4418 83.1251C67.284 83.0128 67.0512 82.846 66.7521 82.6282C66.1538 82.1926 65.2899 81.5529 64.2281 80.737C62.1045 79.1051 59.1899 76.7686 56.0261 73.9505C49.6953 68.3114 42.3795 60.755 38.3993 53.064C34.422 45.3785 33.7703 37.5468 34.1144 31.6327C34.2864 28.6761 34.7072 26.2004 35.0848 24.4645C35.2737 23.5966 35.4516 22.9137 35.5823 22.4484C35.6476 22.2157 35.701 22.0374 35.7381 21.9175C35.7566 21.8576 35.771 21.8123 35.7808 21.782C35.7857 21.7669 35.7894 21.7556 35.7918 21.7481L35.7946 21.7398L35.7953 21.7378L35.7954 21.7373C35.7954 21.7372 35.7954 21.7372 35.661 21.6921C35.5266 21.647 35.5266 21.6471 35.5265 21.6473L35.5263 21.6479L35.5255 21.6503L35.5225 21.6594C35.5198 21.6675 35.516 21.6793 35.5109 21.695C35.5008 21.7263 35.4861 21.7727 35.4672 21.8338C35.4294 21.9559 35.3753 22.1366 35.3093 22.3717C35.1772 22.842 34.9979 23.5303 34.8078 24.4042C34.4276 26.1518 34.0043 28.6423 33.8313 31.6162Z" fill="#420C0C"/>
<path d="M32.3197 34.9341C31.3764 35.4031 30.1803 34.9904 29.6481 34.0122C29.1159 33.0341 29.4492 31.8609 30.3925 31.3919C31.3359 30.9229 32.532 31.3357 33.0642 32.3138C33.5964 33.2919 33.2631 34.4651 32.3197 34.9341Z" fill="#F7528F"/>
<path d="M34.9134 18.8802C35.3476 18.6655 35.7992 17.3817 36.3235 17.5398C36.7741 17.6731 37.2865 19.2978 37.5731 19.821C38.1103 20.8017 37.7904 21.9702 36.8586 22.431C35.9268 22.8918 34.7361 22.4709 34.1988 21.4902C33.6616 20.5095 33.9815 19.341 34.9134 18.8802Z" fill="#F7528F"/>
<path d="M37.9879 28.267C37.0519 28.7295 35.8558 28.3064 35.3162 27.322C34.7766 26.3376 35.0979 25.1645 36.0339 24.702C36.9698 24.2395 38.1659 24.6625 38.7055 25.647C39.2451 26.6314 38.9238 27.8044 37.9879 28.267Z" fill="#F7528F"/>
<path d="M33.3008 28.0131C32.3649 28.4756 31.1688 28.0525 30.6292 27.0681C30.0897 26.0837 30.411 24.9106 31.3469 24.4481C32.2828 23.9855 33.4789 24.4086 34.0185 25.3931C34.5581 26.3775 34.2368 27.5505 33.3008 28.0131Z" fill="#F7528F"/>
<path d="M37.0201 35.1996C36.0842 35.6621 34.888 35.2391 34.3484 34.2546C33.8089 33.2702 34.1302 32.0972 35.0661 31.6346C36.002 31.1721 37.1982 31.5951 37.7377 32.5796C38.2773 33.564 37.956 34.737 37.0201 35.1996Z" fill="#F7528F"/>
<path d="M37.5381 41.8983C36.6022 42.3609 35.4061 41.9378 34.8665 40.9533C34.327 39.9689 34.6483 38.7959 35.5842 38.3333C36.5201 37.8708 37.7162 38.2939 38.2558 39.2783C38.7954 40.2628 38.4741 41.4358 37.5381 41.8983Z" fill="#F7528F"/>
<path d="M32.8526 41.6442C31.9167 42.1067 30.7205 41.6836 30.181 40.6992C29.6414 39.7148 29.9627 38.5417 30.8986 38.0792C31.8345 37.6167 33.0307 38.0397 33.5703 39.0242C34.1098 40.0086 33.7885 41.1816 32.8526 41.6442Z" fill="#F7528F"/>
<path d="M36.339 44.8935C36.9963 44.08 38.2313 44.003 39.0974 44.7214C39.9635 45.4399 40.1328 46.6818 39.4754 47.4953C38.818 48.3088 37.583 48.3858 36.7169 47.6673C35.8508 46.9488 35.6816 45.7069 36.339 44.8935Z" fill="#F7528F"/>
<path d="M31.9245 46.4907C32.5818 45.6772 33.8167 45.6002 34.6828 46.3187C35.5489 47.0372 35.7181 48.2791 35.0608 49.0927C34.4035 49.9062 33.1685 49.9832 32.3024 49.2647C31.4364 48.5462 31.2671 47.3042 31.9245 46.4907Z" fill="#F7528F"/>
<path d="M38.5371 50.9209C38.9957 49.9797 40.1709 49.6513 41.162 50.1875C42.1531 50.7237 42.5848 51.9214 42.1262 52.8626C41.6676 53.8039 40.4925 54.1322 39.5013 53.596C38.5102 53.0598 38.0785 51.8622 38.5371 50.9209Z" fill="#F7528F"/>
<path d="M34.5522 53.4013C35.0108 52.4601 36.186 52.1318 37.1772 52.6679C38.1683 53.2041 38.6 54.4017 38.1414 55.3429C37.6828 56.2841 36.5076 56.6125 35.5165 56.0763C34.5253 55.5402 34.0936 54.3425 34.5522 53.4013Z" fill="#F7528F"/>
<path d="M43.2066 58.0778C43.6115 57.1116 44.7639 56.7235 45.7806 57.2111C46.7973 57.6988 47.2933 58.8774 46.8884 59.8436C46.4835 60.8099 45.3311 61.198 44.3144 60.7103C43.2977 60.2227 42.8017 59.0441 43.2066 58.0778Z" fill="#F7528F"/>
<path d="M39.3569 60.7632C39.7619 59.7969 40.9143 59.4088 41.9311 59.8964C42.9478 60.384 43.4437 61.5627 43.0388 62.5289C42.6339 63.4952 41.4814 63.8833 40.4647 63.3957C39.448 62.9081 38.952 61.7294 39.3569 60.7632Z" fill="#F7528F"/>
<path d="M48.6172 64.3891C49.0221 63.4228 50.1746 63.0348 51.1913 63.5224C52.208 64.01 52.704 65.1886 52.2991 66.1549C51.8942 67.1212 50.7417 67.5092 49.725 67.0216C48.7083 66.534 48.2123 65.3554 48.6172 64.3891Z" fill="#F7528F"/>
<path d="M44.7662 67.0747C45.1711 66.1084 46.3235 65.7203 47.3402 66.208C48.3569 66.6956 48.8529 67.8742 48.448 68.8405C48.0431 69.8067 46.8906 70.1948 45.8739 69.7072C44.8572 69.2196 44.3613 68.041 44.7662 67.0747Z" fill="#F7528F"/>
<path d="M108.191 112.051H77.4004V130.485H108.191V112.051Z" fill="#D7CFE6"/>
<path d="M112.04 129.269H73.3496V132.713H112.04V129.269Z" fill="#4F305F"/>
<path d="M151.135 35.6831H33.6455V114.684H151.135V35.6831Z" fill="#4F305F"/>
<path d="M147.489 40.5447H37.0894V110.025H147.489V40.5447Z" fill="#BDCFF7"/>
<path d="M172.265 14.6161C173.286 14.6161 174.265 15.0216 174.987 15.7434C175.709 16.4652 176.114 17.4441 176.114 18.4649V54.2491C176.114 55.2698 175.709 56.2488 174.987 56.9706C174.265 57.6923 173.286 58.0978 172.265 58.0978L128.983 58.0978C122.85 63.6772 114.989 72.9258 114.989 72.9258L113.341 58.0978H108.031C107.011 58.0978 106.032 57.6923 105.31 56.9706C104.588 56.2488 104.183 55.2698 104.183 54.2491V18.4649C104.183 17.4441 104.588 16.4652 105.31 15.7434C106.032 15.0216 107.011 14.6161 108.031 14.6161L172.265 14.6161Z" fill="#5B3FA7"/>
<path d="M155.148 40.9499C157.553 40.9499 159.503 39 159.503 36.5947C159.503 34.1894 157.553 32.2395 155.148 32.2395C152.743 32.2395 150.793 34.1894 150.793 36.5947C150.793 39 152.743 40.9499 155.148 40.9499Z" fill="white"/>
<path d="M140.159 40.9499C142.564 40.9499 144.514 39 144.514 36.5947C144.514 34.1894 142.564 32.2395 140.159 32.2395C137.754 32.2395 135.804 34.1894 135.804 36.5947C135.804 39 137.754 40.9499 140.159 40.9499Z" fill="white"/>
<path d="M125.067 40.9499C127.416 40.9499 129.321 39 129.321 36.5947C129.321 34.1894 127.416 32.2395 125.067 32.2395C122.718 32.2395 120.813 34.1894 120.813 36.5947C120.813 39 122.718 40.9499 125.067 40.9499Z" fill="white"/>
<path d="M76.4565 108.514C81.065 107.354 85.0732 107.969 90.812 103.556C93.7154 101.322 96.2441 100.269 98.6798 97.129C101.115 93.9893 101.563 91.9421 101.083 90.8343C100.603 89.7265 98.3141 88.8275 95.5235 89.4588C92.7329 90.09 89.3925 93.5217 89.3925 93.5217C89.3925 93.5217 85.6884 97.3321 82.1862 100.187C78.684 103.042 77.9299 102.982 75.4776 104.984C73.0254 106.987 72.3777 108.195 72.3777 108.195C72.3777 108.195 71.8481 109.674 76.4565 108.514Z" fill="#075088"/>
<path fill-rule="evenodd" clip-rule="evenodd" d="M72.5707 108.584C72.4963 108.56 72.4558 108.48 72.4803 108.405C72.4961 108.357 72.53 108.322 72.5524 108.301C72.5787 108.276 72.6113 108.251 72.6472 108.226C72.7194 108.176 72.8181 108.118 72.9383 108.053C73.1795 107.922 73.5206 107.756 73.9406 107.557C74.37 107.355 74.8866 107.117 75.468 106.85C76.022 106.595 76.6348 106.313 77.287 106.009C79.9668 104.758 83.3371 103.115 86.1828 101.336C89.0287 99.5563 91.3191 97.7411 92.8977 96.371C93.687 95.686 94.2982 95.1125 94.7117 94.7105C94.9185 94.5095 95.0758 94.3514 95.1813 94.2437C95.234 94.1899 95.2738 94.1487 95.3003 94.121C95.3136 94.1072 95.3235 94.0967 95.3301 94.0898L95.3374 94.082L95.3392 94.0801L95.3397 94.0796C95.3397 94.0796 95.3397 94.0796 95.357 94.0957L95.3397 94.0796C95.3933 94.0224 95.483 94.0195 95.5401 94.0731C95.5973 94.1266 95.6002 94.2163 95.5466 94.2735L95.4432 94.1765C95.5466 94.2735 95.5466 94.2735 95.5465 94.2735L95.5464 94.2737L95.5438 94.2764L95.5359 94.2848C95.529 94.2921 95.5187 94.3029 95.5051 94.3171C95.4779 94.3456 95.4373 94.3876 95.3838 94.4422C95.2768 94.5514 95.1178 94.7111 94.9094 94.9138C94.4924 95.3191 93.8773 95.8964 93.0836 96.5852C91.4964 97.9627 89.1942 99.7873 86.3331 101.576C83.4718 103.365 80.0881 105.014 77.4069 106.266C76.7505 106.572 76.1377 106.854 75.5846 107.108C75.0053 107.375 74.4915 107.611 74.0616 107.814C73.6421 108.012 73.3071 108.176 73.0735 108.302C72.9563 108.366 72.868 108.418 72.8083 108.459C72.7782 108.48 72.7587 108.496 72.7472 108.507C72.7454 108.508 72.744 108.51 72.7429 108.511C72.7126 108.574 72.6392 108.607 72.5707 108.584Z" fill="#FFFDD9"/>
<path d="M72.7975 108.864C76.1804 106.822 79.5167 106.335 83.0069 101.432C84.7727 98.9501 86.5273 97.4977 87.7008 94.4091C88.8743 91.3206 88.732 89.5842 88.0812 88.8199C87.4303 88.0556 85.3922 87.8972 83.3266 89.0775C81.261 90.2579 79.4393 93.7986 79.4393 93.7986C79.4393 93.7986 77.4205 97.7284 75.3296 100.849C73.2387 103.97 72.6247 104.107 71.1616 106.295C69.6984 108.484 69.4776 109.602 69.4776 109.602C69.4776 109.602 69.4151 110.907 72.7975 108.864Z" fill="#3B72AA"/>
<path fill-rule="evenodd" clip-rule="evenodd" d="M84.4717 92.7208C84.542 92.7553 84.571 92.8403 84.5365 92.9106L84.4268 92.8567C84.5365 92.9106 84.5365 92.9106 84.5365 92.9106L84.5364 92.9108L84.5361 92.9114L84.535 92.9137L84.5307 92.9223C84.527 92.9298 84.5214 92.941 84.514 92.9556C84.4992 92.9849 84.4772 93.0282 84.4479 93.0848C84.3892 93.1978 84.3016 93.3637 84.185 93.5757C83.9518 93.9998 83.6028 94.6088 83.1389 95.35C82.2113 96.8321 80.8235 98.8438 78.9824 100.963C77.1411 103.082 74.8506 105.216 73.0229 106.863C72.5751 107.267 72.1562 107.64 71.7782 107.977C71.3827 108.329 71.0319 108.642 70.7395 108.908C70.4541 109.167 70.228 109.378 70.0735 109.535C69.996 109.614 69.9392 109.676 69.9025 109.723C69.884 109.746 69.8731 109.762 69.8675 109.772C69.8674 109.772 69.8673 109.772 69.8672 109.773C69.855 109.84 69.7953 109.89 69.7247 109.889C69.6464 109.887 69.5843 109.822 69.586 109.744C69.587 109.696 69.6079 109.655 69.621 109.632C69.6367 109.604 69.6574 109.575 69.6803 109.547C69.7264 109.488 69.7915 109.418 69.8714 109.336C70.0318 109.173 70.263 108.957 70.5488 108.698C70.8408 108.432 71.1939 108.118 71.5912 107.764C71.9699 107.426 72.3887 107.053 72.8331 106.653C74.6596 105.007 76.9392 102.882 78.7684 100.777C80.5978 98.6713 81.9769 96.6721 82.8986 95.1995C83.3593 94.4633 83.7056 93.859 83.9365 93.4391C84.0519 93.2292 84.1385 93.0653 84.1961 92.9542C84.2249 92.8987 84.2465 92.8563 84.2608 92.8279C84.2679 92.8138 84.2733 92.8031 84.2768 92.796L84.2807 92.7881L84.2819 92.7857L84.2819 92.7856C84.3164 92.7153 84.4014 92.6863 84.4717 92.7208ZM69.8641 109.779C69.8641 109.779 69.8643 109.778 69.8649 109.777C69.8645 109.778 69.8642 109.779 69.8641 109.779Z" fill="#FFFDD9"/>
<path d="M48.699 107.704C44.0906 106.544 40.0823 107.158 34.3435 102.745C31.44 100.512 28.9113 99.4581 26.4757 96.3184C24.04 93.1786 23.5924 91.1307 24.0727 90.0237C24.5529 88.9167 26.8413 88.0169 29.6321 88.6487C32.4228 89.2806 35.7631 92.7117 35.7631 92.7117C35.7631 92.7117 39.467 96.5214 42.969 99.3756C46.4709 102.23 47.2256 102.171 49.6777 104.174C52.1298 106.176 52.7776 107.385 52.7776 107.385C52.7776 107.385 53.3073 108.863 48.699 107.704Z" fill="#075088"/>
<path fill-rule="evenodd" clip-rule="evenodd" d="M29.6158 93.2625C29.6729 93.209 29.7626 93.2119 29.8162 93.269L29.8049 93.2796C29.8161 93.2691 29.8162 93.269 29.8162 93.269L29.8167 93.2696L29.8185 93.2714L29.8258 93.2792C29.8324 93.2862 29.8423 93.2966 29.8556 93.3105C29.8821 93.3381 29.9219 93.3793 29.9746 93.4332C30.0801 93.5408 30.2374 93.6989 30.4442 93.8999C30.8577 94.3019 31.4689 94.8755 32.2581 95.5605C33.8368 96.9306 36.1272 98.7458 38.9731 100.525C41.8188 102.305 45.1892 103.947 47.869 105.198C48.5215 105.503 49.1345 105.785 49.6887 106.04C50.2698 106.307 50.7861 106.544 51.2154 106.747C51.6353 106.945 51.9765 107.112 52.2176 107.243C52.3378 107.308 52.4365 107.366 52.5087 107.416C52.5446 107.44 52.5772 107.465 52.6035 107.49C52.6259 107.511 52.6598 107.547 52.6756 107.595C52.7001 107.669 52.6596 107.749 52.5853 107.774C52.5167 107.796 52.4433 107.764 52.4131 107.7C52.4119 107.699 52.4105 107.698 52.4088 107.696C52.3973 107.685 52.3777 107.67 52.3477 107.649C52.288 107.608 52.1997 107.555 52.0825 107.492C51.8489 107.365 51.5139 107.201 51.0944 107.003C50.6646 106.801 50.151 106.564 49.572 106.298C49.0187 106.044 48.4057 105.762 47.749 105.455C45.0678 104.204 41.6841 102.555 38.8228 100.766C35.9617 98.9768 33.6595 97.1522 32.0723 95.7747C31.2786 95.0858 30.6635 94.5086 30.2465 94.1033C30.0381 93.9006 29.8791 93.7409 29.7721 93.6316C29.7185 93.577 29.678 93.535 29.6508 93.5066C29.6372 93.4924 29.6269 93.4816 29.6199 93.4742L29.6121 93.4659L29.61 93.4637L29.6093 93.463C29.6093 93.463 29.6093 93.4629 29.7127 93.366L29.6093 93.4629C29.5557 93.4058 29.5586 93.3161 29.6158 93.2625Z" fill="#FFFDD9"/>
<path d="M52.3587 108.054C48.9758 106.011 45.6396 105.525 42.1493 100.621C40.3835 98.1398 38.6289 96.6874 37.4554 93.5988C36.282 90.5103 36.4241 88.7739 37.0749 88.0096C37.7258 87.2453 39.7641 87.0869 41.8296 88.2672C43.8952 89.4476 45.7169 92.9883 45.7169 92.9883C45.7169 92.9883 47.7357 96.9181 49.8266 100.039C51.9175 103.16 52.5315 103.297 53.9947 105.485C55.4578 107.673 55.6786 108.792 55.6786 108.792C55.6786 108.792 55.7412 110.097 52.3587 108.054Z" fill="#3B72AA"/>
<path fill-rule="evenodd" clip-rule="evenodd" d="M40.6839 91.9103C40.7541 91.8758 40.8391 91.9048 40.8736 91.9751L40.7463 92.0376L40.619 92.1C40.5845 92.0297 40.6136 91.9448 40.6839 91.9103ZM55.2883 108.962C55.2882 108.962 55.2882 108.962 55.2881 108.962C55.2824 108.952 55.2715 108.936 55.253 108.912C55.2163 108.866 55.1596 108.804 55.082 108.725C54.9275 108.568 54.7015 108.356 54.416 108.097C54.1236 107.831 53.7728 107.519 53.3773 107.166C52.9993 106.83 52.5804 106.456 52.1326 106.053C50.3048 104.406 48.0143 102.271 46.173 100.152C44.3319 98.0332 42.9442 96.0216 42.0165 94.5394C41.5527 93.7983 41.2037 93.1893 40.9705 92.7652C40.8539 92.5531 40.7663 92.3873 40.7077 92.2742C40.6784 92.2177 40.6563 92.1744 40.6415 92.1451C40.6341 92.1304 40.6286 92.1193 40.6248 92.1117L40.6206 92.1031L40.6194 92.1009L40.6191 92.1001C40.619 92.1001 40.619 92.1 40.7463 92.0376L40.8736 91.9751L40.8739 91.9756L40.8748 91.9775L40.8787 91.9855C40.8822 91.9925 40.8876 92.0032 40.8947 92.0174C40.909 92.0458 40.9306 92.0882 40.9594 92.1437C41.017 92.2548 41.1036 92.4186 41.219 92.6286C41.4499 93.0485 41.7962 93.6528 42.2569 94.389C43.1785 95.8615 44.5576 97.8607 46.387 99.9663C48.2163 102.072 50.4958 104.196 52.3224 105.842C52.7668 106.243 53.1857 106.616 53.5644 106.953C53.9616 107.307 54.3147 107.622 54.6067 107.887C54.8925 108.147 55.1237 108.363 55.2841 108.526C55.3641 108.607 55.4292 108.678 55.4752 108.736C55.4981 108.765 55.5188 108.794 55.5345 108.821C55.5476 108.844 55.5685 108.885 55.5696 108.934C55.5712 109.012 55.5091 109.077 55.4308 109.078C55.3602 109.08 55.3005 109.029 55.2883 108.962ZM55.2914 108.968C55.2914 108.968 55.2911 108.968 55.2906 108.966C55.2912 108.967 55.2914 108.968 55.2914 108.968Z" fill="#FFFDD9"/>
<path d="M84.332 74.0097C84.332 74.0097 85.2274 68.9204 85.9953 68.1097C86.7632 67.299 89.9565 65.4285 89.9565 65.4285C89.9565 65.4285 91.6986 65.7074 92.0476 66.1498C92.3966 66.5922 91.9172 67.1981 92.0476 67.7361C92.1781 68.2742 92.473 68.587 92.4803 68.8179C92.4876 69.0488 92.0476 69.7554 92.0476 69.7554C92.0476 69.7554 91.6149 70.7648 91.6149 71.414C91.6149 72.0632 92.422 72.0458 92.0476 72.3515C91.6733 72.6571 87.5046 75.5243 87.5046 75.5243L84.332 74.0097Z" fill="#FDD9C8"/>
<path fill-rule="evenodd" clip-rule="evenodd" d="M89.9473 65.3789L89.964 65.3816L89.9566 65.4283L89.9327 65.3875L89.9473 65.3789ZM92.0897 69.777L92.0928 69.772C92.0945 69.7693 92.0964 69.7661 92.0988 69.7623C92.1011 69.7584 92.1039 69.7539 92.1069 69.7489C92.119 69.729 92.1363 69.7003 92.157 69.6651C92.1984 69.5949 92.2535 69.4987 92.3085 69.3952C92.3634 69.2918 92.4185 69.1802 92.4596 69.0794C92.4997 68.981 92.5298 68.8851 92.5276 68.8162C92.5255 68.7494 92.5028 68.68 92.4713 68.608C92.4442 68.5461 92.409 68.4788 92.3712 68.4066C92.3649 68.3945 92.3585 68.3824 92.3521 68.3701C92.2615 68.1964 92.1574 67.9879 92.0936 67.7248C92.063 67.5986 92.0677 67.4667 92.0884 67.3304C92.1033 67.2325 92.1258 67.1351 92.1486 67.0366C92.1578 66.9969 92.167 66.9571 92.1758 66.917C92.2356 66.6435 92.2742 66.3605 92.0848 66.1203C91.9894 65.9994 91.8048 65.8952 91.5918 65.8066C91.3766 65.7171 91.1237 65.6401 90.8832 65.5773C90.6424 65.5145 90.4127 65.4656 90.2433 65.4324C90.1586 65.4158 90.0888 65.4031 90.0403 65.3946C90.016 65.3903 89.997 65.3871 89.984 65.3849C89.9775 65.3838 89.9726 65.383 89.9692 65.3824L89.9654 65.3818L89.9641 65.3816C89.9641 65.3816 89.964 65.3816 89.9566 65.4283C89.9327 65.3875 89.9327 65.3875 89.9327 65.3875L89.9234 65.3929L89.8965 65.4087C89.8729 65.4227 89.8382 65.4432 89.7937 65.4696C89.7048 65.5224 89.577 65.5987 89.4212 65.6927C89.1096 65.8809 88.6861 66.1403 88.2386 66.425C87.7911 66.7097 87.3192 67.02 86.9109 67.31C86.5035 67.5994 86.1565 67.8706 85.961 68.077C85.8594 68.1843 85.7588 68.3584 85.6603 68.5763C85.5614 68.7952 85.4628 69.0623 85.3665 69.3588C85.174 69.9518 84.9897 70.6654 84.8297 71.3528C84.6696 72.0403 84.5336 72.7024 84.4376 73.1925C84.3896 73.4376 84.3516 73.6397 84.3256 73.7806C84.3126 73.8511 84.3026 73.9062 84.2958 73.9438C84.2924 73.9625 84.2898 73.9769 84.2881 73.9866L84.2855 74.0012C84.2855 74.0013 84.2855 74.0013 84.3321 74.0095L84.2855 74.0012L84.2793 74.0367L87.509 75.5785L87.5315 75.563L87.5047 75.5241C87.5315 75.563 87.5314 75.563 87.5315 75.563L87.5316 75.5629L87.5784 75.5307C87.609 75.5097 87.654 75.4787 87.7113 75.4392C87.8261 75.3602 87.9904 75.247 88.1887 75.1102C88.5854 74.8366 89.1182 74.4687 89.6627 74.0911C90.7503 73.3371 91.8885 72.5422 92.0775 72.3879C92.1266 72.3478 92.1614 72.3092 92.1795 72.2695C92.1989 72.2272 92.1982 72.1861 92.1811 72.1478C92.1653 72.1125 92.1368 72.0825 92.1063 72.0559C92.0789 72.032 92.046 72.0076 92.0123 71.9826C92.0082 71.9796 92.004 71.9765 91.9999 71.9734C91.8457 71.859 91.6622 71.7135 91.6622 71.4138C91.6622 71.0971 91.7683 70.6885 91.8763 70.3556C91.93 70.1899 91.9838 70.0443 92.0241 69.9401C92.0443 69.888 92.0611 69.8463 92.0728 69.8177C92.0787 69.8034 92.0833 69.7924 92.0864 69.7849L92.0897 69.777ZM92.0477 69.7552L92.0075 69.7302L92.0076 69.7301L92.0078 69.7297L92.0087 69.7282L92.0124 69.7224C92.0155 69.7172 92.0202 69.7096 92.0262 69.6998C92.0381 69.6802 92.0551 69.6519 92.0756 69.6172C92.1165 69.5477 92.1709 69.4528 92.225 69.3509C92.2792 69.2488 92.3327 69.1404 92.372 69.0438C92.4124 68.9447 92.4346 68.8658 92.4331 68.8192C92.4316 68.7705 92.4146 68.7142 92.3847 68.6458C92.3591 68.5873 92.3256 68.5234 92.2877 68.4509C92.2813 68.4388 92.2749 68.4264 92.2683 68.4138C92.177 68.2389 92.0684 68.0219 92.0017 67.7471C91.9671 67.6042 91.9734 67.4586 91.995 67.3162C92.0104 67.2145 92.0342 67.1115 92.0573 67.0117C92.0663 66.9728 92.0752 66.9345 92.0835 66.8968C92.1435 66.6223 92.1701 66.3811 92.0106 66.1789C91.9314 66.0786 91.7673 65.982 91.5555 65.8939C91.346 65.8067 91.0979 65.731 90.8593 65.6688C90.6209 65.6066 90.3933 65.5581 90.2251 65.5251C90.1411 65.5087 90.072 65.4961 90.0239 65.4877C89.9999 65.4834 89.9811 65.4802 89.9684 65.4781C89.9675 65.478 89.9666 65.4778 89.9658 65.4777L89.9445 65.4902C89.921 65.504 89.8863 65.5245 89.842 65.5509C89.7532 65.6035 89.6256 65.6797 89.47 65.7737C89.1589 65.9616 88.736 66.2205 88.2893 66.5047C87.8425 66.789 87.3721 67.0984 86.9656 67.3871C86.5583 67.6764 86.2181 67.943 86.0297 68.142C85.9393 68.2374 85.8439 68.3996 85.7465 68.6152C85.6495 68.8298 85.5521 69.0933 85.4564 69.388C85.2651 69.9772 85.0816 70.6879 84.9218 71.3742C84.762 72.0603 84.6262 72.7212 84.5303 73.2107C84.4824 73.4554 84.4445 73.6572 84.4185 73.7978C84.4055 73.8681 84.3956 73.9231 84.3888 73.9605C84.3874 73.9686 84.3861 73.9759 84.3849 73.9823L87.5004 75.4697L87.5248 75.4529C87.5554 75.4318 87.6004 75.4009 87.6577 75.3614C87.7724 75.2824 87.9367 75.1692 88.135 75.0324C88.5317 74.7589 89.0644 74.3909 89.6089 74.0135C90.6992 73.2575 91.8325 72.4659 92.0178 72.3146C92.0623 72.2783 92.0842 72.2506 92.0936 72.2302C92.1017 72.2124 92.1008 72.1997 92.0948 72.1864C92.0876 72.1702 92.0717 72.1511 92.0442 72.1271C92.0198 72.1058 91.9901 72.0838 91.9558 72.0584C91.9518 72.0554 91.9477 72.0524 91.9435 72.0493C91.7878 71.9337 91.5677 71.7633 91.5677 71.4138C91.5677 71.0812 91.678 70.6605 91.7864 70.3264C91.8408 70.1587 91.8952 70.0113 91.936 69.906C91.9564 69.8533 91.9734 69.811 91.9853 69.7819C91.9913 69.7673 91.996 69.756 91.9992 69.7484L92.0029 69.7396L92.0041 69.7368L92.0042 69.7366C92.0042 69.7366 92.0042 69.7365 92.0477 69.7552ZM92.0477 69.7552L92.0042 69.7366L92.0056 69.7332L92.0075 69.7302L92.0477 69.7552Z" fill="#707070"/>
<path d="M89.6958 66.8439L90.7562 62.8296C90.7562 62.8296 92.1702 63.0322 92.0944 63.0822C92.0186 63.1322 91.135 66.2885 91.135 66.2885L89.6958 66.8439Z" fill="white"/>
<path fill-rule="evenodd" clip-rule="evenodd" d="M91.2829 66.0488L91.3403 66.1239L88.684 68.1545C88.6841 68.1553 88.6841 68.1561 88.6842 68.157C88.6855 68.1747 88.6876 68.2004 88.6909 68.2323C88.6976 68.2961 88.709 68.3841 88.7282 68.4812C88.7668 68.6767 88.8352 68.8997 88.952 69.0384C89.0432 69.1237 89.1515 69.1887 89.2698 69.229C89.3888 69.2696 89.5152 69.2842 89.6404 69.2719L89.7463 69.2615L89.4603 69.6485L89.0574 70.1967C89.0564 70.2018 89.0551 70.2087 89.0537 70.2173C89.0505 70.237 89.0464 70.2654 89.0433 70.2995C89.037 70.3681 89.0346 70.4582 89.049 70.5473C89.0634 70.6368 89.0942 70.7211 89.1508 70.7825C89.206 70.8424 89.2901 70.8853 89.4222 70.8853C89.5575 70.8853 89.7411 70.8404 89.9441 70.7699C90.1458 70.6998 90.3623 70.6062 90.5616 70.5121C90.7608 70.4182 90.9423 70.3241 91.074 70.2536C91.1398 70.2183 91.1931 70.1889 91.23 70.1684C91.2484 70.1581 91.2627 70.15 91.2724 70.1446L91.2834 70.1383L91.2861 70.1367L91.287 70.1362L91.3106 70.1772C91.3341 70.2182 91.3341 70.2182 91.3341 70.2182L91.3331 70.2187L91.3302 70.2204L91.319 70.2268C91.3091 70.2324 91.2946 70.2405 91.276 70.2509C91.2388 70.2717 91.1849 70.3013 91.1186 70.3369C90.986 70.4079 90.803 70.5028 90.6019 70.5976C90.401 70.6924 90.1812 70.7876 89.9751 70.8592C89.7701 70.9304 89.5741 70.9798 89.4222 70.9798C89.2672 70.9798 89.1566 70.9283 89.0813 70.8466C89.0073 70.7664 88.9717 70.6618 88.9556 70.5624C88.9395 70.4627 88.9425 70.3639 88.9492 70.2909C88.9525 70.2542 88.9569 70.2236 88.9605 70.202C88.9622 70.1912 88.9638 70.1826 88.9649 70.1767C88.9655 70.1737 88.966 70.1714 88.9663 70.1698L88.9667 70.1679L88.9668 70.1674L88.9669 70.1672C88.9669 70.1672 88.9669 70.1671 89.0131 70.1772L88.9669 70.1671L88.969 70.1573L89.3842 69.5924L89.5481 69.3707C89.4432 69.37 89.3389 69.3525 89.2393 69.3185C89.1074 69.2735 88.9867 69.2009 88.8853 69.1054L88.8834 69.1036L88.8817 69.1016C88.7471 68.9434 88.6747 68.6982 88.6355 68.4995C88.6156 68.3989 88.6038 68.3079 88.5969 68.2421C88.5935 68.2091 88.5913 68.1824 88.5899 68.1638C88.5892 68.1545 88.5888 68.1473 88.5885 68.1423L88.5882 68.1366L88.5881 68.135L88.5881 68.1346L88.5881 68.1345C88.5881 68.1345 88.5881 68.1344 88.6353 68.1322L88.5881 68.1345L88.5869 68.1097L91.2829 66.0488Z" fill="#707070"/>
<path fill-rule="evenodd" clip-rule="evenodd" d="M91.6177 68.1228L90.3306 68.8583L90.2837 68.7763L91.5708 68.0408L91.6177 68.1228Z" fill="#707070"/>
<path fill-rule="evenodd" clip-rule="evenodd" d="M90.0659 71.2166C90.0659 71.2165 90.0659 71.2165 90.0956 71.2534C90.1252 71.2902 90.1252 71.2902 90.1252 71.2902L90.125 71.2903L90.1241 71.2911L90.1204 71.2941C90.1171 71.2968 90.1122 71.3009 90.106 71.3062C90.0934 71.3169 90.0754 71.3325 90.0538 71.3522C90.0104 71.3917 89.9528 71.4473 89.8953 71.5118C89.8376 71.5765 89.781 71.6492 89.7391 71.7229C89.6968 71.7971 89.6717 71.8685 89.6717 71.9315C89.6717 72.0569 89.7724 72.1739 89.8891 72.265C89.9457 72.3092 90.0025 72.3446 90.0454 72.369C90.0667 72.3812 90.0845 72.3905 90.0968 72.3968C90.0976 72.3972 90.0984 72.3976 90.0992 72.398L91.3977 71.9758L91.4269 72.0657L90.0925 72.4996L90.0757 72.4917L90.0956 72.4489C90.0757 72.4917 90.0757 72.4918 90.0757 72.4917L90.0755 72.4917L90.0752 72.4915L90.074 72.4909L90.0697 72.4889C90.066 72.4871 90.0606 72.4844 90.0539 72.481C90.0404 72.4742 90.0214 72.4641 89.9986 72.4511C89.9531 72.4252 89.8921 72.3873 89.8309 72.3395C89.712 72.2466 89.5771 72.1048 89.5771 71.9315C89.5771 71.8451 89.6109 71.757 89.657 71.6761C89.7034 71.5946 89.7646 71.5164 89.8247 71.4489C89.885 71.3813 89.9451 71.3233 89.9901 71.2823C90.0127 71.2618 90.0315 71.2455 90.0447 71.2342C90.0513 71.2286 90.0566 71.2242 90.0602 71.2212L90.0644 71.2178L90.0655 71.2169L90.0658 71.2167L90.0659 71.2166Z" fill="#707070"/>
<path d="M70.1191 86.5924C72.8611 89.0603 75.0547 90.8881 78.1623 92.32C81.2699 93.752 82.5495 92.32 82.5495 92.32C82.5495 92.32 83.9128 91.9634 85.5272 87.485C87.1417 83.0066 89.0081 74.4059 89.0081 74.4059C89.0081 74.4059 87.831 73.4007 86.5514 73.0656C85.6746 72.8733 84.7666 72.8733 83.8899 73.0656L79.1368 84.0336C79.1368 84.0336 73.4945 75.8791 71.6171 75.4954C69.7397 75.1118 67.1938 82.4493 67.1938 82.4493C67.1938 82.4493 67.3772 84.1256 70.1191 86.5924Z" fill="#5E8386"/>
<path d="M51.4734 85.3391L54.6424 95.1788L51.4734 110H76.9758L71.9112 94.2358C71.9112 94.2358 73.0208 88.8172 72.2441 86.2736C71.4673 83.73 70.0781 84.1278 70.4134 81.8501C70.5178 81.1418 70.3841 80.3914 70.6908 79.3622C71.0721 77.9869 71.3302 76.5805 71.4619 75.1597C71.4619 75.1597 70.117 73.8129 68.4716 73.1694C66.8261 72.5259 64.8802 72.5848 64.8802 72.5848L62.4426 78.6587L54.6428 71.9773L50.1333 74.4068L51.4734 85.3391Z" fill="#5E8386"/>
<path d="M67.9102 109.924L72.0398 94.6399L77.227 109.924H67.9102Z" fill="#567577"/>
<path d="M61.2912 98.2344L63.8982 99.5105C63.8982 99.5105 65.1116 98.8161 66.0061 98.7339C66.9007 98.6516 69.3983 98.8785 69.8889 99.0112C70.3796 99.1439 70.3796 99.4064 69.8889 99.5105C69.3983 99.6146 67.5037 100.01 67.5037 100.01V100.62C67.5037 100.62 68.6962 101.452 69.8889 101.729C71.0817 102.007 71.6778 101.397 72.2742 101.729C72.8705 102.062 72.4148 102.755 72.2742 103.061C72.1336 103.367 71.0689 104.625 70.6101 104.947C70.1513 105.268 69.7233 106.037 68.6132 105.945C67.5031 105.854 59.4053 102.117 59.4053 102.117L61.2912 98.2344Z" fill="#FDD9C8"/>
<path d="M50.4424 74.374C50.4424 74.374 46.3708 80.9648 44.4519 85.8394C42.5329 90.714 42.502 94.0492 42.502 94.0492C42.502 94.0492 42.8706 97.2325 44.4519 98.071C46.0331 98.9094 59.928 102.946 59.928 102.946L62.1216 98.071C62.1216 98.071 51.451 93.1224 51.451 91.8967C51.451 90.671 54.6238 84.3252 54.6238 84.3252C54.6238 84.3252 53.9851 78.7841 52.8931 77.1862C52.179 76.1639 51.3574 75.2212 50.4424 74.374Z" fill="#5E8386"/>
<path d="M60.3208 50.2152C56.2087 51.0986 55.9401 52.6849 53.3983 58.7962C50.8564 64.9075 50.1533 74.6603 50.1533 74.6603C50.1533 74.6603 58.9743 81.4124 64.359 81.7991C69.7436 82.1858 73.0123 76.3189 73.0123 76.3189C73.0123 76.3189 74.0298 60.7234 70.849 55.4068C67.6683 50.0903 64.4329 49.3316 60.3208 50.2152Z" fill="#E07E7D"/>
<path d="M62.8081 53.8113C65.4571 53.8113 69.267 58.7065 69.267 62.5855C69.267 66.4645 67.6507 70.8725 65.0015 70.8725C62.3523 70.8725 57.2026 67.4396 57.2026 63.5598C57.2026 59.6801 60.1589 53.8113 62.8081 53.8113Z" fill="#EFBBA3"/>
<path d="M64.5146 61.8516L66.1082 65.0387H64.5146V61.8516Z" fill="#E3A181"/>
<path fill-rule="evenodd" clip-rule="evenodd" d="M54.6048 67.622C54.6725 65.6822 54.9044 63.5616 55.0976 62.2007L55.1912 62.214C54.9983 63.5726 54.7668 65.6898 54.6993 67.6253C54.6656 68.5932 54.6729 69.5144 54.7462 70.272C54.7828 70.6509 54.8359 70.9879 54.9082 71.2689C54.9807 71.5505 55.0718 71.7727 55.1825 71.9243L55.1062 71.9801C54.9853 71.8145 54.8905 71.5791 54.8167 71.2924C54.7427 71.0051 54.689 70.6629 54.6521 70.2811C54.5782 69.5176 54.571 68.5918 54.6048 67.622Z" fill="white"/>
<path fill-rule="evenodd" clip-rule="evenodd" d="M79.0507 84.3344C79.2867 83.7676 79.6355 83.2401 79.8852 82.9268L79.9591 82.9858C79.7136 83.2937 79.3699 83.8137 79.1379 84.3707C78.9049 84.9304 78.7901 85.5145 78.9834 85.9591L78.8967 85.9968C78.6872 85.5148 78.8158 84.8987 79.0507 84.3344Z" fill="white"/>
<path fill-rule="evenodd" clip-rule="evenodd" d="M70.4646 73.4275C70.8308 71.8038 70.9439 69.9191 70.9356 68.6791L71.0301 68.6785C71.0385 69.923 70.9251 71.8154 70.5568 73.4483C70.3727 74.2646 70.1243 75.0189 69.7939 75.5955C69.4639 76.1714 69.0475 76.5776 68.5244 76.6822L68.5059 76.5895C68.99 76.4927 69.3878 76.1141 69.7119 75.5485C70.0356 74.9835 70.2815 74.2396 70.4646 73.4275Z" fill="white"/>
<path d="M135.545 78.9452L103.145 59.1855L99.8394 67.1195L134.368 83.6107L135.545 78.9452Z" fill="white"/>
<path d="M135.545 91.143L111.849 79.3302L110.919 81.1541L134.926 92.978L135.545 91.143Z" fill="white"/>
<path d="M108.024 126.493C98.0688 122.649 77.9429 114.92 77.0767 114.759H108.024V126.493Z" fill="#B4A6CF"/>
<path fill-rule="evenodd" clip-rule="evenodd" d="M52.9277 81.394C52.2087 79.95 51.1527 78.5749 50.3994 77.7504L50.4692 77.6867C51.2267 78.5157 52.2884 79.898 53.0123 81.3518C53.3742 82.0788 53.6527 82.8256 53.7656 83.5314C53.8785 84.2371 53.8264 84.9053 53.5228 85.4713L53.4395 85.4267C53.7302 84.8847 53.7832 84.2393 53.6723 83.5463C53.5614 82.8532 53.2871 82.1159 52.9277 81.394Z" fill="white"/>
<path fill-rule="evenodd" clip-rule="evenodd" d="M71.6716 83.1129C71.8994 81.8095 72.3399 80.473 72.6765 79.6398L72.7642 79.6752C72.4293 80.5039 71.9911 81.8339 71.7647 83.1292C71.6515 83.7768 71.5917 84.4141 71.6235 84.9748C71.6555 85.5363 71.7791 86.0157 72.0281 86.3526L71.9521 86.4088C71.6874 86.0506 71.5616 85.5499 71.5292 84.9802C71.4967 84.4096 71.5577 83.7646 71.6716 83.1129Z" fill="white"/>
<path fill-rule="evenodd" clip-rule="evenodd" d="M66.7013 90.1566C65.8215 92.1052 64.5988 93.8163 63.7401 94.7971L63.6689 94.7349C64.5225 93.76 65.7398 92.0566 66.6151 90.1177C67.491 88.1777 68.021 86.0098 67.5115 84.1016L67.6028 84.0772C68.1207 86.0167 67.5805 88.2092 66.7013 90.1566Z" fill="white"/>
<path fill-rule="evenodd" clip-rule="evenodd" d="M62.0736 98.1574L54.5698 94.481L54.6114 94.3961L62.1152 98.0725L62.0736 98.1574Z" fill="white"/>
<path fill-rule="evenodd" clip-rule="evenodd" d="M59.8428 102.618L52.8174 100.981L52.8388 100.889L59.8642 102.526L59.8428 102.618Z" fill="white"/>
<path fill-rule="evenodd" clip-rule="evenodd" d="M42.7308 94.9859C42.5774 93.8269 42.6268 92.438 42.7193 91.5127L42.8134 91.5221C42.7213 92.4434 42.6724 93.8244 42.8245 94.9735C42.9007 95.5486 43.0266 96.0615 43.2199 96.4292C43.413 96.7967 43.6676 97.0099 44.0002 97.0099V97.1044C43.6177 97.1044 43.3374 96.8559 43.1362 96.4732C42.9352 96.0908 42.8075 95.565 42.7308 94.9859Z" fill="white"/>
</svg>
